Samaano-Wide-Bold-Slanted.ufo
<glyph name=".notdef" format="2">
  <advance width="2048"/>
  <unicode hex="0000"/>
  <outline>
    <contour>
      <point x="519.177" y="-16" type="line"/>
      <point x="1517.18" y="-16" type="line"/>
      <point x="2114.09" y="1624" type="line"/>
      <point x="1116.09" y="1624" type="line"/>
    </contour>
    <contour>
      <point x="622.294" y="64" type="line"/>
      <point x="1162.43" y="1548" type="line"/>
      <point x="1293" y="827" type="line"/>
    </contour>
    <contour>
      <point x="714.294" y="64" type="line"/>
      <point x="1302.98" y="750" type="line"/>
      <point x="1394.29" y="64" type="line"/>
    </contour>
    <contour>
      <point x="1286.07" y="1558" type="line"/>
      <point x="1917.07" y="1558" type="line"/>
      <point x="1362.85" y="909" type="line"/>
    </contour>
    <contour>
      <point x="1372.82" y="832" type="line"/>
      <point x="2013.43" y="1559" type="line"/>
      <point x="1469.29" y="64" type="line"/>
    </contour>
  </outline>
</glyph>
<glyph name="exclam" format="2">
  <advance width="2048"/>
  <unicode hex="0021"/>
  <outline>
    <contour>
      <point x="997.86" y="126.0" type="line"/>
      <point x="1141.86" y="126.0" type="line"/>
      <point x="1232.12" y="374.0" type="line"/>
      <point x="1088.12" y="374.0" type="line"/>
    </contour>
    <contour>
      <point x="1184.39" y="611.0" type="line"/>
      <point x="1312.39" y="611.0" type="line"/>
      <point x="1682.91" y="1629.0" type="line"/>
      <point x="1554.91" y="1629.0" type="line"/>
    </contour>
  </outline>
</glyph>
<glyph name="quotedbl" format="2">
  <advance width="2048"/>
  <unicode hex="0022"/>
  <outline>
    <contour>
      <point x="1235" y="1326" type="line"/>
      <point x="1379" y="1326" type="line"/>
      <point x="1469" y="1574" type="line"/>
      <point x="1325" y="1574" type="line"/>
    </contour>
    <contour>
      <point x="1635" y="1326" type="line"/>
      <point x="1779" y="1326" type="line"/>
      <point x="1869" y="1574" type="line"/>
      <point x="1725" y="1574" type="line"/>
    </contour>
  </outline>
</glyph>
<glyph name="numbersign" format="2">
  <advance width="2048"/>
  <unicode hex="0023"/>
  <outline>
    <contour>
      <point x="1230" y="1347" type="line"/>
      <point x="854" y="313" type="line"/>
      <point x="994" y="313" type="line"/>
      <point x="1370" y="1347" type="line"/>
    </contour>
    <contour>
      <point x="1643" y="1350" type="line"/>
      <point x="1254" y="279" type="line"/>
      <point x="1420" y="279" type="line"/>
      <point x="1809" y="1350" type="line"/>
    </contour>
    <contour>
      <point x="1033" y="1157" type="line"/>
      <point x="980" y="1010" type="line"/>
      <point x="1798" y="1010" type="line"/>
      <point x="1851" y="1157" type="line"/>
    </contour>
    <contour>
      <point x="891" y="767" type="line"/>
      <point x="827" y="592" type="line"/>
      <point x="1653" y="592" type="line"/>
      <point x="1717" y="767" type="line"/>
    </contour>
  </outline>
</glyph>
<glyph name="dollar" format="2">
  <advance width="2048"/>
  <unicode hex="0024"/>
  <outline>
    <contour>
      <point x="1197.421875" y="1537.0" type="line"/>
      <point x="1132.27148438" y="1358.0" type="line"/>
      <point x="1730.27148438" y="1358.0" type="line"/>
      <point x="1795.421875" y="1537.0" type="line"/>
    </contour>
    <contour>
      <point x="1199.2421875" y="1542.0" type="line"/>
      <point x="1012.16113281" y="1028.0" type="line"/>
      <point x="1217.16113281" y="1028.0" type="line"/>
      <point x="1404.2421875" y="1542.0" type="line"/>
    </contour>
    <contour>
      <point x="725.327148438" y="163.0" type="line"/>
      <point x="666.0" y="0.0" type="line"/>
      <point x="1374.0" y="0.0" type="line"/>
      <point x="1433.32714844" y="163.0" type="line"/>
    </contour>
    <contour>
      <point x="1204.0" y="0.0" type="line"/>
      <point x="1410.0" y="0.0" type="line"/>
      <point x="1539.20898438" y="355.0" type="line"/>
      <point x="1333.20898438" y="355.0" type="line"/>
    </contour>
    <contour>
      <point x="1012.16113281" y="1028.0" type="line"/>
      <point x="1333.20898438" y="355.0" type="line"/>
      <point x="1539.20898438" y="355.0" type="line"/>
      <point x="1217.16113281" y="1028.0" type="line"/>
    </contour>
    <contour>
      <point x="1492.45507812" y="1636.0" type="line"/>
      <point x="818.74609375" y="-215.0" type="line"/>
      <point x="1032.74609375" y="-215.0" type="line"/>
      <point x="1706.45507812" y="1636.0" type="line"/>
    </contour>
  </outline>
</glyph>
<glyph name="percent" format="2">
  <advance width="2048"/>
  <unicode hex="0025"/>
  <outline>
    <contour>
      <point x="779.992" y="522" type="line"/>
      <point x="771.217" y="377" type="line"/>
      <point x="1718.6" y="716" type="line"/>
      <point x="1727.01" y="860" type="line"/>
    </contour>
    <contour>
      <point x="1147.84" y="1148" type="line"/>
      <point x="1029.18" y="822" type="line"/>
      <point x="1107.18" y="822" type="line"/>
      <point x="1225.84" y="1148" type="line"/>
    </contour>
    <contour>
      <point x="1149.29" y="1152" type="line"/>
      <point x="1114.72" y="1057" type="line"/>
      <point x="1462.72" y="1057" type="line"/>
      <point x="1497.29" y="1152" type="line"/>
    </contour>
    <contour>
      <point x="1047.02" y="871" type="line"/>
      <point x="1017.17" y="789" type="line"/>
      <point x="1361.17" y="789" type="line"/>
      <point x="1391.02" y="871" type="line"/>
    </contour>
    <contour>
      <point x="1405.29" y="1152" type="line"/>
      <point x="1273.9" y="791" type="line"/>
      <point x="1365.9" y="791" type="line"/>
      <point x="1497.29" y="1152" type="line"/>
    </contour>
    <contour>
      <point x="1216.69" y="436" type="line"/>
      <point x="1098.04" y="110" type="line"/>
      <point x="1176.04" y="110" type="line"/>
      <point x="1294.69" y="436" type="line"/>
    </contour>
    <contour>
      <point x="1218.15" y="440" type="line"/>
      <point x="1183.57" y="345" type="line"/>
      <point x="1529.57" y="345" type="line"/>
      <point x="1564.15" y="440" type="line"/>
    </contour>
    <contour>
      <point x="1115.87" y="159" type="line"/>
      <point x="1086.03" y="77" type="line"/>
      <point x="1430.03" y="77" type="line"/>
      <point x="1459.87" y="159" type="line"/>
    </contour>
    <contour>
      <point x="1472.15" y="440" type="line"/>
      <point x="1340.75" y="79" type="line"/>
      <point x="1432.75" y="79" type="line"/>
      <point x="1564.15" y="440" type="line"/>
    </contour>
  </outline>
</glyph>
<glyph name="ampersand" format="2">
  <advance width="2048"/>
  <unicode hex="0026"/>
  <outline>
    <contour>
      <point x="1331" y="1537" type="line"/>
      <point x="1224" y="12" type="line"/>
      <point x="1386" y="56" type="line"/>
      <point x="1493" y="1537" type="line"/>
    </contour>
    <contour>
      <point x="1826" y="1401" type="line"/>
      <point x="1875" y="1537" type="line"/>
      <point x="1409" y="1537" type="line"/>
      <point x="1360" y="1401" type="line"/>
    </contour>
    <contour>
      <point x="1682" y="1446" type="line"/>
      <point x="1490" y="917" type="line"/>
      <point x="1650" y="917" type="line"/>
      <point x="1842" y="1446" type="line"/>
    </contour>
    <contour>
      <point x="1000" y="1045" type="line"/>
      <point x="927" y="843" type="line"/>
      <point x="1623" y="843" type="line"/>
      <point x="1696" y="1045" type="line"/>
    </contour>
    <contour>
      <point x="1000" y="1045" type="line"/>
      <point x="629" y="24" type="line"/>
      <point x="839" y="24" type="line"/>
      <point x="1210" y="1045" type="line"/>
    </contour>
    <contour>
      <point x="689" y="190" type="line"/>
      <point x="622" y="6" type="line"/>
      <point x="1430" y="6" type="line"/>
      <point x="1497" y="190" type="line"/>
    </contour>
  </outline>
</glyph>
<glyph name="quotesingle" format="2">
  <advance width="2048"/>
  <unicode hex="0027"/>
  <outline>
    <contour>
      <point x="1504" y="1496" type="line"/>
      <point x="1419" y="1264" type="line"/>
      <point x="1549" y="1264" type="line"/>
      <point x="1634" y="1496" type="line"/>
    </contour>
  </outline>
</glyph>
<glyph name="parenleft" format="2">
  <advance width="2048"/>
  <unicode hex="0028"/>
  <outline>
    <contour>
      <point x="1208.34179688" y="1023.0" type="line"/>
      <point x="901.150390625" y="179.0" type="line"/>
      <point x="1091.15039062" y="179.0" type="line"/>
      <point x="1398.34179688" y="1023.0" type="line"/>
    </contour>
    <contour>
      <point x="1748.36328125" y="1633.0" type="line"/>
      <point x="1210.16113281" y="1028.0" type="line"/>
      <point x="1398.16113281" y="1028.0" type="line"/>
      <point x="1780.91113281" y="1640.0" type="line"/>
    </contour>
    <contour>
      <point x="901.150390625" y="179.0" type="line"/>
      <point x="1032.22851562" y="-406.0" type="line"/>
      <point x="1064.22851562" y="-406.0" type="line"/>
      <point x="1091.15039062" y="179.0" type="line"/>
    </contour>
  </outline>
</glyph>
<glyph name="parenright" format="2">
  <advance width="2048"/>
  <unicode hex="0029"/>
  <outline>
    <contour>
      <point x="1372.34179688" y="1023.0" type="line"/>
      <point x="1065.15039062" y="179.0" type="line"/>
      <point x="1255.15039062" y="179.0" type="line"/>
      <point x="1562.34179688" y="1023.0" type="line"/>
    </contour>
    <contour>
      <point x="1450.90722656" y="1629.0" type="line"/>
      <point x="1372.34179688" y="1023.0" type="line"/>
      <point x="1562.34179688" y="1023.0" type="line"/>
      <point x="1488.90722656" y="1629.0" type="line"/>
    </contour>
    <contour>
      <point x="1065.15039062" y="179.0" type="line"/>
      <point x="710.228515625" y="-406.0" type="line"/>
      <point x="738.228515625" y="-406.0" type="line"/>
      <point x="1255.15039062" y="179.0" type="line"/>
    </contour>
  </outline>
</glyph>
<glyph name="asterisk" format="2">
  <advance width="2048"/>
  <unicode hex="002A"/>
  <outline>
    <contour>
      <point x="1406.07" y="1297.0" type="line"/>
      <point x="1043.19" y="300.0" type="line"/>
      <point x="1273.19" y="300.0" type="line"/>
      <point x="1636.07" y="1297.0" type="line"/>
    </contour>
    <contour>
      <point x="977.003" y="1099.0" type="line"/>
      <point x="1436.03" y="360.0" type="line"/>
      <point x="1647.44" y="504.0" type="line"/>
      <point x="1183.69" y="1241.0" type="line"/>
    </contour>
    <contour>
      <point x="1777.41" y="1232.0" type="line"/>
      <point x="797.084" y="525.0" type="line"/>
      <point x="883.396" y="372.0" type="line"/>
      <point x="1863.72" y="1079.0" type="line"/>
    </contour>
  </outline>
</glyph>
<glyph name="plus" format="2">
  <advance width="2048"/>
  <unicode hex="002B"/>
  <outline>
    <contour>
      <point x="1340.41" y="1221.0" type="line"/>
      <point x="956.055" y="165.0" type="line"/>
      <point x="1181.05" y="165.0" type="line"/>
      <point x="1565.41" y="1221.0" type="line"/>
    </contour>
    <contour>
      <point x="871.819" y="821.0" type="line"/>
      <point x="796.113" y="613.0" type="line"/>
      <point x="1698.11" y="613.0" type="line"/>
      <point x="1773.82" y="821.0" type="line"/>
    </contour>
  </outline>
</glyph>
<glyph name="comma" format="2">
  <advance width="2048"/>
  <unicode hex="002C"/>
  <outline>
    <contour>
      <point x="996" y="237" type="line"/>
      <point x="913" y="8" type="line"/>
      <point x="1161" y="8" type="line"/>
      <point x="1244" y="237" type="line"/>
    </contour>
    <contour>
      <point x="1057" y="135" type="line"/>
      <point x="837" y="-146" type="line"/>
      <point x="959" y="-206" type="line"/>
      <point x="1156" y="0" type="line"/>
    </contour>
  </outline>
</glyph>
<glyph name="hyphen" format="2">
  <advance width="2048"/>
  <unicode hex="002D"/>
  <outline>
    <contour>
      <point x="905.087890625" y="808.0" type="line"/>
      <point x="829.381835938" y="600.0" type="line"/>
      <point x="1655.38183594" y="600.0" type="line"/>
      <point x="1731.08789062" y="808.0" type="line"/>
    </contour>
  </outline>
</glyph>
<glyph name="period" format="2">
  <advance width="2048"/>
  <unicode hex="002E"/>
  <outline>
    <contour>
      <point x="981.537" y="246.0" type="line"/>
      <point x="892.0" y="0.0" type="line"/>
      <point x="1156.0" y="0.0" type="line"/>
      <point x="1245.54" y="246.0" type="line"/>
    </contour>
  </outline>
</glyph>
<glyph name="slash" format="2">
  <advance width="2048"/>
  <unicode hex="002F"/>
  <outline>
    <contour>
      <point x="1754.77" y="1483" type="line"/>
      <point x="647.184" y="6" type="line"/>
      <point x="808.614" y="-67" type="line"/>
      <point x="1916.2" y="1410" type="line"/>
    </contour>
  </outline>
</glyph>
<glyph name="zero" format="2">
  <advance width="2048"/>
  <unicode hex="0030"/>
  <outline>
    <contour>
      <point x="742.485" y="908" type="line"/>
      <point x="1967.49" y="908" type="line"/>
      <point x="1894.69" y="708" type="line"/>
      <point x="669.691" y="708" type="line"/>
    </contour>
    <contour>
      <point x="789.636" y="1359" type="line"/>
      <point x="2248.64" y="1359" type="line"/>
      <point x="1829.71" y="208" type="line"/>
      <point x="370.706" y="208" type="line"/>
    </contour>
    <contour>
      <point x="660.43" y="1559" type="line"/>
      <point x="95.5479" y="7" type="line"/>
      <point x="1956.55" y="7" type="line"/>
      <point x="2521.43" y="1559" type="line"/>
    </contour>
  </outline>
</glyph>
<glyph name="one" format="2">
  <advance width="2048"/>
  <unicode hex="0031"/>
  <outline>
    <contour>
      <point x="1022.0" y="0.0" type="line"/>
      <point x="1220.0" y="0.0" type="line"/>
      <point x="1783.43" y="1548.0" type="line"/>
      <point x="1585.43" y="1548.0" type="line"/>
    </contour>
    <contour>
      <point x="1589.43" y="1548.0" type="line"/>
      <point x="1283.69" y="1252.0" type="line"/>
      <point x="1397.29" y="1152.0" type="line"/>
      <point x="1703.39" y="1449.0" type="line"/>
    </contour>
  </outline>
</glyph>
<glyph name="two" format="2">
  <advance width="2048"/>
  <unicode hex="0032"/>
  <outline>
    <contour>
      <point x="598.176" y="1344" type="line"/>
      <point x="2231.18" y="1344" type="line"/>
      <point x="2072.49" y="908" type="line"/>
      <point x="446.485" y="908" type="line"/>
      <point x="116" y="0" type="line"/>
      <point x="1928" y="0" type="line"/>
      <point x="2000.79" y="200" type="line"/>
      <point x="391.794" y="200" type="line"/>
      <point x="576.327" y="707" type="line"/>
      <point x="2199.33" y="707" type="line"/>
      <point x="2505.43" y="1548" type="line"/>
      <point x="672.426" y="1548" type="line"/>
    </contour>
  </outline>
</glyph>
<glyph name="three" format="2">
  <advance width="2048"/>
  <unicode hex="0033"/>
  <outline>
    <contour>
      <point x="368.881835938" y="736.0" type="line"/>
      <point x="2050.88183594" y="736.0" type="line"/>
      <point x="1852.88183594" y="192.0" type="line"/>
      <point x="128.881835938" y="192.0" type="line"/>
      <point x="56.087890625" y="-8.0" type="line"/>
      <point x="1984.08789062" y="-8.0" type="line"/>
      <point x="2552.24609375" y="1553.0" type="line"/>
      <point x="654.24609375" y="1553.0" type="line"/>
      <point x="581.452148438" y="1353.0" type="line"/>
      <point x="2273.45214844" y="1353.0" type="line"/>
      <point x="2121.67578125" y="936.0" type="line"/>
      <point x="441.67578125" y="936.0" type="line"/>
    </contour>
  </outline>
</glyph>
<glyph name="four" format="2">
  <advance width="2048"/>
  <unicode hex="0034"/>
  <outline>
    <contour>
      <point x="367.981" y="761.0" type="line"/>
      <point x="2033.98" y="761.0" type="line"/>
      <point x="1759.55" y="7.0" type="line"/>
      <point x="1955.55" y="7.0" type="line"/>
      <point x="2516.43" y="1548.0" type="line"/>
      <point x="2317.43" y="1548.0" type="line"/>
      <point x="2103.78" y="961.0" type="line"/>
      <point x="640.775" y="961.0" type="line"/>
      <point x="854.426" y="1548.0" type="line"/>
      <point x="654.426" y="1548.0" type="line"/>
    </contour>
  </outline>
</glyph>
<glyph name="five" format="2">
  <advance width="2048"/>
  <unicode hex="0035"/>
  <outline>
    <contour>
      <point x="2072.25292969" y="759.0" type="line"/>
      <point x="1868.06640625" y="198.0" type="line"/>
      <point x="131.06640625" y="198.0" type="line"/>
      <point x="59.0" y="0.0" type="line"/>
      <point x="2001.0" y="0.0" type="line"/>
      <point x="2350.04785156" y="959.0" type="line"/>
      <point x="609.047851562" y="959.0" type="line"/>
      <point x="752.087890625" y="1352.0" type="line"/>
      <point x="2503.08789062" y="1352.0" type="line"/>
      <point x="2574.42578125" y="1548.0" type="line"/>
      <point x="623.42578125" y="1548.0" type="line"/>
      <point x="336.252929688" y="759.0" type="line"/>
    </contour>
  </outline>
</glyph>
<glyph name="six" format="2">
  <advance width="2048"/>
  <unicode hex="0036"/>
  <outline>
    <contour>
      <point x="604.42578125" y="1548.0" type="line"/>
      <point x="114.158203125" y="201.0" type="line"/>
      <point x="41.0" y="0.0" type="line"/>
      <point x="2004.0" y="0.0" type="line"/>
      <point x="2353.04785156" y="959.0" type="line"/>
      <point x="593.047851562" y="959.0" type="line"/>
      <point x="734.631835938" y="1348.0" type="line"/>
      <point x="2499.63183594" y="1348.0" type="line"/>
      <point x="2572.42578125" y="1548.0" type="line"/>
    </contour>
    <contour>
      <point x="2072.25292969" y="759.0" type="line"/>
      <point x="1869.88574219" y="203.0" type="line"/>
      <point x="323.885742188" y="203.0" type="line"/>
      <point x="526.252929688" y="759.0" type="line"/>
    </contour>
  </outline>
</glyph>
<glyph name="seven" format="2">
  <advance width="2048"/>
  <unicode hex="0037"/>
  <outline>
    <contour>
      <point x="547.18" y="1355.0" type="line"/>
      <point x="2281.18" y="1355.0" type="line"/>
      <point x="1788.0" y="0.0" type="line"/>
      <point x="1991.0" y="0.0" type="line"/>
      <point x="2557.7" y="1557.0" type="line"/>
      <point x="620.701" y="1557.0" type="line"/>
    </contour>
  </outline>
</glyph>
<glyph name="eight" format="2">
  <advance width="2048"/>
  <unicode hex="0038"/>
  <outline>
    <contour>
      <point x="619.42578125" y="1548.0" type="line"/>
      <point x="56.0" y="0.0" type="line"/>
      <point x="1993.0" y="0.0" type="line"/>
      <point x="2556.42578125" y="1548.0" type="line"/>
    </contour>
    <contour>
      <point x="2067.25292969" y="759.0" type="line"/>
      <point x="1862.70214844" y="197.0" type="line"/>
      <point x="331.702148438" y="197.0" type="line"/>
      <point x="536.252929688" y="759.0" type="line"/>
    </contour>
    <contour>
      <point x="2141.04785156" y="959.0" type="line"/>
      <point x="609.047851562" y="959.0" type="line"/>
      <point x="751.359375" y="1350.0" type="line"/>
      <point x="2283.359375" y="1350.0" type="line"/>
    </contour>
  </outline>
</glyph>
<glyph name="nine" format="2">
  <advance width="2048"/>
  <unicode hex="0039"/>
  <outline>
    <contour>
      <point x="2081" y="759" type="line"/>
      <point x="1878" y="200" type="line"/>
      <point x="152" y="200" type="line"/>
      <point x="79" y="0" type="line"/>
      <point x="2001" y="0" type="line"/>
      <point x="2567" y="1554" type="line"/>
      <point x="623" y="1554" type="line"/>
      <point x="616" y="1537" type="line"/>
      <point x="333" y="759" type="line"/>
    </contour>
    <contour>
      <point x="2151" y="959" type="line"/>
      <point x="606" y="959" type="line"/>
      <point x="750" y="1354" type="line"/>
      <point x="2295" y="1354" type="line"/>
    </contour>
  </outline>
</glyph>
<glyph name="colon" format="2">
  <advance width="2048"/>
  <unicode hex="003A"/>
  <outline>
    <contour>
      <point x="1068.51" y="430" type="line"/>
      <point x="985.158" y="201" type="line"/>
      <point x="1233.16" y="201" type="line"/>
      <point x="1316.51" y="430" type="line"/>
    </contour>
    <contour>
      <point x="1358.98" y="1294" type="line"/>
      <point x="1269.08" y="1047" type="line"/>
      <point x="1535.08" y="1047" type="line"/>
      <point x="1624.98" y="1294" type="line"/>
    </contour>
  </outline>
</glyph>
<glyph name="semicolon" format="2">
  <advance width="2048"/>
  <unicode hex="003B"/>
  <outline>
    <contour>
      <point x="1068.51" y="430" type="line"/>
      <point x="985.158" y="201" type="line"/>
      <point x="1233.16" y="201" type="line"/>
      <point x="1316.51" y="430" type="line"/>
    </contour>
    <contour>
      <point x="1129.38" y="328" type="line"/>
      <point x="909.106" y="47" type="line"/>
      <point x="1031.27" y="-13" type="line"/>
      <point x="1229.7" y="197" type="line"/>
    </contour>
    <contour>
      <point x="1205.02" y="871" type="line"/>
      <point x="1115.12" y="624" type="line"/>
      <point x="1381.12" y="624" type="line"/>
      <point x="1471.02" y="871" type="line"/>
    </contour>
  </outline>
</glyph>
<glyph name="less" format="2">
  <advance width="2048"/>
  <unicode hex="003C"/>
  <outline>
    <contour>
      <point x="896.805" y="777.0" type="line"/>
      <point x="821.099" y="569.0" type="line"/>
      <point x="1725.72" y="807.0" type="line"/>
      <point x="1800.7" y="1013.0" type="line"/>
    </contour>
    <contour>
      <point x="896.805" y="777.0" type="line"/>
      <point x="821.099" y="569.0" type="line"/>
      <point x="1474.4" y="122.0" type="line"/>
      <point x="1546.11" y="319.0" type="line"/>
    </contour>
  </outline>
</glyph>
<glyph name="equal" format="2">
  <advance width="2048"/>
  <unicode hex="003D"/>
  <outline>
    <contour>
      <point x="948.668945312" y="914.0" type="line"/>
      <point x="879.514648438" y="724.0" type="line"/>
      <point x="1695.51464844" y="724.0" type="line"/>
      <point x="1764.66894531" y="914.0" type="line"/>
    </contour>
    <contour>
      <point x="812.543945312" y="540.0" type="line"/>
      <point x="743.389648438" y="350.0" type="line"/>
      <point x="1559.38964844" y="350.0" type="line"/>
      <point x="1628.54394531" y="540.0" type="line"/>
    </contour>
  </outline>
</glyph>
<glyph name="greater" format="2">
  <advance width="2048"/>
  <unicode hex="003E"/>
  <outline>
    <contour>
      <point x="1718.8" y="777.0" type="line"/>
      <point x="982.702" y="1013.0" type="line"/>
      <point x="907.724" y="807.0" type="line"/>
      <point x="1643.74" y="568.0" type="line"/>
    </contour>
    <contour>
      <point x="1718.8" y="777.0" type="line"/>
      <point x="732.106" y="319.0" type="line"/>
      <point x="660.404" y="122.0" type="line"/>
      <point x="1643.74" y="568.0" type="line"/>
    </contour>
  </outline>
</glyph>
<glyph name="question" format="2">
  <advance width="2048"/>
  <unicode hex="003F"/>
  <outline>
    <contour>
      <point x="969.900390625" y="247.0" type="line"/>
      <point x="880.0" y="0.0" type="line"/>
      <point x="1126.0" y="0.0" type="line"/>
      <point x="1215.90039062" y="247.0" type="line"/>
    </contour>
    <contour>
      <point x="1256.87109375" y="1519.0" type="line"/>
      <point x="1189.171875" y="1333.0" type="line"/>
      <point x="1825.171875" y="1333.0" type="line"/>
      <point x="1892.87109375" y="1519.0" type="line"/>
    </contour>
    <contour>
      <point x="1701.05078125" y="1514.0" type="line"/>
      <point x="1501.59570312" y="966.0" type="line"/>
      <point x="1695.59570312" y="966.0" type="line"/>
      <point x="1895.05078125" y="1514.0" type="line"/>
    </contour>
    <contour>
      <point x="1249.4296875" y="1015.0" type="line"/>
      <point x="1177.0" y="816.0" type="line"/>
      <point x="1641.0" y="816.0" type="line"/>
      <point x="1713.4296875" y="1015.0" type="line"/>
    </contour>
    <contour>
      <point x="1247.97363281" y="1011.0" type="line"/>
      <point x="1022.67675781" y="392.0" type="line"/>
      <point x="1270.67675781" y="392.0" type="line"/>
      <point x="1495.97363281" y="1011.0" type="line"/>
    </contour>
  </outline>
</glyph>
<glyph name="at" format="2">
  <advance width="2048"/>
  <unicode hex="0040"/>
  <outline>
    <contour>
      <point x="985.341796875" y="1023.0" type="line"/>
      <point x="932.9296875" y="879.0" type="line"/>
      <point x="1751.9296875" y="879.0" type="line"/>
      <point x="1804.34179688" y="1023.0" type="line"/>
    </contour>
    <contour>
      <point x="1364.47070312" y="592.0" type="line"/>
      <point x="1149.0" y="0.0" type="line"/>
      <point x="1302.0" y="0.0" type="line"/>
      <point x="1517.47070312" y="592.0" type="line"/>
    </contour>
    <contour>
      <point x="1034.38183594" y="600.0" type="line"/>
      <point x="977.602539062" y="444.0" type="line"/>
      <point x="1402.60253906" y="444.0" type="line"/>
      <point x="1459.38183594" y="600.0" type="line"/>
    </contour>
    <contour>
      <point x="1027.37890625" y="589.0" type="line"/>
      <point x="817.3671875" y="12.0" type="line"/>
      <point x="991.3671875" y="12.0" type="line"/>
      <point x="1201.37890625" y="589.0" type="line"/>
    </contour>
    <contour>
      <point x="879.426757812" y="188.0" type="line"/>
      <point x="811.0" y="0.0" type="line"/>
      <point x="1305.0" y="0.0" type="line"/>
      <point x="1373.42675781" y="188.0" type="line"/>
    </contour>
    <contour>
      <point x="897.341796875" y="1023.0" type="line"/>
      <point x="443.834960938" y="-223.0" type="line"/>
      <point x="619.834960938" y="-223.0" type="line"/>
      <point x="1073.34179688" y="1023.0" type="line"/>
    </contour>
    <contour>
      <point x="491.698242188" y="-86.0" type="line"/>
      <point x="429.095703125" y="-258.0" type="line"/>
      <point x="1377.09570312" y="-258.0" type="line"/>
      <point x="1439.69824219" y="-86.0" type="line"/>
    </contour>
    <contour>
      <point x="1741.97363281" y="1011.0" type="line"/>
      <point x="1374.0" y="0.0" type="line"/>
      <point x="1525.0" y="0.0" type="line"/>
      <point x="1892.97363281" y="1011.0" type="line"/>
    </contour>
    <contour>
      <point x="1309.69433594" y="175.0" type="line"/>
      <point x="1246.0" y="0.0" type="line"/>
      <point x="1455.0" y="0.0" type="line"/>
      <point x="1518.69433594" y="175.0" type="line"/>
    </contour>
  </outline>
</glyph>
<glyph name="A" format="2">
  <advance width="2048"/>
  <unicode hex="0041"/>
  <anchor x="1601" y="1626" name="top"/>
  <anchor x="1020" y="-11" name="base"/>
  <outline>
    <contour>
      <point x="121" y="0" type="line"/>
      <point x="320" y="0" type="line"/>
      <point x="883" y="1548" type="line"/>
      <point x="684" y="1548" type="line"/>
    </contour>
    <contour>
      <point x="667" y="1332" type="line"/>
      <point x="2335" y="1332" type="line"/>
      <point x="2413" y="1548" type="line"/>
      <point x="745" y="1548" type="line"/>
    </contour>
    <contour>
      <point x="572" y="1023" type="line"/>
      <point x="509" y="849" type="line"/>
      <point x="2147" y="849" type="line"/>
      <point x="2210" y="1023" type="line"/>
    </contour>
    <contour>
      <point x="1725" y="0" type="line"/>
      <point x="1925" y="0" type="line"/>
      <point x="2488" y="1548" type="line"/>
      <point x="2288" y="1548" type="line"/>
    </contour>
  </outline>
</glyph>
<glyph name="B" format="2">
  <advance width="2048"/>
  <unicode hex="0042"/>
  <outline>
    <contour>
      <point x="90.0" y="0.0" type="line"/>
      <point x="298.0" y="0.0" type="line"/>
      <point x="857.422" y="1537.0" type="line"/>
      <point x="649.422" y="1537.0" type="line"/>
    </contour>
    <contour>
      <point x="1922.44" y="1331.0" type="line"/>
      <point x="2311.97" y="989.0" type="line"/>
      <point x="2394.22" y="1215.0" type="line"/>
      <point x="1997.42" y="1537.0" type="line"/>
    </contour>
    <contour>
      <point x="1736.46" y="820.0" type="line"/>
      <point x="2312.69" y="991.0" type="line"/>
      <point x="2394.22" y="1215.0" type="line"/>
      <point x="1810.34" y="1023.0" type="line"/>
    </contour>
    <contour>
      <point x="1453.16" y="201.0" type="line"/>
      <point x="1380.0" y="0.0" type="line"/>
      <point x="2066.49" y="364.0" type="line"/>
      <point x="2148.01" y="588.0" type="line"/>
    </contour>
    <contour>
      <point x="1652.37" y="567.0" type="line"/>
      <point x="2066.49" y="364.0" type="line"/>
      <point x="2147.29" y="586.0" type="line"/>
      <point x="1724.8" y="766.0" type="line"/>
    </contour>
    <contour>
      <point x="624.342" y="1023.0" type="line"/>
      <point x="550.456" y="820.0" type="line"/>
      <point x="1736.46" y="820.0" type="line"/>
      <point x="1810.34" y="1023.0" type="line"/>
    </contour>
    <contour>
      <point x="528.801" y="766.0" type="line"/>
      <point x="456.371" y="567.0" type="line"/>
      <point x="1652.37" y="567.0" type="line"/>
      <point x="1724.8" y="766.0" type="line"/>
    </contour>
    <contour>
      <point x="260.794" y="200.0" type="line"/>
      <point x="188.0" y="0.0" type="line"/>
      <point x="1380.0" y="0.0" type="line"/>
      <point x="1452.79" y="200.0" type="line"/>
    </contour>
    <contour>
      <point x="809.422" y="1537.0" type="line"/>
      <point x="734.444" y="1331.0" type="line"/>
      <point x="1922.44" y="1331.0" type="line"/>
      <point x="1997.42" y="1537.0" type="line"/>
    </contour>
  </outline>
</glyph>
<glyph name="C" format="2">
  <advance width="2048"/>
  <unicode hex="0043"/>
  <anchor x="1618" y="1629" name="top"/>
  <anchor x="1007" y="-88" name="base"/>
  <outline>
    <contour>
      <point x="630.422" y="1537" type="line"/>
      <point x="71" y="0" type="line"/>
      <point x="271" y="0" type="line"/>
      <point x="830.422" y="1537" type="line"/>
    </contour>
    <contour>
      <point x="729.422" y="1537" type="line"/>
      <point x="656.992" y="1338" type="line"/>
      <point x="2463.99" y="1338" type="line"/>
      <point x="2536.42" y="1537" type="line"/>
    </contour>
    <contour>
      <point x="228.43" y="199" type="line"/>
      <point x="156" y="0" type="line"/>
      <point x="1975" y="0" type="line"/>
      <point x="2047.43" y="199" type="line"/>
    </contour>
  </outline>
</glyph>
<glyph name="D" format="2">
  <advance width="2048"/>
  <unicode hex="0044"/>
  <anchor x="1013" y="-67" name="base"/>
  <anchor x="1408" y="1645" name="top"/>
  <outline>
    <contour>
      <point x="681.426" y="1548" type="line"/>
      <point x="118" y="0" type="line"/>
      <point x="320" y="0" type="line"/>
      <point x="883.426" y="1548" type="line"/>
    </contour>
    <contour>
      <point x="2007.43" y="1548" type="line"/>
      <point x="1935.36" y="1350" type="line"/>
      <point x="2207.17" y="767" type="line"/>
      <point x="2300.34" y="1023" type="line"/>
    </contour>
    <contour>
      <point x="1525.16" y="201" type="line"/>
      <point x="1452" y="0" type="line"/>
      <point x="2203.89" y="769" type="line"/>
      <point x="2296.34" y="1023" type="line"/>
    </contour>
    <contour>
      <point x="845.426" y="1548" type="line"/>
      <point x="772.996" y="1349" type="line"/>
      <point x="1935" y="1349" type="line"/>
      <point x="2007.43" y="1548" type="line"/>
    </contour>
    <contour>
      <point x="362.794" y="200" type="line"/>
      <point x="290" y="0" type="line"/>
      <point x="1452" y="0" type="line"/>
      <point x="1524.79" y="200" type="line"/>
    </contour>
  </outline>
</glyph>
<glyph name="E" format="2">
  <advance width="2048"/>
  <unicode hex="0045"/>
  <anchor x="1516" y="1637" name="top"/>
  <anchor x="1035" y="-100" name="base"/>
  <outline>
    <contour>
      <point x="675" y="1537" type="line"/>
      <point x="116" y="0" type="line"/>
      <point x="316" y="0" type="line"/>
      <point x="875" y="1537" type="line"/>
    </contour>
    <contour>
      <point x="753" y="1537" type="line"/>
      <point x="679" y="1333" type="line"/>
      <point x="2397" y="1333" type="line"/>
      <point x="2471" y="1537" type="line"/>
    </contour>
    <contour>
      <point x="256" y="203" type="line"/>
      <point x="182" y="0" type="line"/>
      <point x="1928" y="0" type="line"/>
      <point x="2002" y="203" type="line"/>
    </contour>
    <contour>
      <point x="505" y="888" type="line"/>
      <point x="432" y="688" type="line"/>
      <point x="1932" y="688" type="line"/>
      <point x="2005" y="888" type="line"/>
    </contour>
  </outline>
</glyph>
<glyph name="F" format="2">
  <advance width="2048"/>
  <unicode hex="0046"/>
  <outline>
    <contour>
      <point x="716.426" y="1548.0" type="line"/>
      <point x="153.0" y="0.0" type="line"/>
      <point x="353.0" y="0.0" type="line"/>
      <point x="916.426" y="1548.0" type="line"/>
    </contour>
    <contour>
      <point x="818.426" y="1548.0" type="line"/>
      <point x="745.268" y="1347.0" type="line"/>
      <point x="2379.27" y="1347.0" type="line"/>
      <point x="2452.43" y="1548.0" type="line"/>
    </contour>
    <contour>
      <point x="561.474" y="875.0" type="line"/>
      <point x="487.588" y="672.0" type="line"/>
      <point x="2036.59" y="672.0" type="line"/>
      <point x="2110.47" y="875.0" type="line"/>
    </contour>
  </outline>
</glyph>
<glyph name="G" format="2">
  <advance width="2048"/>
  <unicode hex="0047"/>
  <outline>
    <contour>
      <point x="690.426" y="1548.0" type="line"/>
      <point x="127.0" y="0.0" type="line"/>
      <point x="329.0" y="0.0" type="line"/>
      <point x="892.426" y="1548.0" type="line"/>
    </contour>
    <contour>
      <point x="748.426" y="1548.0" type="line"/>
      <point x="675.268" y="1347.0" type="line"/>
      <point x="2375.27" y="1347.0" type="line"/>
      <point x="2448.43" y="1548.0" type="line"/>
    </contour>
    <contour>
      <point x="231.522" y="202.0" type="line"/>
      <point x="158.0" y="0.0" type="line"/>
      <point x="1921.0" y="0.0" type="line"/>
      <point x="1994.52" y="202.0" type="line"/>
    </contour>
    <contour>
      <point x="1926.19" y="561.0" type="line"/>
      <point x="1728.55" y="18.0" type="line"/>
      <point x="1927.55" y="18.0" type="line"/>
      <point x="2125.19" y="561.0" type="line"/>
    </contour>
  </outline>
</glyph>
<glyph name="H" format="2">
  <advance width="2048"/>
  <unicode hex="0048"/>
  <outline>
    <contour>
      <point x="685.422" y="1537.0" type="line"/>
      <point x="126.0" y="0.0" type="line"/>
      <point x="326.0" y="0.0" type="line"/>
      <point x="885.422" y="1537.0" type="line"/>
    </contour>
    <contour>
      <point x="2271.42" y="1537.0" type="line"/>
      <point x="1712.0" y="0.0" type="line"/>
      <point x="1922.0" y="0.0" type="line"/>
      <point x="2481.42" y="1537.0" type="line"/>
    </contour>
    <contour>
      <point x="618.342" y="1023.0" type="line"/>
      <point x="543.728" y="818.0" type="line"/>
      <point x="2089.73" y="818.0" type="line"/>
      <point x="2164.34" y="1023.0" type="line"/>
    </contour>
  </outline>
</glyph>
<glyph name="I" format="2">
  <advance width="2048"/>
  <unicode hex="0049"/>
  <outline>
    <contour>
      <point x="703.421875" y="1537.0" type="line"/>
      <point x="629.900390625" y="1335.0" type="line"/>
      <point x="2374.90039062" y="1335.0" type="line"/>
      <point x="2448.421875" y="1537.0" type="line"/>
    </contour>
    <contour>
      <point x="1509.30859375" y="1468.0" type="line"/>
      <point x="1005.57324219" y="84.0" type="line"/>
      <point x="1205.57324219" y="84.0" type="line"/>
      <point x="1709.30859375" y="1468.0" type="line"/>
    </contour>
    <contour>
      <point x="198.25" y="204.0" type="line"/>
      <point x="126.18359375" y="6.0" type="line"/>
      <point x="1926.18359375" y="6.0" type="line"/>
      <point x="1998.25" y="204.0" type="line"/>
    </contour>
  </outline>
</glyph>
<glyph name="J" format="2">
  <advance width="2048"/>
  <unicode hex="004A"/>
  <outline>
    <contour>
      <point x="2267.78" y="1527.0" type="line"/>
      <point x="1712.0" y="0.0" type="line"/>
      <point x="1912.0" y="0.0" type="line"/>
      <point x="2467.78" y="1527.0" type="line"/>
    </contour>
    <contour>
      <point x="213.706" y="208.0" type="line"/>
      <point x="138.0" y="0.0" type="line"/>
      <point x="1752.0" y="0.0" type="line"/>
      <point x="1827.71" y="208.0" type="line"/>
    </contour>
    <contour>
      <point x="319.077" y="503.0" type="line"/>
      <point x="154.927" y="52.0" type="line"/>
      <point x="352.927" y="52.0" type="line"/>
      <point x="517.077" y="503.0" type="line"/>
    </contour>
  </outline>
</glyph>
<glyph name="K" format="2">
  <advance width="2048"/>
  <unicode hex="004B"/>
  <outline>
    <contour>
      <point x="671.421875" y="1537.0" type="line"/>
      <point x="113.8203125" y="5.0" type="line"/>
      <point x="314.8203125" y="5.0" type="line"/>
      <point x="872.421875" y="1537.0" type="line"/>
    </contour>
    <contour>
      <point x="520.606445312" y="999.0" type="line"/>
      <point x="579.915039062" y="835.0" type="line"/>
      <point x="2439.51074219" y="1529.0" type="line"/>
      <point x="2172.51074219" y="1529.0" type="line"/>
    </contour>
    <contour>
      <point x="577.448242188" y="798.0" type="line"/>
      <point x="384.033203125" y="643.0" type="line"/>
      <point x="1655.0" y="0.0" type="line"/>
      <point x="1936.0" y="0.0" type="line"/>
    </contour>
  </outline>
</glyph>
<glyph name="L" format="2">
  <advance width="2048"/>
  <unicode hex="004C"/>
  <outline>
    <contour>
      <point x="690.2421875" y="1542.0" type="line"/>
      <point x="129.0" y="0.0" type="line"/>
      <point x="327.0" y="0.0" type="line"/>
      <point x="888.2421875" y="1542.0" type="line"/>
    </contour>
    <contour>
      <point x="311.522460938" y="202.0" type="line"/>
      <point x="238.0" y="0.0" type="line"/>
      <point x="1914.0" y="0.0" type="line"/>
      <point x="1987.52246094" y="202.0" type="line"/>
    </contour>
  </outline>
</glyph>
<glyph name="M" format="2">
  <advance width="2048"/>
  <unicode hex="004D"/>
  <outline>
    <contour>
      <point x="701.426" y="1548.0" type="line"/>
      <point x="138.0" y="0.0" type="line"/>
      <point x="340.0" y="0.0" type="line"/>
      <point x="903.426" y="1548.0" type="line"/>
    </contour>
    <contour>
      <point x="2267.42" y="1537.0" type="line"/>
      <point x="1708.0" y="0.0" type="line"/>
      <point x="1910.0" y="0.0" type="line"/>
      <point x="2469.42" y="1537.0" type="line"/>
    </contour>
    <contour>
      <point x="694.113" y="1429.0" type="line"/>
      <point x="1265.25" y="1031.0" type="line"/>
      <point x="1453.25" y="1031.0" type="line"/>
      <point x="879.426" y="1548.0" type="line"/>
    </contour>
    <contour>
      <point x="2295.42" y="1537.0" type="line"/>
      <point x="1260.34" y="1023.0" type="line"/>
      <point x="1448.34" y="1023.0" type="line"/>
      <point x="2443.59" y="1488.0" type="line"/>
    </contour>
  </outline>
</glyph>
<glyph name="N" format="2">
  <advance width="2048"/>
  <unicode hex="004E"/>
  <anchor x="1658" y="1630" name="top"/>
  <anchor x="1027" y="-36" name="base"/>
  <outline>
    <contour>
      <point x="697.426" y="1548" type="line"/>
      <point x="134" y="0" type="line"/>
      <point x="338" y="0" type="line"/>
      <point x="901.426" y="1548" type="line"/>
    </contour>
    <contour>
      <point x="2273.43" y="1548" type="line"/>
      <point x="1710" y="0" type="line"/>
      <point x="1912" y="0" type="line"/>
      <point x="2475.43" y="1548" type="line"/>
    </contour>
    <contour>
      <point x="697.426" y="1548" type="line"/>
      <point x="1712" y="0" type="line"/>
      <point x="1914" y="0" type="line"/>
      <point x="903.426" y="1548" type="line"/>
    </contour>
  </outline>
</glyph>
<glyph name="O" format="2">
  <advance width="2048"/>
  <unicode hex="004F"/>
  <anchor x="1700" y="1633" name="top"/>
  <anchor x="1023" y="-59" name="base"/>
  <outline>
    <contour>
      <point x="708" y="1537" type="line"/>
      <point x="149" y="0" type="line"/>
      <point x="350" y="0" type="line"/>
      <point x="909" y="1537" type="line"/>
    </contour>
    <contour>
      <point x="2255" y="1537" type="line"/>
      <point x="1696" y="0" type="line"/>
      <point x="1899" y="0" type="line"/>
      <point x="2458" y="1537" type="line"/>
    </contour>
    <contour>
      <point x="772" y="1537" type="line"/>
      <point x="700" y="1337" type="line"/>
      <point x="2293" y="1337" type="line"/>
      <point x="2365" y="1537" type="line"/>
    </contour>
    <contour>
      <point x="263" y="204" type="line"/>
      <point x="189" y="0" type="line"/>
      <point x="1812" y="0" type="line"/>
      <point x="1886" y="204" type="line"/>
    </contour>
  </outline>
</glyph>
<glyph name="P" format="2">
  <advance width="2048"/>
  <unicode hex="0050"/>
  <outline>
    <contour>
      <point x="735.42578125" y="1548.0" type="line"/>
      <point x="175.275390625" y="9.0" type="line"/>
      <point x="365.275390625" y="9.0" type="line"/>
      <point x="925.42578125" y="1548.0" type="line"/>
    </contour>
    <contour>
      <point x="813.42578125" y="1548.0" type="line"/>
      <point x="739.904296875" y="1346.0" type="line"/>
      <point x="2345.90429688" y="1346.0" type="line"/>
      <point x="2419.42578125" y="1548.0" type="line"/>
    </contour>
    <contour>
      <point x="2239.42578125" y="1548.0" type="line"/>
      <point x="1996.65820312" y="881.0" type="line"/>
      <point x="2196.65820312" y="881.0" type="line"/>
      <point x="2439.42578125" y="1548.0" type="line"/>
    </contour>
    <contour>
      <point x="622.719726562" y="1068.0" type="line"/>
      <point x="549.92578125" y="868.0" type="line"/>
      <point x="2187.92578125" y="868.0" type="line"/>
      <point x="2260.71972656" y="1068.0" type="line"/>
    </contour>
  </outline>
</glyph>
<glyph name="Q" format="2">
  <advance width="2048"/>
  <unicode hex="0051"/>
  <outline>
    <contour>
      <point x="708.422" y="1537.0" type="line"/>
      <point x="150.82" y="5.0" type="line"/>
      <point x="349.82" y="5.0" type="line"/>
      <point x="907.422" y="1537.0" type="line"/>
    </contour>
    <contour>
      <point x="2257.42" y="1537.0" type="line"/>
      <point x="1698.0" y="0.0" type="line"/>
      <point x="1899.0" y="0.0" type="line"/>
      <point x="2458.42" y="1537.0" type="line"/>
    </contour>
    <contour>
      <point x="772.422" y="1537.0" type="line"/>
      <point x="699.628" y="1337.0" type="line"/>
      <point x="2292.63" y="1337.0" type="line"/>
      <point x="2365.42" y="1537.0" type="line"/>
    </contour>
    <contour>
      <point x="263.614" y="205.0" type="line"/>
      <point x="189.0" y="0.0" type="line"/>
      <point x="1812.0" y="0.0" type="line"/>
      <point x="1886.61" y="205.0" type="line"/>
    </contour>
    <contour>
      <point x="1254.64" y="21.0" type="line"/>
      <point x="1329.27" y="-285.0" type="line"/>
      <point x="1562.49" y="-169.0" type="line"/>
      <point x="1487.86" y="137.0" type="line"/>
    </contour>
  </outline>
</glyph>
<glyph name="R" format="2">
  <advance width="2048"/>
  <unicode hex="0052"/>
  <outline>
    <contour>
      <point x="661.421875" y="1537.0" type="line"/>
      <point x="102.0" y="0.0" type="line"/>
      <point x="303.0" y="0.0" type="line"/>
      <point x="862.421875" y="1537.0" type="line"/>
    </contour>
    <contour>
      <point x="740.421875" y="1537.0" type="line"/>
      <point x="666.900390625" y="1335.0" type="line"/>
      <point x="2322.90039062" y="1335.0" type="line"/>
      <point x="2396.421875" y="1537.0" type="line"/>
    </contour>
    <contour>
      <point x="2223.421875" y="1537.0" type="line"/>
      <point x="1981.38183594" y="872.0" type="line"/>
      <point x="2181.38183594" y="872.0" type="line"/>
      <point x="2423.421875" y="1537.0" type="line"/>
    </contour>
    <contour>
      <point x="557.723632812" y="1079.0" type="line"/>
      <point x="480.92578125" y="868.0" type="line"/>
      <point x="2167.92578125" y="868.0" type="line"/>
      <point x="2244.72363281" y="1079.0" type="line"/>
    </contour>
    <contour>
      <point x="629.661132812" y="892.0" type="line"/>
      <point x="1706.0" y="0.0" type="line"/>
      <point x="1946.0" y="0.0" type="line"/>
      <point x="828.661132812" y="892.0" type="line"/>
    </contour>
  </outline>
</glyph>
<glyph name="S" format="2">
  <advance width="2048"/>
  <unicode hex="0053"/>
  <anchor x="1590" y="1641" name="top"/>
  <anchor x="1020" y="-67" name="base"/>
  <outline>
    <contour>
      <point x="697.422" y="1537" type="line"/>
      <point x="624.265" y="1336" type="line"/>
      <point x="2222.26" y="1336" type="line"/>
      <point x="2295.42" y="1537" type="line"/>
    </contour>
    <contour>
      <point x="699.242" y="1542" type="line"/>
      <point x="512.161" y="1028" type="line"/>
      <point x="714.161" y="1028" type="line"/>
      <point x="901.242" y="1542" type="line"/>
    </contour>
    <contour>
      <point x="238.43" y="199" type="line"/>
      <point x="166" y="0" type="line"/>
      <point x="1874" y="0" type="line"/>
      <point x="1946.43" y="199" type="line"/>
    </contour>
    <contour>
      <point x="1709" y="0" type="line"/>
      <point x="1910" y="0" type="line"/>
      <point x="2039.21" y="355" type="line"/>
      <point x="1838.21" y="355" type="line"/>
    </contour>
    <contour>
      <point x="512.161" y="1028" type="line"/>
      <point x="1838.21" y="355" type="line"/>
      <point x="2039.21" y="355" type="line"/>
      <point x="714.161" y="1028" type="line"/>
    </contour>
  </outline>
</glyph>
<glyph name="T" format="2">
  <advance width="2048"/>
  <unicode hex="0054"/>
  <outline>
    <contour>
      <point x="688.42578125" y="1548.0" type="line"/>
      <point x="615.631835938" y="1348.0" type="line"/>
      <point x="2413.63183594" y="1348.0" type="line"/>
      <point x="2486.42578125" y="1548.0" type="line"/>
    </contour>
    <contour>
      <point x="1446.66113281" y="1436.0" type="line"/>
      <point x="926.18359375" y="6.0" type="line"/>
      <point x="1126.18359375" y="6.0" type="line"/>
      <point x="1646.66113281" y="1436.0" type="line"/>
    </contour>
  </outline>
</glyph>
<glyph name="U" format="2">
  <advance width="2048"/>
  <unicode hex="0055"/>
  <outline>
    <contour>
      <point x="715.421875" y="1537.0" type="line"/>
      <point x="156.0" y="0.0" type="line"/>
      <point x="356.0" y="0.0" type="line"/>
      <point x="915.421875" y="1537.0" type="line"/>
    </contour>
    <contour>
      <point x="2251.421875" y="1537.0" type="line"/>
      <point x="1692.0" y="0.0" type="line"/>
      <point x="1890.0" y="0.0" type="line"/>
      <point x="2449.421875" y="1537.0" type="line"/>
    </contour>
    <contour>
      <point x="276.793945312" y="200.0" type="line"/>
      <point x="204.0" y="0.0" type="line"/>
      <point x="1848.0" y="0.0" type="line"/>
      <point x="1920.79394531" y="200.0" type="line"/>
    </contour>
  </outline>
</glyph>
<glyph name="V" format="2">
  <advance width="2048"/>
  <unicode hex="0056"/>
  <outline>
    <contour>
      <point x="681.42578125" y="1548.0" type="line"/>
      <point x="890.0" y="0.0" type="line"/>
      <point x="1112.0" y="0.0" type="line"/>
      <point x="883.42578125" y="1548.0" type="line"/>
    </contour>
    <contour>
      <point x="2291.42578125" y="1548.0" type="line"/>
      <point x="1016.0" y="0.0" type="line"/>
      <point x="1238.0" y="0.0" type="line"/>
      <point x="2493.42578125" y="1548.0" type="line"/>
    </contour>
  </outline>
</glyph>
<glyph name="W" format="2">
  <advance width="2048"/>
  <unicode hex="0057"/>
  <outline>
    <contour>
      <point x="667.426" y="1548.0" type="line"/>
      <point x="104.0" y="0.0" type="line"/>
      <point x="304.0" y="0.0" type="line"/>
      <point x="867.426" y="1548.0" type="line"/>
    </contour>
    <contour>
      <point x="2307.43" y="1548.0" type="line"/>
      <point x="1748.37" y="12.0" type="line"/>
      <point x="1950.37" y="12.0" type="line"/>
      <point x="2509.43" y="1548.0" type="line"/>
    </contour>
    <contour>
      <point x="1300.16" y="1028.0" type="line"/>
      <point x="926.0" y="0.0" type="line"/>
      <point x="1128.0" y="0.0" type="line"/>
      <point x="1502.16" y="1028.0" type="line"/>
    </contour>
    <contour>
      <point x="175.158" y="201.0" type="line"/>
      <point x="102.0" y="0.0" type="line"/>
      <point x="1946.0" y="0.0" type="line"/>
      <point x="2019.16" y="201.0" type="line"/>
    </contour>
  </outline>
</glyph>
<glyph name="X" format="2">
  <advance width="2048"/>
  <unicode hex="0058"/>
  <outline>
    <contour>
      <point x="645.426" y="1548.0" type="line"/>
      <point x="1766.0" y="0.0" type="line"/>
      <point x="1966.0" y="0.0" type="line"/>
      <point x="844.426" y="1548.0" type="line"/>
    </contour>
    <contour>
      <point x="87.1836" y="6.0" type="line"/>
      <point x="288.184" y="6.0" type="line"/>
      <point x="2521.43" y="1548.0" type="line"/>
      <point x="2322.43" y="1548.0" type="line"/>
    </contour>
  </outline>
</glyph>
<glyph name="Y" format="2">
  <advance width="2048"/>
  <unicode hex="0059"/>
  <anchor x="1555" y="1642" name="top"/>
  <anchor x="1004" y="-82" name="base"/>
  <outline>
    <contour>
      <point x="1240" y="897" type="line"/>
      <point x="914" y="0" type="line"/>
      <point x="1116" y="0" type="line"/>
      <point x="1442" y="897" type="line"/>
    </contour>
    <contour>
      <point x="673" y="1548" type="line"/>
      <point x="423" y="859" type="line"/>
      <point x="623" y="859" type="line"/>
      <point x="873" y="1548" type="line"/>
    </contour>
    <contour>
      <point x="2301" y="1548" type="line"/>
      <point x="2051" y="859" type="line"/>
      <point x="2251" y="859" type="line"/>
      <point x="2501" y="1548" type="line"/>
    </contour>
    <contour>
      <point x="550" y="1023" type="line"/>
      <point x="491" y="859" type="line"/>
      <point x="2161" y="859" type="line"/>
      <point x="2220" y="1023" type="line"/>
    </contour>
  </outline>
</glyph>
<glyph name="Z" format="2">
  <advance width="2048"/>
  <unicode hex="005A"/>
  <anchor x="1743" y="1637" name="top"/>
  <anchor x="1021" y="-55" name="base"/>
  <outline>
    <contour>
      <point x="670.426" y="1548" type="line"/>
      <point x="593.265" y="1336" type="line"/>
      <point x="2427.26" y="1336" type="line"/>
      <point x="2504.43" y="1548" type="line"/>
    </contour>
    <contour>
      <point x="185.162" y="212" type="line"/>
      <point x="108" y="0" type="line"/>
      <point x="1936" y="0" type="line"/>
      <point x="2013.16" y="212" type="line"/>
    </contour>
    <contour>
      <point x="2165.9" y="1335" type="line"/>
      <point x="184.798" y="211" type="line"/>
      <point x="391.798" y="211" type="line"/>
      <point x="2410.9" y="1335" type="line"/>
    </contour>
  </outline>
</glyph>
<glyph name="bracketleft" format="2">
  <advance width="2048"/>
  <unicode hex="005B"/>
  <outline>
    <contour>
      <point x="1451.2421875" y="1542.0" type="line"/>
      <point x="801.918945312" y="-242.0" type="line"/>
      <point x="923.918945312" y="-242.0" type="line"/>
      <point x="1573.2421875" y="1542.0" type="line"/>
    </contour>
    <contour>
      <point x="1505.60644531" y="1543.0" type="line"/>
      <point x="1459.38183594" y="1416.0" type="line"/>
      <point x="1668.38183594" y="1416.0" type="line"/>
      <point x="1714.60644531" y="1543.0" type="line"/>
    </contour>
    <contour>
      <point x="910.87890625" y="-91.0" type="line"/>
      <point x="855.918945312" y="-242.0" type="line"/>
      <point x="1069.91894531" y="-242.0" type="line"/>
      <point x="1124.87890625" y="-91.0" type="line"/>
    </contour>
  </outline>
</glyph>
<glyph name="backslash" format="2">
  <advance width="2048"/>
  <unicode hex="005C"/>
  <outline>
    <contour>
      <point x="1139.48" y="1441.0" type="line"/>
      <point x="1237.27" y="-13.0" type="line"/>
      <point x="1456.66" y="65.0" type="line"/>
      <point x="1359.87" y="1519.0" type="line"/>
    </contour>
  </outline>
</glyph>
<glyph name="bracketright" format="2">
  <advance width="2048"/>
  <unicode hex="005D"/>
  <outline>
    <contour>
      <point x="1597.2421875" y="1542.0" type="line"/>
      <point x="947.918945312" y="-242.0" type="line"/>
      <point x="1069.91894531" y="-242.0" type="line"/>
      <point x="1719.2421875" y="1542.0" type="line"/>
    </contour>
    <contour>
      <point x="1447.60644531" y="1543.0" type="line"/>
      <point x="1401.38183594" y="1416.0" type="line"/>
      <point x="1609.38183594" y="1416.0" type="line"/>
      <point x="1655.60644531" y="1543.0" type="line"/>
    </contour>
    <contour>
      <point x="852.87890625" y="-91.0" type="line"/>
      <point x="797.918945312" y="-242.0" type="line"/>
      <point x="1011.91894531" y="-242.0" type="line"/>
      <point x="1066.87890625" y="-91.0" type="line"/>
    </contour>
  </outline>
</glyph>
<glyph name="asciicircum" format="2">
  <advance width="2048"/>
  <unicode hex="005E"/>
  <outline>
    <contour>
      <point x="1472.34" y="1023" type="line"/>
      <point x="1322.34" y="1023" type="line"/>
      <point x="834.136" y="407" type="line"/>
      <point x="961.569" y="345" type="line"/>
    </contour>
    <contour>
      <point x="1285.03" y="904" type="line"/>
      <point x="1336.84" y="343" type="line"/>
      <point x="1507.59" y="400" type="line"/>
      <point x="1472.34" y="1023" type="line"/>
    </contour>
  </outline>
</glyph>
<glyph name="underscore" format="2">
  <advance width="2048"/>
  <unicode hex="005F"/>
  <outline>
    <contour>
      <point x="-1.8203125" y="-5.0" type="line"/>
      <point x="-25.841796875" y="-71.0" type="line"/>
      <point x="2026.15820312" y="-71.0" type="line"/>
      <point x="2050.1796875" y="-5.0" type="line"/>
    </contour>
  </outline>
</glyph>
<glyph name="grave" format="2">
  <advance width="2048"/>
  <unicode hex="0060"/>
  <outline>
    <contour>
      <point x="1371.27148438" y="1358.0" type="line"/>
      <point x="1406.71679688" y="1057.0" type="line"/>
      <point x="1581.92285156" y="1129.0" type="line"/>
      <point x="1545.47753906" y="1430.0" type="line"/>
    </contour>
  </outline>
</glyph>
<glyph name="a" format="2">
  <advance width="2048"/>
  <unicode hex="0061"/>
  <outline>
    <contour>
      <point x="550.342" y="1023.0" type="line"/>
      <point x="477.911" y="824.0" type="line"/>
      <point x="2083.91" y="824.0" type="line"/>
      <point x="2156.34" y="1023.0" type="line"/>
    </contour>
    <contour>
      <point x="2043.34" y="1023.0" type="line"/>
      <point x="1671.0" y="0.0" type="line"/>
      <point x="1865.0" y="0.0" type="line"/>
      <point x="2237.34" y="1023.0" type="line"/>
    </contour>
    <contour>
      <point x="400.019" y="599.0" type="line"/>
      <point x="327.588" y="400.0" type="line"/>
      <point x="1951.59" y="400.0" type="line"/>
      <point x="2024.02" y="599.0" type="line"/>
    </contour>
    <contour>
      <point x="391.283" y="575.0" type="line"/>
      <point x="182.0" y="0.0" type="line"/>
      <point x="383.0" y="0.0" type="line"/>
      <point x="592.283" y="575.0" type="line"/>
    </contour>
    <contour>
      <point x="253.158" y="201.0" type="line"/>
      <point x="180.0" y="0.0" type="line"/>
      <point x="1870.0" y="0.0" type="line"/>
      <point x="1943.16" y="201.0" type="line"/>
    </contour>
  </outline>
</glyph>
<glyph name="b" format="2">
  <advance width="2048"/>
  <unicode hex="0062"/>
  <anchor x="1108" y="-57" name="base"/>
  <anchor x="830" y="1625" name="top"/>
  <outline>
    <contour>
      <point x="702" y="1537" type="line"/>
      <point x="143" y="0" type="line"/>
      <point x="342" y="0" type="line"/>
      <point x="901" y="1537" type="line"/>
    </contour>
    <contour>
      <point x="616" y="1033" type="line"/>
      <point x="544" y="834" type="line"/>
      <point x="2070" y="834" type="line"/>
      <point x="2142" y="1033" type="line"/>
    </contour>
    <contour>
      <point x="2082" y="1033" type="line"/>
      <point x="1706" y="0" type="line"/>
      <point x="1905" y="0" type="line"/>
      <point x="2281" y="1033" type="line"/>
    </contour>
    <contour>
      <point x="343" y="207" type="line"/>
      <point x="268" y="0" type="line"/>
      <point x="1826" y="0" type="line"/>
      <point x="1901" y="207" type="line"/>
    </contour>
  </outline>
</glyph>
<glyph name="c" format="2">
  <advance width="2048"/>
  <unicode hex="0063"/>
  <outline>
    <contour>
      <point x="543.341796875" y="1023.0" type="line"/>
      <point x="471.639648438" y="826.0" type="line"/>
      <point x="2177.63964844" y="826.0" type="line"/>
      <point x="2249.34179688" y="1023.0" type="line"/>
    </contour>
    <contour>
      <point x="531.146484375" y="984.0" type="line"/>
      <point x="173.0" y="0.0" type="line"/>
      <point x="375.0" y="0.0" type="line"/>
      <point x="733.146484375" y="984.0" type="line"/>
    </contour>
    <contour>
      <point x="352.158203125" y="201.0" type="line"/>
      <point x="279.0" y="0.0" type="line"/>
      <point x="1871.0" y="0.0" type="line"/>
      <point x="1944.15820312" y="201.0" type="line"/>
    </contour>
  </outline>
</glyph>
<glyph name="d" format="2">
  <advance width="2048"/>
  <unicode hex="0064"/>
  <anchor x="1015" y="-59" name="base"/>
  <anchor x="2372" y="1632" name="top"/>
  <outline>
    <contour>
      <point x="2259.78" y="1527" type="line"/>
      <point x="1704" y="0" type="line"/>
      <point x="1904" y="0" type="line"/>
      <point x="2459.78" y="1527" type="line"/>
    </contour>
    <contour>
      <point x="612.342" y="1023" type="line"/>
      <point x="539.184" y="822" type="line"/>
      <point x="2091.18" y="822" type="line"/>
      <point x="2164.34" y="1023" type="line"/>
    </contour>
    <contour>
      <point x="516.342" y="1023" type="line"/>
      <point x="144" y="0" type="line"/>
      <point x="344" y="0" type="line"/>
      <point x="716.342" y="1023" type="line"/>
    </contour>
    <contour>
      <point x="310.975" y="195" type="line"/>
      <point x="240" y="0" type="line"/>
      <point x="1856" y="0" type="line"/>
      <point x="1926.97" y="195" type="line"/>
    </contour>
  </outline>
</glyph>
<glyph name="e" format="2">
  <advance width="2048"/>
  <unicode hex="0065"/>
  <outline>
    <contour>
      <point x="602.341796875" y="1023.0" type="line"/>
      <point x="525.543945312" y="812.0" type="line"/>
      <point x="2159.54394531" y="812.0" type="line"/>
      <point x="2236.34179688" y="1023.0" type="line"/>
    </contour>
    <contour>
      <point x="552.341796875" y="1023.0" type="line"/>
      <point x="180.0" y="0.0" type="line"/>
      <point x="382.0" y="0.0" type="line"/>
      <point x="754.341796875" y="1023.0" type="line"/>
    </contour>
    <contour>
      <point x="355.158203125" y="201.0" type="line"/>
      <point x="282.0" y="0.0" type="line"/>
      <point x="1864.0" y="0.0" type="line"/>
      <point x="1937.15820312" y="201.0" type="line"/>
    </contour>
    <contour>
      <point x="477.481445312" y="625.0" type="line"/>
      <point x="412.331054688" y="446.0" type="line"/>
      <point x="2002.33105469" y="446.0" type="line"/>
      <point x="2067.48144531" y="625.0" type="line"/>
    </contour>
    <contour>
      <point x="2029.42285156" y="993.0" type="line"/>
      <point x="1829.96679688" y="445.0" type="line"/>
      <point x="2023.96679688" y="445.0" type="line"/>
      <point x="2223.42285156" y="993.0" type="line"/>
    </contour>
  </outline>
</glyph>
<glyph name="f" format="2">
  <advance width="2048"/>
  <unicode hex="0066"/>
  <outline>
    <contour>
      <point x="1212.34" y="1023.0" type="line"/>
      <point x="692.229" y="-406.0" type="line"/>
      <point x="874.229" y="-406.0" type="line"/>
      <point x="1394.34" y="1023.0" type="line"/>
    </contour>
    <contour>
      <point x="1270.34" y="1023.0" type="line"/>
      <point x="1200.46" y="831.0" type="line"/>
      <point x="2278.46" y="831.0" type="line"/>
      <point x="2348.34" y="1023.0" type="line"/>
    </contour>
    <contour>
      <point x="275.459" y="559.0" type="line"/>
      <point x="201.573" y="356.0" type="line"/>
      <point x="2009.57" y="356.0" type="line"/>
      <point x="2083.46" y="559.0" type="line"/>
    </contour>
  </outline>
</glyph>
<glyph name="g" format="2">
  <advance width="2048"/>
  <unicode hex="0067"/>
  <outline>
    <contour>
      <point x="610.342" y="1023.0" type="line"/>
      <point x="238.0" y="0.0" type="line"/>
      <point x="430.0" y="0.0" type="line"/>
      <point x="802.342" y="1023.0" type="line"/>
    </contour>
    <contour>
      <point x="650.342" y="1023.0" type="line"/>
      <point x="577.548" y="823.0" type="line"/>
      <point x="2093.55" y="823.0" type="line"/>
      <point x="2166.34" y="1023.0" type="line"/>
    </contour>
    <contour>
      <point x="1994.34" y="1023.0" type="line"/>
      <point x="1472.41" y="-411.0" type="line"/>
      <point x="1666.41" y="-411.0" type="line"/>
      <point x="2188.34" y="1023.0" type="line"/>
    </contour>
    <contour>
      <point x="373.066" y="198.0" type="line"/>
      <point x="301.0" y="0.0" type="line"/>
      <point x="1758.0" y="0.0" type="line"/>
      <point x="1830.07" y="198.0" type="line"/>
    </contour>
    <contour>
      <point x="154.11" y="-214.0" type="line"/>
      <point x="81.6807" y="-413.0" type="line"/>
      <point x="1616.68" y="-413.0" type="line"/>
      <point x="1689.11" y="-214.0" type="line"/>
    </contour>
  </outline>
</glyph>
<glyph name="h" format="2">
  <advance width="2048"/>
  <unicode hex="0068"/>
  <anchor x="876" y="1633" name="top"/>
  <anchor x="1025" y="-63" name="base"/>
  <outline>
    <contour>
      <point x="745.422" y="1537" type="line"/>
      <point x="188.184" y="6" type="line"/>
      <point x="388.184" y="6" type="line"/>
      <point x="945.422" y="1537" type="line"/>
    </contour>
    <contour>
      <point x="695.342" y="1023" type="line"/>
      <point x="623.64" y="826" type="line"/>
      <point x="2154.64" y="826" type="line"/>
      <point x="2226.34" y="1023" type="line"/>
    </contour>
    <contour>
      <point x="2035.34" y="1023" type="line"/>
      <point x="1663" y="0" type="line"/>
      <point x="1862" y="0" type="line"/>
      <point x="2234.34" y="1023" type="line"/>
    </contour>
  </outline>
</glyph>
<glyph name="i" format="2">
  <advance width="2048"/>
  <unicode hex="0069"/>
  <outline>
    <contour>
      <point x="1293.52" y="1018.0" type="line"/>
      <point x="973.592" y="139.0" type="line"/>
      <point x="1175.59" y="139.0" type="line"/>
      <point x="1495.52" y="1018.0" type="line"/>
    </contour>
    <contour>
      <point x="227.25" y="204.0" type="line"/>
      <point x="155.184" y="6.0" type="line"/>
      <point x="1897.18" y="6.0" type="line"/>
      <point x="1969.25" y="204.0" type="line"/>
    </contour>
    <contour>
      <point x="1144.17" y="1333.0" type="line"/>
      <point x="1071.38" y="1133.0" type="line"/>
      <point x="1278.38" y="1133.0" type="line"/>
      <point x="1351.17" y="1333.0" type="line"/>
    </contour>
    <contour>
      <point x="867.521" y="1018.0" type="line"/>
      <point x="794.0" y="816.0" type="line"/>
      <point x="1414.0" y="816.0" type="line"/>
      <point x="1487.52" y="1018.0" type="line"/>
    </contour>
  </outline>
</glyph>
<glyph name="j" format="2">
  <advance width="2048"/>
  <unicode hex="006A"/>
  <anchor x="2220" y="1424" name="top"/>
  <anchor x="1025" y="-476" name="base"/>
  <outline>
    <contour>
      <point x="2012.34" y="1023" type="line"/>
      <point x="1490.41" y="-411" type="line"/>
      <point x="1688.41" y="-411" type="line"/>
      <point x="2210.34" y="1023" type="line"/>
    </contour>
    <contour>
      <point x="133.931" y="-209" type="line"/>
      <point x="62.2285" y="-406" type="line"/>
      <point x="1592.23" y="-406" type="line"/>
      <point x="1663.93" y="-209" type="line"/>
    </contour>
    <contour>
      <point x="207.816" y="-6" type="line"/>
      <point x="82.2461" y="-351" type="line"/>
      <point x="282.246" y="-351" type="line"/>
      <point x="407.816" y="-6" type="line"/>
    </contour>
    <contour>
      <point x="2102.71" y="1307" type="line"/>
      <point x="2031.74" y="1112" type="line"/>
      <point x="2257.74" y="1112" type="line"/>
      <point x="2328.71" y="1307" type="line"/>
    </contour>
  </outline>
</glyph>
<glyph name="k" format="2">
  <advance width="2048"/>
  <unicode hex="006B"/>
  <outline>
    <contour>
      <point x="662.422" y="1537.0" type="line"/>
      <point x="104.82" y="5.0" type="line"/>
      <point x="304.82" y="5.0" type="line"/>
      <point x="862.422" y="1537.0" type="line"/>
    </contour>
    <contour>
      <point x="339.809" y="516.0" type="line"/>
      <point x="309.463" y="298.0" type="line"/>
      <point x="2260.34" y="1023.0" type="line"/>
      <point x="2043.34" y="1023.0" type="line"/>
    </contour>
    <contour>
      <point x="683.926" y="596.0" type="line"/>
      <point x="432.798" y="483.0" type="line"/>
      <point x="1707.0" y="0.0" type="line"/>
      <point x="1945.0" y="0.0" type="line"/>
    </contour>
  </outline>
</glyph>
<glyph name="l" format="2">
  <advance width="2048"/>
  <unicode hex="006C"/>
  <outline>
    <contour>
      <point x="283.069" y="209.0" type="line"/>
      <point x="210.275" y="9.0" type="line"/>
      <point x="1844.28" y="9.0" type="line"/>
      <point x="1917.07" y="209.0" type="line"/>
    </contour>
    <contour>
      <point x="1487.43" y="1548.0" type="line"/>
      <point x="955.302" y="86.0" type="line"/>
      <point x="1155.3" y="86.0" type="line"/>
      <point x="1687.43" y="1548.0" type="line"/>
    </contour>
    <contour>
      <point x="831.426" y="1548.0" type="line"/>
      <point x="758.996" y="1349.0" type="line"/>
      <point x="1494.0" y="1349.0" type="line"/>
      <point x="1566.43" y="1548.0" type="line"/>
    </contour>
  </outline>
</glyph>
<glyph name="m" format="2">
  <advance width="2048"/>
  <unicode hex="006D"/>
  <anchor x="1025" y="-105" name="base"/>
  <anchor x="1447" y="1103" name="top"/>
  <outline>
    <contour>
      <point x="509.423" y="993" type="line"/>
      <point x="148" y="0" type="line"/>
      <point x="348" y="0" type="line"/>
      <point x="709.423" y="993" type="line"/>
    </contour>
    <contour>
      <point x="1315.78" y="972" type="line"/>
      <point x="962" y="0" type="line"/>
      <point x="1162" y="0" type="line"/>
      <point x="1515.78" y="972" type="line"/>
    </contour>
    <contour>
      <point x="2133.24" y="976" type="line"/>
      <point x="1778" y="0" type="line"/>
      <point x="1978" y="0" type="line"/>
      <point x="2333.24" y="976" type="line"/>
    </contour>
    <contour>
      <point x="442.342" y="1023" type="line"/>
      <point x="370.64" y="826" type="line"/>
      <point x="2276.64" y="826" type="line"/>
      <point x="2348.34" y="1023" type="line"/>
    </contour>
  </outline>
</glyph>
<glyph name="n" format="2">
  <advance width="2048"/>
  <unicode hex="006E"/>
  <outline>
    <contour>
      <point x="674.33" y="990.0" type="line"/>
      <point x="314.0" y="0.0" type="line"/>
      <point x="514.0" y="0.0" type="line"/>
      <point x="874.33" y="990.0" type="line"/>
    </contour>
    <contour>
      <point x="2067.24" y="976.0" type="line"/>
      <point x="1712.0" y="0.0" type="line"/>
      <point x="1914.0" y="0.0" type="line"/>
      <point x="2269.24" y="976.0" type="line"/>
    </contour>
    <contour>
      <point x="506.342" y="1023.0" type="line"/>
      <point x="434.64" y="826.0" type="line"/>
      <point x="2212.64" y="826.0" type="line"/>
      <point x="2284.34" y="1023.0" type="line"/>
    </contour>
  </outline>
</glyph>
<glyph name="o" format="2">
  <advance width="2048"/>
  <unicode hex="006F"/>
  <anchor x="1416" y="1124" name="top"/>
  <anchor x="1025" y="-72" name="base"/>
  <outline>
    <contour>
      <point x="488.342" y="1023" type="line"/>
      <point x="116" y="0" type="line"/>
      <point x="316" y="0" type="line"/>
      <point x="688.342" y="1023" type="line"/>
    </contour>
    <contour>
      <point x="2104.34" y="1023" type="line"/>
      <point x="1732" y="0" type="line"/>
      <point x="1934" y="0" type="line"/>
      <point x="2306.34" y="1023" type="line"/>
    </contour>
    <contour>
      <point x="612.342" y="1023" type="line"/>
      <point x="539.184" y="822" type="line"/>
      <point x="2125.18" y="822" type="line"/>
      <point x="2198.34" y="1023" type="line"/>
    </contour>
    <contour>
      <point x="316.794" y="200" type="line"/>
      <point x="244" y="0" type="line"/>
      <point x="1816" y="0" type="line"/>
      <point x="1888.79" y="200" type="line"/>
    </contour>
  </outline>
</glyph>
<glyph name="p" format="2">
  <advance width="2048"/>
  <unicode hex="0070"/>
  <anchor x="128" y="-496" name="base"/>
  <anchor x="753" y="1339" name="top"/>
  <outline>
    <contour>
      <point x="639.856" y="1203" type="line"/>
      <point x="54.2285" y="-406" type="line"/>
      <point x="254.229" y="-406" type="line"/>
      <point x="839.856" y="1203" type="line"/>
    </contour>
    <contour>
      <point x="672.342" y="1023" type="line"/>
      <point x="598.819" y="821" type="line"/>
      <point x="2136.82" y="821" type="line"/>
      <point x="2210.34" y="1023" type="line"/>
    </contour>
    <contour>
      <point x="377.522" y="202" type="line"/>
      <point x="304" y="0" type="line"/>
      <point x="1844" y="0" type="line"/>
      <point x="1917.52" y="202" type="line"/>
    </contour>
    <contour>
      <point x="1960.84" y="876" type="line"/>
      <point x="1705.69" y="175" type="line"/>
      <point x="1903.69" y="175" type="line"/>
      <point x="2158.84" y="876" type="line"/>
    </contour>
  </outline>
</glyph>
<glyph name="q" format="2">
  <advance width="2048"/>
  <unicode hex="0071"/>
  <anchor x="1968" y="1279" name="top"/>
  <anchor x="1385" y="-489" name="base"/>
  <outline>
    <contour>
      <point x="1861.13" y="1201" type="line"/>
      <point x="1276.23" y="-406" type="line"/>
      <point x="1474.23" y="-406" type="line"/>
      <point x="2059.13" y="1201" type="line"/>
    </contour>
    <contour>
      <point x="522.342" y="1023" type="line"/>
      <point x="449.548" y="823" type="line"/>
      <point x="1899.55" y="823" type="line"/>
      <point x="1972.34" y="1023" type="line"/>
    </contour>
    <contour>
      <point x="225.886" y="203" type="line"/>
      <point x="152" y="0" type="line"/>
      <point x="1568" y="0" type="line"/>
      <point x="1641.89" y="203" type="line"/>
    </contour>
    <contour>
      <point x="461.194" y="855" type="line"/>
      <point x="188.944" y="107" type="line"/>
      <point x="388.944" y="107" type="line"/>
      <point x="661.194" y="855" type="line"/>
    </contour>
    <contour>
      <point x="1364.46" y="-268" type="line"/>
      <point x="1314.23" y="-406" type="line"/>
      <point x="1750.23" y="-406" type="line"/>
      <point x="1800.46" y="-268" type="line"/>
    </contour>
  </outline>
</glyph>
<glyph name="r" format="2">
  <advance width="2048"/>
  <unicode hex="0072"/>
  <anchor x="1391" y="1122" name="top"/>
  <anchor x="989" y="-94" name="base"/>
  <outline>
    <contour>
      <point x="530.342" y="1023" type="line"/>
      <point x="456.819" y="821" type="line"/>
      <point x="2188.82" y="821" type="line"/>
      <point x="2262.34" y="1023" type="line"/>
    </contour>
    <contour>
      <point x="1219.23" y="954" type="line"/>
      <point x="872" y="0" type="line"/>
      <point x="1072" y="0" type="line"/>
      <point x="1419.23" y="954" type="line"/>
    </contour>
    <contour>
      <point x="2045.24" y="976" type="line"/>
      <point x="1926.58" y="650" type="line"/>
      <point x="2126.58" y="650" type="line"/>
      <point x="2245.24" y="976" type="line"/>
    </contour>
  </outline>
</glyph>
<glyph name="s" format="2">
  <advance width="2048"/>
  <unicode hex="0073"/>
  <outline>
    <contour>
      <point x="591.342" y="1023.0" type="line"/>
      <point x="519.64" y="826.0" type="line"/>
      <point x="2128.64" y="826.0" type="line"/>
      <point x="2200.34" y="1023.0" type="line"/>
    </contour>
    <contour>
      <point x="591.342" y="1023.0" type="line"/>
      <point x="486.882" y="736.0" type="line"/>
      <point x="686.882" y="736.0" type="line"/>
      <point x="791.342" y="1023.0" type="line"/>
    </contour>
    <contour>
      <point x="293.158" y="201.0" type="line"/>
      <point x="220.0" y="0.0" type="line"/>
      <point x="1825.0" y="0.0" type="line"/>
      <point x="1898.16" y="201.0" type="line"/>
    </contour>
    <contour>
      <point x="1730.64" y="293.0" type="line"/>
      <point x="1628.37" y="12.0" type="line"/>
      <point x="1828.37" y="12.0" type="line"/>
      <point x="1930.64" y="293.0" type="line"/>
    </contour>
    <contour>
      <point x="487.882" y="736.0" type="line"/>
      <point x="1730.64" y="293.0" type="line"/>
      <point x="1930.64" y="293.0" type="line"/>
      <point x="687.882" y="736.0" type="line"/>
    </contour>
  </outline>
</glyph>
<glyph name="t" format="2">
  <advance width="2048"/>
  <unicode hex="0074"/>
  <outline>
    <contour>
      <point x="1485.43" y="1548.0" type="line"/>
      <point x="922.0" y="0.0" type="line"/>
      <point x="1122.0" y="0.0" type="line"/>
      <point x="1685.43" y="1548.0" type="line"/>
    </contour>
    <contour>
      <point x="1002.43" y="199.0" type="line"/>
      <point x="930.0" y="0.0" type="line"/>
      <point x="1822.0" y="0.0" type="line"/>
      <point x="1894.43" y="199.0" type="line"/>
    </contour>
    <contour>
      <point x="558.342" y="1023.0" type="line"/>
      <point x="485.911" y="824.0" type="line"/>
      <point x="2159.91" y="824.0" type="line"/>
      <point x="2232.34" y="1023.0" type="line"/>
    </contour>
  </outline>
</glyph>
<glyph name="u" format="2">
  <advance width="2048"/>
  <unicode hex="0075"/>
  <outline>
    <contour>
      <point x="522.341796875" y="1023.0" type="line"/>
      <point x="150.0" y="0.0" type="line"/>
      <point x="350.0" y="0.0" type="line"/>
      <point x="722.341796875" y="1023.0" type="line"/>
    </contour>
    <contour>
      <point x="1754.34179688" y="1023.0" type="line"/>
      <point x="1382.0" y="0.0" type="line"/>
      <point x="1582.0" y="0.0" type="line"/>
      <point x="1954.34179688" y="1023.0" type="line"/>
    </contour>
    <contour>
      <point x="268.793945312" y="200.0" type="line"/>
      <point x="196.0" y="0.0" type="line"/>
      <point x="1898.0" y="0.0" type="line"/>
      <point x="1970.79394531" y="200.0" type="line"/>
    </contour>
  </outline>
</glyph>
<glyph name="v" format="2">
  <advance width="2048"/>
  <unicode hex="0076"/>
  <outline>
    <contour>
      <point x="565.341796875" y="1023.0" type="line"/>
      <point x="922.0" y="0.0" type="line"/>
      <point x="1129.0" y="0.0" type="line"/>
      <point x="764.341796875" y="1023.0" type="line"/>
    </contour>
    <contour>
      <point x="2027.34179688" y="1023.0" type="line"/>
      <point x="920.0" y="0.0" type="line"/>
      <point x="1127.0" y="0.0" type="line"/>
      <point x="2227.34179688" y="1023.0" type="line"/>
    </contour>
  </outline>
</glyph>
<glyph name="w" format="2">
  <advance width="2048"/>
  <unicode hex="0077"/>
  <outline>
    <contour>
      <point x="488.342" y="1023.0" type="line"/>
      <point x="116.0" y="0.0" type="line"/>
      <point x="314.0" y="0.0" type="line"/>
      <point x="686.342" y="1023.0" type="line"/>
    </contour>
    <contour>
      <point x="2108.16" y="1028.0" type="line"/>
      <point x="1738.37" y="12.0" type="line"/>
      <point x="1938.37" y="12.0" type="line"/>
      <point x="2308.16" y="1028.0" type="line"/>
    </contour>
    <contour>
      <point x="1142.02" y="610.0" type="line"/>
      <point x="920.0" y="0.0" type="line"/>
      <point x="1122.0" y="0.0" type="line"/>
      <point x="1344.02" y="610.0" type="line"/>
    </contour>
    <contour>
      <point x="214.456" y="276.0" type="line"/>
      <point x="114.0" y="0.0" type="line"/>
      <point x="1934.0" y="0.0" type="line"/>
      <point x="2034.46" y="276.0" type="line"/>
    </contour>
  </outline>
</glyph>
<glyph name="x" format="2">
  <advance width="2048"/>
  <unicode hex="0078"/>
  <outline>
    <contour>
      <point x="102.0" y="0.0" type="line"/>
      <point x="440.0" y="0.0" type="line"/>
      <point x="2310.34179688" y="1023.0" type="line"/>
      <point x="2016.34179688" y="1023.0" type="line"/>
    </contour>
    <contour>
      <point x="476.341796875" y="1023.0" type="line"/>
      <point x="1650.0" y="0.0" type="line"/>
      <point x="1946.0" y="0.0" type="line"/>
      <point x="816.341796875" y="1023.0" type="line"/>
    </contour>
  </outline>
</glyph>
<glyph name="y" format="2">
  <advance width="2048"/>
  <unicode hex="0079"/>
  <outline>
    <contour>
      <point x="2062.34" y="1023.0" type="line"/>
      <point x="1542.23" y="-406.0" type="line"/>
      <point x="1742.23" y="-406.0" type="line"/>
      <point x="2262.34" y="1023.0" type="line"/>
    </contour>
    <contour>
      <point x="81.2021" y="-211.0" type="line"/>
      <point x="10.2285" y="-406.0" type="line"/>
      <point x="1726.23" y="-406.0" type="line"/>
      <point x="1797.2" y="-211.0" type="line"/>
    </contour>
    <contour>
      <point x="530.342" y="1023.0" type="line"/>
      <point x="254.088" y="264.0" type="line"/>
      <point x="454.088" y="264.0" type="line"/>
      <point x="730.342" y="1023.0" type="line"/>
    </contour>
    <contour>
      <point x="326.882" y="464.0" type="line"/>
      <point x="254.088" y="264.0" type="line"/>
      <point x="1872.09" y="264.0" type="line"/>
      <point x="1944.88" y="464.0" type="line"/>
    </contour>
  </outline>
</glyph>
<glyph name="z" format="2">
  <advance width="2048"/>
  <unicode hex="007A"/>
  <outline>
    <contour>
      <point x="482.342" y="1023.0" type="line"/>
      <point x="410.64" y="826.0" type="line"/>
      <point x="2238.64" y="826.0" type="line"/>
      <point x="2310.34" y="1023.0" type="line"/>
    </contour>
    <contour>
      <point x="183.158" y="201.0" type="line"/>
      <point x="110.0" y="0.0" type="line"/>
      <point x="1938.0" y="0.0" type="line"/>
      <point x="2011.16" y="201.0" type="line"/>
    </contour>
    <contour>
      <point x="1946.64" y="826.0" type="line"/>
      <point x="183.158" y="201.0" type="line"/>
      <point x="489.158" y="201.0" type="line"/>
      <point x="2238.64" y="826.0" type="line"/>
    </contour>
  </outline>
</glyph>
<glyph name="braceleft" format="2">
  <advance width="2048"/>
  <unicode hex="007B"/>
  <outline>
    <contour>
      <point x="1587" y="1548" type="line"/>
      <point x="1329" y="838" type="line"/>
      <point x="1475" y="838" type="line"/>
      <point x="1733" y="1548" type="line"/>
    </contour>
    <contour>
      <point x="1190" y="424" type="line"/>
      <point x="932" y="-286" type="line"/>
      <point x="1078" y="-286" type="line"/>
      <point x="1336" y="424" type="line"/>
    </contour>
    <contour>
      <point x="986" y="690" type="line"/>
      <point x="964" y="630" type="line"/>
      <point x="1475" y="838" type="line"/>
      <point x="1329" y="838" type="line"/>
    </contour>
    <contour>
      <point x="986" y="690" type="line"/>
      <point x="964" y="630" type="line"/>
      <point x="1189" y="425" type="line"/>
      <point x="1338" y="425" type="line"/>
    </contour>
    <contour>
      <point x="1608" y="1603" type="line"/>
      <point x="1553" y="1452" type="line"/>
      <point x="1866" y="1574" type="line"/>
      <point x="1880" y="1603" type="line"/>
    </contour>
    <contour>
      <point x="986" y="-140" type="line"/>
      <point x="933" y="-287" type="line"/>
      <point x="1209" y="-287" type="line"/>
      <point x="1213" y="-274" type="line"/>
    </contour>
  </outline>
</glyph>
<glyph name="bar" format="2">
  <advance width="2048"/>
  <unicode hex="007C"/>
  <outline>
    <contour>
      <point x="1444" y="1435" type="line"/>
      <point x="889" y="-90" type="line"/>
      <point x="1093" y="-90" type="line"/>
      <point x="1648" y="1435" type="line"/>
    </contour>
  </outline>
</glyph>
<glyph name="braceright" format="2">
  <advance width="2048"/>
  <unicode hex="007D"/>
  <outline>
    <contour>
      <point x="1603.42578125" y="1548.0" type="line"/>
      <point x="1441.42578125" y="1548.0" type="line"/>
      <point x="1183.00683594" y="838.0" type="line"/>
      <point x="1341.00683594" y="838.0" type="line"/>
    </contour>
    <contour>
      <point x="1180.32324219" y="424.0" type="line"/>
      <point x="1020.32324219" y="424.0" type="line"/>
      <point x="761.904296875" y="-286.0" type="line"/>
      <point x="921.904296875" y="-286.0" type="line"/>
    </contour>
    <contour>
      <point x="1564.13964844" y="690.0" type="line"/>
      <point x="1340.00683594" y="838.0" type="line"/>
      <point x="1179.00683594" y="838.0" type="line"/>
      <point x="1542.30078125" y="630.0" type="line"/>
    </contour>
    <contour>
      <point x="1564.13964844" y="690.0" type="line"/>
      <point x="1020.32324219" y="424.0" type="line"/>
      <point x="1180.32324219" y="424.0" type="line"/>
      <point x="1542.30078125" y="630.0" type="line"/>
    </contour>
    <contour>
      <point x="1624.44433594" y="1603.0" type="line"/>
      <point x="1349.44433594" y="1603.0" type="line"/>
      <point x="1342.88867188" y="1574.0" type="line"/>
      <point x="1566.484375" y="1452.0" type="line"/>
    </contour>
    <contour>
      <point x="960.043945312" y="-140.0" type="line"/>
      <point x="635.272460938" y="-274.0" type="line"/>
      <point x="631.6328125" y="-284.0" type="line"/>
      <point x="907.6328125" y="-284.0" type="line"/>
    </contour>
  </outline>
</glyph>
<glyph name="asciitilde" format="2">
  <advance width="2048"/>
  <unicode hex="007E"/>
  <outline>
    <contour>
      <point x="1174.64" y="815.0" type="line"/>
      <point x="1138.6" y="716.0" type="line"/>
      <point x="1466.4" y="655.0" type="line"/>
      <point x="1502.43" y="754.0" type="line"/>
    </contour>
    <contour>
      <point x="915.525" y="757.0" type="line"/>
      <point x="893.856" y="659.0" type="line"/>
      <point x="1138.6" y="716.0" type="line"/>
      <point x="1174.64" y="815.0" type="line"/>
    </contour>
    <contour>
      <point x="1502.43" y="754.0" type="line"/>
      <point x="1466.4" y="655.0" type="line"/>
      <point x="1697.72" y="796.0" type="line"/>
      <point x="1708.66" y="892.0" type="line"/>
    </contour>
  </outline>
</glyph>
<glyph name="exclamdown" format="2">
  <advance width="2048"/>
  <unicode hex="00A1"/>
  <outline>
    <contour>
      <point x="1649" y="1520" type="line"/>
      <point x="1505" y="1520" type="line"/>
      <point x="1415" y="1272" type="line"/>
      <point x="1559" y="1272" type="line"/>
    </contour>
    <contour>
      <point x="1463" y="1035" type="line"/>
      <point x="1335" y="1035" type="line"/>
      <point x="964" y="17" type="line"/>
      <point x="1092" y="17" type="line"/>
    </contour>
  </outline>
</glyph>
<glyph name="cent" format="2">
  <advance width="2048"/>
  <unicode hex="00A2"/>
  <outline>
    <contour>
      <point x="1633.58" y="1183.0" type="line"/>
      <point x="1486.58" y="1183.0" type="line"/>
      <point x="1024.7" y="-86.0" type="line"/>
      <point x="1171.7" y="-86.0" type="line"/>
    </contour>
    <contour>
      <point x="1048.34" y="1023.0" type="line"/>
      <point x="976.64" y="826.0" type="line"/>
      <point x="1672.64" y="826.0" type="line"/>
      <point x="1744.34" y="1023.0" type="line"/>
    </contour>
    <contour>
      <point x="1036.15" y="984.0" type="line"/>
      <point x="678.0" y="0.0" type="line"/>
      <point x="880.0" y="0.0" type="line"/>
      <point x="1238.15" y="984.0" type="line"/>
    </contour>
    <contour>
      <point x="857.158" y="201.0" type="line"/>
      <point x="784.0" y="0.0" type="line"/>
      <point x="1366.0" y="0.0" type="line"/>
      <point x="1439.16" y="201.0" type="line"/>
    </contour>
  </outline>
</glyph>
<glyph name="sterling" format="2">
  <advance width="2048"/>
  <unicode hex="00A3"/>
  <outline>
    <contour>
      <point x="1495.60644531" y="1543.0" type="line"/>
      <point x="1423.17578125" y="1344.0" type="line"/>
      <point x="1714.17578125" y="1344.0" type="line"/>
      <point x="1786.60644531" y="1543.0" type="line"/>
    </contour>
    <contour>
      <point x="887.256835938" y="770.0" type="line"/>
      <point x="814.827148438" y="571.0" type="line"/>
      <point x="1540.82714844" y="571.0" type="line"/>
      <point x="1613.25683594" y="770.0" type="line"/>
    </contour>
    <contour>
      <point x="1451.2421875" y="1542.0" type="line"/>
      <point x="890.0" y="0.0" type="line"/>
      <point x="1088.0" y="0.0" type="line"/>
      <point x="1649.2421875" y="1542.0" type="line"/>
    </contour>
    <contour>
      <point x="788.522460938" y="202.0" type="line"/>
      <point x="715.0" y="0.0" type="line"/>
      <point x="1441.0" y="0.0" type="line"/>
      <point x="1514.52246094" y="202.0" type="line"/>
    </contour>
  </outline>
</glyph>
<glyph name="currency" format="2">
  <advance width="2048"/>
  <unicode hex="00A4"/>
  <outline>
    <contour>
      <point x="553.4921875" y="1202.0" type="line"/>
      <point x="181.514648438" y="180.0" type="line"/>
      <point x="381.514648438" y="180.0" type="line"/>
      <point x="753.4921875" y="1202.0" type="line"/>
    </contour>
    <contour>
      <point x="2169.21972656" y="1204.0" type="line"/>
      <point x="1796.51464844" y="180.0" type="line"/>
      <point x="1998.51464844" y="180.0" type="line"/>
      <point x="2371.21972656" y="1204.0" type="line"/>
    </contour>
    <contour>
      <point x="677.219726562" y="1204.0" type="line"/>
      <point x="603.698242188" y="1002.0" type="line"/>
      <point x="2189.69824219" y="1002.0" type="line"/>
      <point x="2263.21972656" y="1204.0" type="line"/>
    </contour>
    <contour>
      <point x="381.30859375" y="380.0" type="line"/>
      <point x="308.87890625" y="181.0" type="line"/>
      <point x="1880.87890625" y="181.0" type="line"/>
      <point x="1953.30859375" y="380.0" type="line"/>
    </contour>
    <contour>
      <point x="551.3671875" y="1372.0" type="line"/>
      <point x="461.466796875" y="1125.0" type="line"/>
      <point x="727.466796875" y="1125.0" type="line"/>
      <point x="817.3671875" y="1372.0" type="line"/>
    </contour>
    <contour>
      <point x="2229.00292969" y="1371.0" type="line"/>
      <point x="2139.10253906" y="1124.0" type="line"/>
      <point x="2405.10253906" y="1124.0" type="line"/>
      <point x="2495.00292969" y="1371.0" type="line"/>
    </contour>
    <contour>
      <point x="148.271484375" y="270.0" type="line"/>
      <point x="58.37109375" y="23.0" type="line"/>
      <point x="324.37109375" y="23.0" type="line"/>
      <point x="414.271484375" y="270.0" type="line"/>
    </contour>
    <contour>
      <point x="1833.54785156" y="279.0" type="line"/>
      <point x="1743.64746094" y="32.0" type="line"/>
      <point x="2009.64746094" y="32.0" type="line"/>
      <point x="2099.54785156" y="279.0" type="line"/>
    </contour>
  </outline>
</glyph>
<glyph name="yen" format="2">
  <advance width="2048"/>
  <unicode hex="00A5"/>
  <outline>
    <contour>
      <point x="422.077" y="775.0" type="line"/>
      <point x="363.842" y="615.0" type="line"/>
      <point x="2109.84" y="615.0" type="line"/>
      <point x="2168.08" y="775.0" type="line"/>
    </contour>
    <contour>
      <point x="336.544" y="540.0" type="line"/>
      <point x="278.309" y="380.0" type="line"/>
      <point x="2024.31" y="380.0" type="line"/>
      <point x="2082.54" y="540.0" type="line"/>
    </contour>
    <contour>
      <point x="1249.48" y="897.0" type="line"/>
      <point x="923.0" y="0.0" type="line"/>
      <point x="1125.0" y="0.0" type="line"/>
      <point x="1451.48" y="897.0" type="line"/>
    </contour>
    <contour>
      <point x="635.426" y="1548.0" type="line"/>
      <point x="384.65" y="859.0" type="line"/>
      <point x="584.65" y="859.0" type="line"/>
      <point x="835.426" y="1548.0" type="line"/>
    </contour>
    <contour>
      <point x="2340.43" y="1548.0" type="line"/>
      <point x="2089.65" y="859.0" type="line"/>
      <point x="2288.65" y="859.0" type="line"/>
      <point x="2539.43" y="1548.0" type="line"/>
    </contour>
    <contour>
      <point x="512.342" y="1023.0" type="line"/>
      <point x="452.65" y="859.0" type="line"/>
      <point x="2198.65" y="859.0" type="line"/>
      <point x="2258.34" y="1023.0" type="line"/>
    </contour>
  </outline>
</glyph>
<glyph name="brokenbar" format="2">
  <advance width="2048"/>
  <unicode hex="00A6"/>
  <outline>
    <contour>
      <point x="846.162" y="-332.0" type="line"/>
      <point x="956.162" y="-332.0" type="line"/>
      <point x="1325.23" y="682.0" type="line"/>
      <point x="1215.23" y="682.0" type="line"/>
    </contour>
    <contour>
      <point x="1257.54" y="790.0" type="line"/>
      <point x="1368.54" y="790.0" type="line"/>
      <point x="1676.46" y="1636.0" type="line"/>
      <point x="1565.46" y="1636.0" type="line"/>
    </contour>
  </outline>
</glyph>
<glyph name="section" format="2">
  <advance width="2048"/>
  <unicode hex="00A7"/>
  <outline>
    <contour>
      <point x="1084.59" y="1238.0" type="line"/>
      <point x="1010.71" y="1035.0" type="line"/>
      <point x="1608.71" y="1035.0" type="line"/>
      <point x="1682.59" y="1238.0" type="line"/>
    </contour>
    <contour>
      <point x="1085.69" y="1241.0" type="line"/>
      <point x="854.202" y="605.0" type="line"/>
      <point x="1056.2" y="605.0" type="line"/>
      <point x="1287.69" y="1241.0" type="line"/>
    </contour>
    <contour>
      <point x="647.798" y="-61.0" type="line"/>
      <point x="575.368" y="-260.0" type="line"/>
      <point x="1283.37" y="-260.0" type="line"/>
      <point x="1355.8" y="-61.0" type="line"/>
    </contour>
    <contour>
      <point x="1119.73" y="-259.0" type="line"/>
      <point x="1319.73" y="-259.0" type="line"/>
      <point x="1448.58" y="95.0" type="line"/>
      <point x="1248.58" y="95.0" type="line"/>
    </contour>
    <contour>
      <point x="854.202" y="605.0" type="line"/>
      <point x="1248.58" y="95.0" type="line"/>
      <point x="1448.58" y="95.0" type="line"/>
      <point x="1056.2" y="605.0" type="line"/>
    </contour>
    <contour>
      <point x="1225.82" y="1626.0" type="line"/>
      <point x="1151.93" y="1423.0" type="line"/>
      <point x="1749.93" y="1423.0" type="line"/>
      <point x="1823.82" y="1626.0" type="line"/>
    </contour>
    <contour>
      <point x="1226.91" y="1629.0" type="line"/>
      <point x="1084.23" y="1237.0" type="line"/>
      <point x="1286.23" y="1237.0" type="line"/>
      <point x="1428.91" y="1629.0" type="line"/>
    </contour>
    <contour>
      <point x="766.096" y="286.0" type="line"/>
      <point x="693.665" y="87.0" type="line"/>
      <point x="1401.67" y="87.0" type="line"/>
      <point x="1474.1" y="286.0" type="line"/>
    </contour>
    <contour>
      <point x="1236.03" y="88.0" type="line"/>
      <point x="1438.03" y="88.0" type="line"/>
      <point x="1566.88" y="442.0" type="line"/>
      <point x="1364.88" y="442.0" type="line"/>
    </contour>
    <contour>
      <point x="1084.23" y="1237.0" type="line"/>
      <point x="1364.88" y="442.0" type="line"/>
      <point x="1566.88" y="442.0" type="line"/>
      <point x="1286.23" y="1237.0" type="line"/>
    </contour>
  </outline>
</glyph>
<glyph name="dieresis" format="2">
  <advance width="2048"/>
  <unicode hex="00A8"/>
  <outline>
    <contour>
      <point x="1093.79" y="1016.0" type="line"/>
      <point x="1038.83" y="865.0" type="line"/>
      <point x="1206.83" y="865.0" type="line"/>
      <point x="1261.79" y="1016.0" type="line"/>
    </contour>
    <contour>
      <point x="1457.79" y="1016.0" type="line"/>
      <point x="1402.83" y="865.0" type="line"/>
      <point x="1570.83" y="865.0" type="line"/>
      <point x="1625.79" y="1016.0" type="line"/>
    </contour>
  </outline>
</glyph>
<glyph name="copyright" format="2">
  <advance width="2048"/>
  <unicode hex="00A9"/>
  <outline>
    <contour>
      <point x="583.422" y="1537" type="line"/>
      <point x="24" y="0" type="line"/>
      <point x="224" y="0" type="line"/>
      <point x="783.422" y="1537" type="line"/>
    </contour>
    <contour>
      <point x="2381.42" y="1537" type="line"/>
      <point x="1822" y="0" type="line"/>
      <point x="2024" y="0" type="line"/>
      <point x="2583.42" y="1537" type="line"/>
    </contour>
    <contour>
      <point x="693.422" y="1537" type="line"/>
      <point x="620.628" y="1337" type="line"/>
      <point x="2310.63" y="1337" type="line"/>
      <point x="2383.42" y="1537" type="line"/>
    </contour>
    <contour>
      <point x="232.25" y="204" type="line"/>
      <point x="158" y="0" type="line"/>
      <point x="1830" y="0" type="line"/>
      <point x="1904.25" y="204" type="line"/>
    </contour>
    <contour>
      <point x="705.673" y="1197" type="line"/>
      <point x="632.515" y="996" type="line"/>
      <point x="2066.51" y="996" type="line"/>
      <point x="2139.67" y="1197" type="line"/>
    </contour>
    <contour>
      <point x="690.021" y="1154" type="line"/>
      <point x="393.75" y="340" type="line"/>
      <point x="563.75" y="340" type="line"/>
      <point x="860.021" y="1154" type="line"/>
    </contour>
    <contour>
      <point x="450.165" y="495" type="line"/>
      <point x="377.007" y="294" type="line"/>
      <point x="1817.01" y="294" type="line"/>
      <point x="1890.17" y="495" type="line"/>
    </contour>
  </outline>
</glyph>
<glyph name="ordfeminine" format="2">
  <advance width="2048"/>
  <unicode hex="00AA"/>
  <outline>
    <contour>
      <point x="697.077148438" y="1319.0" type="line"/>
      <point x="624.282226562" y="1119.0" type="line"/>
      <point x="2230.28222656" y="1119.0" type="line"/>
      <point x="2303.07714844" y="1319.0" type="line"/>
    </contour>
    <contour>
      <point x="2190.44042969" y="1320.0" type="line"/>
      <point x="1817.73535156" y="296.0" type="line"/>
      <point x="2011.73535156" y="296.0" type="line"/>
      <point x="2384.44042969" y="1320.0" type="line"/>
    </contour>
    <contour>
      <point x="546.389648438" y="894.0" type="line"/>
      <point x="473.958984375" y="695.0" type="line"/>
      <point x="2097.95898438" y="695.0" type="line"/>
      <point x="2170.38964844" y="894.0" type="line"/>
    </contour>
    <contour>
      <point x="537.654296875" y="870.0" type="line"/>
      <point x="327.643554688" y="293.0" type="line"/>
      <point x="528.643554688" y="293.0" type="line"/>
      <point x="738.654296875" y="870.0" type="line"/>
    </contour>
    <contour>
      <point x="399.529296875" y="496.0" type="line"/>
      <point x="326.735351562" y="296.0" type="line"/>
      <point x="2016.73535156" y="296.0" type="line"/>
      <point x="2089.52929688" y="496.0" type="line"/>
    </contour>
    <contour>
      <point x="184.962890625" y="162.0" type="line"/>
      <point x="126.0" y="0.0" type="line"/>
      <point x="1922.0" y="0.0" type="line"/>
      <point x="1980.96289062" y="162.0" type="line"/>
    </contour>
  </outline>
</glyph>
<glyph name="guillemotleft" format="2">
  <advance width="2048"/>
  <unicode hex="00AB"/>
  <outline>
    <contour>
      <point x="853.658" y="609.0" type="line"/>
      <point x="797.242" y="454.0" type="line"/>
      <point x="1230.67" y="631.0" type="line"/>
      <point x="1286.35" y="784.0" type="line"/>
    </contour>
    <contour>
      <point x="853.658" y="609.0" type="line"/>
      <point x="797.242" y="454.0" type="line"/>
      <point x="1044.4" y="122.0" type="line"/>
      <point x="1097.54" y="268.0" type="line"/>
    </contour>
    <contour>
      <point x="1268.66" y="609.0" type="line"/>
      <point x="1212.24" y="454.0" type="line"/>
      <point x="1645.67" y="631.0" type="line"/>
      <point x="1701.35" y="784.0" type="line"/>
    </contour>
    <contour>
      <point x="1268.66" y="609.0" type="line"/>
      <point x="1212.24" y="454.0" type="line"/>
      <point x="1459.4" y="122.0" type="line"/>
      <point x="1512.54" y="268.0" type="line"/>
    </contour>
  </outline>
</glyph>
<glyph name="logicalnot" format="2">
  <advance width="2048"/>
  <unicode hex="00AC"/>
  <outline>
    <contour>
      <point x="1519" y="935" type="line"/>
      <point x="1412" y="640" type="line"/>
      <point x="1522" y="640" type="line"/>
      <point x="1629" y="935" type="line"/>
    </contour>
    <contour>
      <point x="1089" y="935" type="line"/>
      <point x="1053" y="835" type="line"/>
      <point x="1603" y="835" type="line"/>
      <point x="1639" y="935" type="line"/>
    </contour>
  </outline>
</glyph>
<glyph name="registered" format="2">
  <advance width="2048"/>
  <unicode hex="00AE"/>
  <outline>
    <contour>
      <point x="985" y="1032" type="line"/>
      <point x="791" y="501" type="line"/>
      <point x="859" y="501" type="line"/>
      <point x="1053" y="1032" type="line"/>
    </contour>
    <contour>
      <point x="1010" y="1032" type="line"/>
      <point x="985" y="963" type="line"/>
      <point x="1814" y="963" type="line"/>
      <point x="1839" y="1032" type="line"/>
    </contour>
    <contour>
      <point x="1779" y="1032" type="line"/>
      <point x="1695" y="802" type="line"/>
      <point x="1764" y="802" type="line"/>
      <point x="1848" y="1032" type="line"/>
    </contour>
    <contour>
      <point x="948" y="875" type="line"/>
      <point x="922" y="801" type="line"/>
      <point x="1760" y="801" type="line"/>
      <point x="1786" y="875" type="line"/>
    </contour>
    <contour>
      <point x="971" y="809" type="line"/>
      <point x="1593" y="485" type="line"/>
      <point x="1728" y="485" type="line"/>
      <point x="1093" y="809" type="line"/>
    </contour>
    <contour>
      <point x="712" y="1537" type="line"/>
      <point x="153" y="0" type="line"/>
      <point x="354" y="0" type="line"/>
      <point x="913" y="1537" type="line"/>
    </contour>
    <contour>
      <point x="2251" y="1537" type="line"/>
      <point x="1692" y="0" type="line"/>
      <point x="1895" y="0" type="line"/>
      <point x="2454" y="1537" type="line"/>
    </contour>
    <contour>
      <point x="853" y="1537" type="line"/>
      <point x="781" y="1337" type="line"/>
      <point x="2224" y="1337" type="line"/>
      <point x="2296" y="1537" type="line"/>
    </contour>
    <contour>
      <point x="344" y="204" type="line"/>
      <point x="270" y="0" type="line"/>
      <point x="1743" y="0" type="line"/>
      <point x="1817" y="204" type="line"/>
    </contour>
  </outline>
</glyph>
<glyph name="macron" format="2">
  <advance width="2048"/>
  <unicode hex="00AF"/>
  <outline>
    <contour>
      <point x="1130.34179688" y="1023.0" type="line"/>
      <point x="1100.49609375" y="941.0" type="line"/>
      <point x="1660.49609375" y="941.0" type="line"/>
      <point x="1690.34179688" y="1023.0" type="line"/>
    </contour>
  </outline>
</glyph>
<glyph name="degree" format="2">
  <advance width="2048"/>
  <unicode hex="00B0"/>
  <outline>
    <contour>
      <point x="1478.94042969" y="1456.0" type="line"/>
      <point x="1626.94042969" y="1456.0" type="line"/>
      <point x="1579.625" y="1326.0" type="line"/>
      <point x="1431.625" y="1326.0" type="line"/>
    </contour>
    <contour>
      <point x="1407.42578125" y="1548.0" type="line"/>
      <point x="1294.59472656" y="1238.0" type="line"/>
      <point x="1654.59472656" y="1238.0" type="line"/>
      <point x="1767.42578125" y="1548.0" type="line"/>
    </contour>
  </outline>
</glyph>
<glyph name="plusminus" format="2">
  <advance width="2048"/>
  <unicode hex="00B1"/>
  <outline>
    <contour>
      <point x="650.309" y="108.0" type="line"/>
      <point x="574.603" y="-100.0" type="line"/>
      <point x="1400.6" y="-100.0" type="line"/>
      <point x="1476.31" y="108.0" type="line"/>
    </contour>
    <contour>
      <point x="1340.41" y="1221.0" type="line"/>
      <point x="956.055" y="165.0" type="line"/>
      <point x="1181.05" y="165.0" type="line"/>
      <point x="1565.41" y="1221.0" type="line"/>
    </contour>
    <contour>
      <point x="871.819" y="821.0" type="line"/>
      <point x="796.113" y="613.0" type="line"/>
      <point x="1698.11" y="613.0" type="line"/>
      <point x="1773.82" y="821.0" type="line"/>
    </contour>
  </outline>
</glyph>
<glyph name="uni00B2" format="2">
  <advance width="2048"/>
  <unicode hex="00B2"/>
  <outline>
    <contour>
      <point x="915" y="1455" type="line"/>
      <point x="1805" y="1455" type="line"/>
      <point x="1733" y="1259" type="line"/>
      <point x="852" y="1259" type="line"/>
      <point x="704" y="851" type="line"/>
      <point x="1671" y="851" type="line"/>
      <point x="1703" y="940" type="line"/>
      <point x="856" y="940" type="line"/>
      <point x="939" y="1168" type="line"/>
      <point x="1806" y="1168" type="line"/>
      <point x="1944" y="1548" type="line"/>
      <point x="948" y="1548" type="line"/>
    </contour>
  </outline>
</glyph>
<glyph name="uni00B3" format="2">
  <advance width="2048"/>
  <unicode hex="00B3"/>
  <outline>
    <contour>
      <point x="887" y="1184" type="line"/>
      <point x="1839" y="1184" type="line"/>
      <point x="1749" y="938" type="line"/>
      <point x="773" y="938" type="line"/>
      <point x="741" y="849" type="line"/>
      <point x="1833" y="849" type="line"/>
      <point x="2089" y="1553" type="line"/>
      <point x="1014" y="1553" type="line"/>
      <point x="981" y="1463" type="line"/>
      <point x="1939" y="1463" type="line"/>
      <point x="1871" y="1275" type="line"/>
      <point x="920" y="1275" type="line"/>
    </contour>
  </outline>
</glyph>
<glyph name="acute" format="2">
  <advance width="2048"/>
  <unicode hex="00B4"/>
  <outline>
    <contour>
      <point x="1088.34" y="1556.0" type="line"/>
      <point x="865.89" y="1302.0" type="line"/>
      <point x="937.146" y="1256.0" type="line"/>
      <point x="1160.96" y="1511.0" type="line"/>
    </contour>
  </outline>
</glyph>
<glyph name="mu" format="2">
  <advance width="2048"/>
  <unicode hex="00B5"/>
  <outline>
    <contour>
      <point x="2076" y="935" type="line"/>
      <point x="1736" y="0" type="line"/>
      <point x="1846" y="0" type="line"/>
      <point x="2186" y="935" type="line"/>
    </contour>
    <contour>
      <point x="346" y="120" type="line"/>
      <point x="302" y="0" type="line"/>
      <point x="1816" y="0" type="line"/>
      <point x="1860" y="120" type="line"/>
    </contour>
    <contour>
      <point x="542" y="935" type="line"/>
      <point x="45" y="-430" type="line"/>
      <point x="139" y="-430" type="line"/>
      <point x="636" y="935" type="line"/>
    </contour>
  </outline>
</glyph>
<glyph name="paragraph" format="2">
  <advance width="2048"/>
  <unicode hex="00B6"/>
  <outline>
    <contour>
      <point x="1013.29" y="1130" type="line"/>
      <point x="960.511" y="985" type="line"/>
      <point x="1524.51" y="985" type="line"/>
      <point x="1577.29" y="1130" type="line"/>
    </contour>
    <contour>
      <point x="1165.43" y="1548" type="line"/>
      <point x="965.971" y="1000" type="line"/>
      <point x="1125.97" y="1000" type="line"/>
      <point x="1325.43" y="1548" type="line"/>
    </contour>
    <contour>
      <point x="1165.43" y="1548" type="line"/>
      <point x="1124.3" y="1435" type="line"/>
      <point x="1944.3" y="1435" type="line"/>
      <point x="1985.43" y="1548" type="line"/>
    </contour>
    <contour>
      <point x="1635.43" y="1548" type="line"/>
      <point x="1072" y="0" type="line"/>
      <point x="1216" y="0" type="line"/>
      <point x="1779.43" y="1548" type="line"/>
    </contour>
    <contour>
      <point x="1905.43" y="1548" type="line"/>
      <point x="1342" y="0" type="line"/>
      <point x="1446" y="0" type="line"/>
      <point x="2009.43" y="1548" type="line"/>
    </contour>
  </outline>
</glyph>
<glyph name="periodcentered" format="2">
  <advance width="2048"/>
  <unicode hex="00B7"/>
  <outline>
    <contour>
      <point x="1309" y="1146" type="line"/>
      <point x="1219" y="899" type="line"/>
      <point x="1483" y="899" type="line"/>
      <point x="1573" y="1146" type="line"/>
    </contour>
  </outline>
</glyph>
<glyph name="cedilla" format="2">
  <advance width="2048"/>
  <unicode hex="00B8"/>
  <outline>
    <contour>
      <point x="867" y="185" type="line"/>
      <point x="749" y="-139" type="line"/>
      <point x="905" y="-139" type="line"/>
      <point x="1023" y="185" type="line"/>
    </contour>
    <contour>
      <point x="699" y="-283" type="line"/>
      <point x="654" y="-406" type="line"/>
      <point x="1100" y="-406" type="line"/>
      <point x="1145" y="-283" type="line"/>
    </contour>
    <contour>
      <point x="1098" y="5" type="line"/>
      <point x="962" y="-367" type="line"/>
      <point x="1114" y="-367" type="line"/>
      <point x="1250" y="5" type="line"/>
    </contour>
    <contour>
      <point x="804" y="5" type="line"/>
      <point x="747" y="-151" type="line"/>
      <point x="1193" y="-151" type="line"/>
      <point x="1250" y="5" type="line"/>
    </contour>
  </outline>
</glyph>
<glyph name="uni00B9" format="2">
  <advance width="2048"/>
  <unicode hex="00B9"/>
  <outline>
    <contour>
      <point x="1346" y="887" type="line"/>
      <point x="1445" y="887" type="line"/>
      <point x="1727" y="1661" type="line"/>
      <point x="1627" y="1661" type="line"/>
    </contour>
    <contour>
      <point x="1629" y="1661" type="line"/>
      <point x="1476" y="1513" type="line"/>
      <point x="1533" y="1463" type="line"/>
      <point x="1686" y="1612" type="line"/>
    </contour>
  </outline>
</glyph>
<glyph name="ordmasculine" format="2">
  <advance width="2048"/>
  <unicode hex="00BA"/>
  <outline>
    <contour>
      <point x="544.342" y="1023.0" type="line"/>
      <point x="172.0" y="0.0" type="line"/>
      <point x="372.0" y="0.0" type="line"/>
      <point x="744.342" y="1023.0" type="line"/>
    </contour>
    <contour>
      <point x="2159.34" y="1023.0" type="line"/>
      <point x="1787.0" y="0.0" type="line"/>
      <point x="1989.0" y="0.0" type="line"/>
      <point x="2361.34" y="1023.0" type="line"/>
    </contour>
    <contour>
      <point x="667.342" y="1023.0" type="line"/>
      <point x="594.184" y="822.0" type="line"/>
      <point x="2180.18" y="822.0" type="line"/>
      <point x="2253.34" y="1023.0" type="line"/>
    </contour>
    <contour>
      <point x="371.794" y="200.0" type="line"/>
      <point x="299.0" y="0.0" type="line"/>
      <point x="1871.0" y="0.0" type="line"/>
      <point x="1943.79" y="200.0" type="line"/>
    </contour>
    <contour>
      <point x="-30.5732" y="-84.0" type="line"/>
      <point x="-78.6172" y="-216.0" type="line"/>
      <point x="1969.38" y="-216.0" type="line"/>
      <point x="2017.43" y="-84.0" type="line"/>
    </contour>
  </outline>
</glyph>
<glyph name="guillemotright" format="2">
  <advance width="2048"/>
  <unicode hex="00BB"/>
  <outline>
    <contour>
      <point x="1638" y="609" type="line"/>
      <point x="1332" y="784" type="line"/>
      <point x="1277" y="631" type="line"/>
      <point x="1581" y="454" type="line"/>
    </contour>
    <contour>
      <point x="1638" y="609" type="line"/>
      <point x="1146" y="268" type="line"/>
      <point x="1092" y="122" type="line"/>
      <point x="1581" y="454" type="line"/>
    </contour>
    <contour>
      <point x="1223" y="609" type="line"/>
      <point x="917" y="784" type="line"/>
      <point x="862" y="631" type="line"/>
      <point x="1166" y="454" type="line"/>
    </contour>
    <contour>
      <point x="1223" y="609" type="line"/>
      <point x="731" y="268" type="line"/>
      <point x="677" y="122" type="line"/>
      <point x="1166" y="454" type="line"/>
    </contour>
  </outline>
</glyph>
<glyph name="onequarter" format="2">
  <advance width="2048"/>
  <unicode hex="00BC"/>
  <outline>
    <contour>
      <point x="1815.4" y="1482.0" type="line"/>
      <point x="84.6396" y="10.0" type="line"/>
      <point x="295.64" y="10.0" type="line"/>
      <point x="2026.4" y="1482.0" type="line"/>
    </contour>
    <contour>
      <point x="920.713" y="1046.0" type="line"/>
      <point x="1031.71" y="1046.0" type="line"/>
      <point x="1214.43" y="1548.0" type="line"/>
      <point x="1103.43" y="1548.0" type="line"/>
    </contour>
    <contour>
      <point x="1111.24" y="1542.0" type="line"/>
      <point x="844.749" y="1428.0" type="line"/>
      <point x="872.282" y="1391.0" type="line"/>
      <point x="1171.24" y="1542.0" type="line"/>
    </contour>
    <contour>
      <point x="1217.67" y="381.0" type="line"/>
      <point x="1844.67" y="381.0" type="line"/>
      <point x="1709.28" y="9.0" type="line"/>
      <point x="1828.28" y="9.0" type="line"/>
      <point x="2105.26" y="770.0" type="line"/>
      <point x="1982.26" y="770.0" type="line"/>
      <point x="1864.69" y="447.0" type="line"/>
      <point x="1362.69" y="447.0" type="line"/>
      <point x="1480.99" y="772.0" type="line"/>
      <point x="1359.99" y="772.0" type="line"/>
    </contour>
  </outline>
</glyph>
<glyph name="onehalf" format="2">
  <advance width="2048"/>
  <unicode hex="00BD"/>
  <outline>
    <contour>
      <point x="1831.77" y="1483.0" type="line"/>
      <point x="269.184" y="6.0" type="line"/>
      <point x="433.081" y="-30.0" type="line"/>
      <point x="1995.67" y="1447.0" type="line"/>
    </contour>
    <contour>
      <point x="612.106" y="863.0" type="line"/>
      <point x="695.106" y="863.0" type="line"/>
      <point x="944.426" y="1548.0" type="line"/>
      <point x="861.426" y="1548.0" type="line"/>
    </contour>
    <contour>
      <point x="863.426" y="1548.0" type="line"/>
      <point x="734.474" y="1419.0" type="line"/>
      <point x="780.095" y="1374.0" type="line"/>
      <point x="910.14" y="1506.0" type="line"/>
    </contour>
    <contour>
      <point x="1871.39" y="633.0" type="line"/>
      <point x="2142.39" y="633.0" type="line"/>
      <point x="2071.05" y="437.0" type="line"/>
      <point x="1802.05" y="437.0" type="line"/>
      <point x="1653.92" y="30.0" type="line"/>
      <point x="2004.92" y="30.0" type="line"/>
      <point x="2037.68" y="120.0" type="line"/>
      <point x="1776.68" y="120.0" type="line"/>
      <point x="1859.3" y="347.0" type="line"/>
      <point x="2127.3" y="347.0" type="line"/>
      <point x="2264.15" y="723.0" type="line"/>
      <point x="1904.15" y="723.0" type="line"/>
    </contour>
  </outline>
</glyph>
<glyph name="threequarters" format="2">
  <advance width="2048"/>
  <unicode hex="00BE"/>
  <outline>
    <contour>
      <point x="1927.76757812" y="1483.0" type="line"/>
      <point x="214.18359375" y="6.0" type="line"/>
      <point x="307.614257812" y="-67.0" type="line"/>
      <point x="2021.19824219" y="1410.0" type="line"/>
    </contour>
    <contour>
      <point x="558.969726562" y="1272.0" type="line"/>
      <point x="1132.96972656" y="1272.0" type="line"/>
      <point x="1064.54394531" y="1084.0" type="line"/>
      <point x="453.543945312" y="1084.0" type="line"/>
      <point x="436.4296875" y="1015.0" type="line"/>
      <point x="1216.4296875" y="1015.0" type="line"/>
      <point x="1412.24609375" y="1553.0" type="line"/>
      <point x="651.24609375" y="1553.0" type="line"/>
      <point x="626.131835938" y="1484.0" type="line"/>
      <point x="1208.13183594" y="1484.0" type="line"/>
      <point x="1155.71972656" y="1340.0" type="line"/>
      <point x="583.719726562" y="1340.0" type="line"/>
    </contour>
    <contour>
      <point x="1387.75" y="340.0" type="line"/>
      <point x="1934.75" y="340.0" type="line"/>
      <point x="1813.54785156" y="7.0" type="line"/>
      <point x="1980.54785156" y="7.0" type="line"/>
      <point x="2228.04785156" y="687.0" type="line"/>
      <point x="2059.04785156" y="687.0" type="line"/>
      <point x="1964.77929688" y="428.0" type="line"/>
      <point x="1588.77929688" y="428.0" type="line"/>
      <point x="1683.77539062" y="689.0" type="line"/>
      <point x="1514.77539062" y="689.0" type="line"/>
    </contour>
  </outline>
</glyph>
<glyph name="questiondown" format="2">
  <advance width="2048"/>
  <unicode hex="00BF"/>
  <outline>
    <contour>
      <point x="1631.33398438" y="1273.0" type="line"/>
      <point x="1720.87109375" y="1519.0" type="line"/>
      <point x="1470.87109375" y="1519.0" type="line"/>
      <point x="1380.96972656" y="1272.0" type="line"/>
    </contour>
    <contour>
      <point x="1344.0" y="0.0" type="line"/>
      <point x="1411.69824219" y="186.0" type="line"/>
      <point x="775.698242188" y="186.0" type="line"/>
      <point x="708.0" y="0.0" type="line"/>
    </contour>
    <contour>
      <point x="899.8203125" y="5.0" type="line"/>
      <point x="1099.27539062" y="553.0" type="line"/>
      <point x="905.275390625" y="553.0" type="line"/>
      <point x="705.8203125" y="5.0" type="line"/>
    </contour>
    <contour>
      <point x="1351.44140625" y="504.0" type="line"/>
      <point x="1423.87109375" y="703.0" type="line"/>
      <point x="959.87109375" y="703.0" type="line"/>
      <point x="887.44140625" y="504.0" type="line"/>
    </contour>
    <contour>
      <point x="1352.89648438" y="508.0" type="line"/>
      <point x="1578.19433594" y="1127.0" type="line"/>
      <point x="1330.19433594" y="1127.0" type="line"/>
      <point x="1104.89648438" y="508.0" type="line"/>
    </contour>
  </outline>
</glyph>
<glyph name="AE" format="2">
  <advance width="2048"/>
  <unicode hex="00C6"/>
  <outline>
    <contour>
      <point x="1225.33" y="185.0" type="line"/>
      <point x="1158.0" y="0.0" type="line"/>
      <point x="2020.0" y="0.0" type="line"/>
      <point x="2087.33" y="185.0" type="line"/>
    </contour>
    <contour>
      <point x="125.0" y="0.0" type="line"/>
      <point x="324.0" y="0.0" type="line"/>
      <point x="887.426" y="1548.0" type="line"/>
      <point x="688.426" y="1548.0" type="line"/>
    </contour>
    <contour>
      <point x="670.809" y="1332.0" type="line"/>
      <point x="2482.81" y="1332.0" type="line"/>
      <point x="2561.43" y="1548.0" type="line"/>
      <point x="749.426" y="1548.0" type="line"/>
    </contour>
    <contour>
      <point x="576.342" y="1023.0" type="line"/>
      <point x="513.011" y="849.0" type="line"/>
      <point x="2255.01" y="849.0" type="line"/>
      <point x="2318.34" y="1023.0" type="line"/>
    </contour>
    <contour>
      <point x="1063.0" y="0.0" type="line"/>
      <point x="1263.0" y="0.0" type="line"/>
      <point x="1826.43" y="1548.0" type="line"/>
      <point x="1626.43" y="1548.0" type="line"/>
    </contour>
  </outline>
</glyph>
<glyph name="Eth" format="2">
  <advance width="2048"/>
  <unicode hex="00D0"/>
  <anchor x="2028" y="1655" name="top"/>
  <anchor x="1030" y="-118" name="base"/>
  <outline>
    <contour>
      <point x="680.625" y="935" type="line"/>
      <point x="531.396" y="730" type="line"/>
      <point x="1007.4" y="730" type="line"/>
      <point x="1156.62" y="935" type="line"/>
    </contour>
    <contour>
      <point x="1233.85" y="1548" type="line"/>
      <point x="107" y="0" type="line"/>
      <point x="309" y="0" type="line"/>
      <point x="1435.85" y="1548" type="line"/>
    </contour>
    <contour>
      <point x="2583.85" y="1548" type="line"/>
      <point x="2439.72" y="1350" type="line"/>
      <point x="2498.33" y="767" type="line"/>
      <point x="2684.68" y="1023" type="line"/>
    </contour>
    <contour>
      <point x="1611.32" y="201" type="line"/>
      <point x="1465" y="0" type="line"/>
      <point x="2496.79" y="769" type="line"/>
      <point x="2681.68" y="1023" type="line"/>
    </contour>
    <contour>
      <point x="1397.85" y="1548" type="line"/>
      <point x="1252.99" y="1349" type="line"/>
      <point x="2438.99" y="1349" type="line"/>
      <point x="2583.85" y="1548" type="line"/>
    </contour>
    <contour>
      <point x="424.588" y="200" type="line"/>
      <point x="279" y="0" type="line"/>
      <point x="1465" y="0" type="line"/>
      <point x="1610.59" y="200" type="line"/>
    </contour>
  </outline>
</glyph>
<glyph name="multiply" format="2">
  <advance width="2048"/>
  <unicode hex="00D7"/>
  <outline>
    <contour>
      <point x="200.918945312" y="302.0" type="line"/>
      <point x="523.918945312" y="302.0" type="line"/>
      <point x="2432.53222656" y="1323.0" type="line"/>
      <point x="2121.53222656" y="1323.0" type="line"/>
    </contour>
    <contour>
      <point x="575.260742188" y="1325.0" type="line"/>
      <point x="1755.46289062" y="298.0" type="line"/>
      <point x="2066.46289062" y="298.0" type="line"/>
      <point x="899.260742188" y="1325.0" type="line"/>
    </contour>
  </outline>
</glyph>
<glyph name="Oslash" format="2">
  <advance width="2048"/>
  <unicode hex="00D8"/>
  <anchor x="1615" y="1635" name="top"/>
  <anchor x="1031" y="-91" name="base"/>
  <outline>
    <contour>
      <point x="2419" y="1667" type="line"/>
      <point x="19" y="-45" type="line"/>
      <point x="180" y="-118" type="line"/>
      <point x="2580" y="1594" type="line"/>
    </contour>
    <contour>
      <point x="669" y="1537" type="line"/>
      <point x="110" y="0" type="line"/>
      <point x="311" y="0" type="line"/>
      <point x="870" y="1537" type="line"/>
    </contour>
    <contour>
      <point x="2290" y="1537" type="line"/>
      <point x="1731" y="0" type="line"/>
      <point x="1934" y="0" type="line"/>
      <point x="2493" y="1537" type="line"/>
    </contour>
    <contour>
      <point x="733" y="1537" type="line"/>
      <point x="661" y="1337" type="line"/>
      <point x="2328" y="1337" type="line"/>
      <point x="2400" y="1537" type="line"/>
    </contour>
    <contour>
      <point x="224" y="204" type="line"/>
      <point x="150" y="0" type="line"/>
      <point x="1847" y="0" type="line"/>
      <point x="1921" y="204" type="line"/>
    </contour>
  </outline>
</glyph>
<glyph name="Thorn" format="2">
  <advance width="2048"/>
  <unicode hex="00DE"/>
  <outline>
    <contour>
      <point x="673.242" y="1542.0" type="line"/>
      <point x="115.275" y="9.0" type="line"/>
      <point x="305.275" y="9.0" type="line"/>
      <point x="863.242" y="1542.0" type="line"/>
    </contour>
    <contour>
      <point x="640.14" y="1234.0" type="line"/>
      <point x="567.709" y="1035.0" type="line"/>
      <point x="2247.71" y="1035.0" type="line"/>
      <point x="2320.14" y="1234.0" type="line"/>
    </contour>
    <contour>
      <point x="2139.78" y="1233.0" type="line"/>
      <point x="1898.1" y="569.0" type="line"/>
      <point x="2098.1" y="569.0" type="line"/>
      <point x="2339.78" y="1233.0" type="line"/>
    </contour>
    <contour>
      <point x="427.956" y="684.0" type="line"/>
      <point x="355.161" y="484.0" type="line"/>
      <point x="2066.16" y="484.0" type="line"/>
      <point x="2138.96" y="684.0" type="line"/>
    </contour>
  </outline>
</glyph>
<glyph name="germandbls" format="2">
  <advance width="2048"/>
  <unicode hex="00DF"/>
  <outline>
    <contour>
      <point x="462.407" y="1221.0" type="line"/>
      <point x="390.342" y="1023.0" type="line"/>
      <point x="641.342" y="1023.0" type="line"/>
      <point x="713.407" y="1221.0" type="line"/>
    </contour>
    <contour>
      <point x="767.426" y="1548.0" type="line"/>
      <point x="204.0" y="0.0" type="line"/>
      <point x="410.0" y="0.0" type="line"/>
      <point x="973.426" y="1548.0" type="line"/>
    </contour>
    <contour>
      <point x="973.426" y="1548.0" type="line"/>
      <point x="893.353" y="1328.0" type="line"/>
      <point x="2312.35" y="1328.0" type="line"/>
      <point x="2392.43" y="1548.0" type="line"/>
    </contour>
    <contour>
      <point x="2277.43" y="1548.0" type="line"/>
      <point x="2086.34" y="1023.0" type="line"/>
      <point x="2285.34" y="1023.0" type="line"/>
      <point x="2476.43" y="1548.0" type="line"/>
    </contour>
    <contour>
      <point x="2100.54" y="1062.0" type="line"/>
      <point x="876.536" y="1062.0" type="line"/>
      <point x="790.64" y="826.0" type="line"/>
      <point x="2014.64" y="826.0" type="line"/>
    </contour>
    <contour>
      <point x="2022.65" y="848.0" type="line"/>
      <point x="1777.69" y="175.0" type="line"/>
      <point x="1977.69" y="175.0" type="line"/>
      <point x="2222.65" y="848.0" type="line"/>
    </contour>
    <contour>
      <point x="638.356" y="251.0" type="line"/>
      <point x="561.559" y="40.0" type="line"/>
      <point x="1928.56" y="40.0" type="line"/>
      <point x="2005.36" y="251.0" type="line"/>
    </contour>
  </outline>
</glyph>
<glyph name="ae" format="2">
  <advance width="2048"/>
  <unicode hex="00E6"/>
  <anchor x="1459" y="1109" name="top"/>
  <anchor x="1011" y="-118" name="base"/>
  <outline>
    <contour>
      <point x="420.342" y="1023" type="line"/>
      <point x="347.911" y="824" type="line"/>
      <point x="2190.91" y="824" type="line"/>
      <point x="2263.34" y="1023" type="line"/>
    </contour>
    <contour>
      <point x="1333.34" y="1023" type="line"/>
      <point x="961" y="0" type="line"/>
      <point x="1155" y="0" type="line"/>
      <point x="1527.34" y="1023" type="line"/>
    </contour>
    <contour>
      <point x="289.019" y="599" type="line"/>
      <point x="216.588" y="400" type="line"/>
      <point x="2037.59" y="400" type="line"/>
      <point x="2110.02" y="599" type="line"/>
    </contour>
    <contour>
      <point x="280.283" y="575" type="line"/>
      <point x="71" y="0" type="line"/>
      <point x="272" y="0" type="line"/>
      <point x="481.283" y="575" type="line"/>
    </contour>
    <contour>
      <point x="142.158" y="201" type="line"/>
      <point x="69" y="0" type="line"/>
      <point x="2013" y="0" type="line"/>
      <point x="2086.16" y="201" type="line"/>
    </contour>
    <contour>
      <point x="2169.34" y="1023" type="line"/>
      <point x="1942.59" y="400" type="line"/>
      <point x="2137.59" y="400" type="line"/>
      <point x="2364.34" y="1023" type="line"/>
    </contour>
  </outline>
</glyph>
<glyph name="eth" format="2">
  <advance width="2048"/>
  <unicode hex="00F0"/>
  <outline>
    <contour>
      <point x="1828.42578125" y="1548.0" type="line"/>
      <point x="1716.0" y="0.0" type="line"/>
      <point x="1917.0" y="0.0" type="line"/>
      <point x="2029.42578125" y="1548.0" type="line"/>
    </contour>
    <contour>
      <point x="600.341796875" y="1023.0" type="line"/>
      <point x="527.18359375" y="822.0" type="line"/>
      <point x="1892.18359375" y="822.0" type="line"/>
      <point x="1965.34179688" y="1023.0" type="line"/>
    </contour>
    <contour>
      <point x="504.341796875" y="1023.0" type="line"/>
      <point x="132.0" y="0.0" type="line"/>
      <point x="333.0" y="0.0" type="line"/>
      <point x="705.341796875" y="1023.0" type="line"/>
    </contour>
    <contour>
      <point x="298.974609375" y="195.0" type="line"/>
      <point x="228.0" y="0.0" type="line"/>
      <point x="1869.0" y="0.0" type="line"/>
      <point x="1939.97460938" y="195.0" type="line"/>
    </contour>
    <contour>
      <point x="1700.38183594" y="1416.0" type="line"/>
      <point x="1632.31933594" y="1229.0" type="line"/>
      <point x="2164.31933594" y="1229.0" type="line"/>
      <point x="2232.38183594" y="1416.0" type="line"/>
    </contour>
  </outline>
</glyph>
<glyph name="divide" format="2">
  <advance width="2048"/>
  <unicode hex="00F7"/>
  <outline>
    <contour>
      <point x="1068.51" y="430" type="line"/>
      <point x="985.158" y="201" type="line"/>
      <point x="1233.16" y="201" type="line"/>
      <point x="1316.51" y="430" type="line"/>
    </contour>
    <contour>
      <point x="1358.98" y="1294" type="line"/>
      <point x="1269.08" y="1047" type="line"/>
      <point x="1535.08" y="1047" type="line"/>
      <point x="1624.98" y="1294" type="line"/>
    </contour>
    <contour>
      <point x="905.088" y="808" type="line"/>
      <point x="829.382" y="600" type="line"/>
      <point x="1655.38" y="600" type="line"/>
      <point x="1731.09" y="808" type="line"/>
    </contour>
  </outline>
</glyph>
<glyph name="oslash" format="2">
  <advance width="2048"/>
  <unicode hex="00F8"/>
  <outline>
    <contour>
      <point x="2284.66113281" y="1164.0" type="line"/>
      <point x="7.1796875" y="-5.0" type="line"/>
      <point x="133.510742188" y="-103.0" type="line"/>
      <point x="2411.9921875" y="1066.0" type="line"/>
    </contour>
    <contour>
      <point x="476.341796875" y="1023.0" type="line"/>
      <point x="104.0" y="0.0" type="line"/>
      <point x="304.0" y="0.0" type="line"/>
      <point x="676.341796875" y="1023.0" type="line"/>
    </contour>
    <contour>
      <point x="2115.34179688" y="1023.0" type="line"/>
      <point x="1743.0" y="0.0" type="line"/>
      <point x="1945.0" y="0.0" type="line"/>
      <point x="2317.34179688" y="1023.0" type="line"/>
    </contour>
    <contour>
      <point x="599.341796875" y="1023.0" type="line"/>
      <point x="526.18359375" y="822.0" type="line"/>
      <point x="2136.18359375" y="822.0" type="line"/>
      <point x="2209.34179688" y="1023.0" type="line"/>
    </contour>
    <contour>
      <point x="303.793945312" y="200.0" type="line"/>
      <point x="231.0" y="0.0" type="line"/>
      <point x="1827.0" y="0.0" type="line"/>
      <point x="1899.79394531" y="200.0" type="line"/>
    </contour>
  </outline>
</glyph>
<glyph name="thorn" format="2">
  <advance width="2048"/>
  <unicode hex="00FE"/>
  <outline>
    <contour>
      <point x="549.345703125" y="1034.0" type="line"/>
      <point x="25.228515625" y="-406.0" type="line"/>
      <point x="225.228515625" y="-406.0" type="line"/>
      <point x="749.345703125" y="1034.0" type="line"/>
    </contour>
    <contour>
      <point x="602.768554688" y="667.0" type="line"/>
      <point x="530.337890625" y="468.0" type="line"/>
      <point x="2110.33789062" y="468.0" type="line"/>
      <point x="2182.76855469" y="667.0" type="line"/>
    </contour>
    <contour>
      <point x="370.18359375" y="6.0" type="line"/>
      <point x="297.025390625" y="-195.0" type="line"/>
      <point x="1867.02539062" y="-195.0" type="line"/>
      <point x="1940.18359375" y="6.0" type="line"/>
    </contour>
    <contour>
      <point x="1957.29003906" y="597.0" type="line"/>
      <point x="1702.14746094" y="-104.0" type="line"/>
      <point x="1900.14746094" y="-104.0" type="line"/>
      <point x="2155.29003906" y="597.0" type="line"/>
    </contour>
  </outline>
</glyph>
<glyph name="dcaron" format="2">
  <advance width="2048"/>
  <unicode hex="010F"/>
  <outline>
    <contour>
      <point x="2192.78" y="1527.0" type="line"/>
      <point x="1637.0" y="0.0" type="line"/>
      <point x="1838.0" y="0.0" type="line"/>
      <point x="2393.78" y="1527.0" type="line"/>
    </contour>
    <contour>
      <point x="521.342" y="1023.0" type="line"/>
      <point x="448.184" y="822.0" type="line"/>
      <point x="2025.18" y="822.0" type="line"/>
      <point x="2098.34" y="1023.0" type="line"/>
    </contour>
    <contour>
      <point x="425.342" y="1023.0" type="line"/>
      <point x="53.0" y="0.0" type="line"/>
      <point x="254.0" y="0.0" type="line"/>
      <point x="626.342" y="1023.0" type="line"/>
    </contour>
    <contour>
      <point x="219.975" y="195.0" type="line"/>
      <point x="149.0" y="0.0" type="line"/>
      <point x="1790.0" y="0.0" type="line"/>
      <point x="1860.97" y="195.0" type="line"/>
    </contour>
    <contour>
      <point x="2428.5" y="1496.0" type="line"/>
      <point x="2344.06" y="1264.0" type="line"/>
      <point x="2474.06" y="1264.0" type="line"/>
      <point x="2558.5" y="1496.0" type="line"/>
    </contour>
  </outline>
</glyph>
<glyph name="Dcroat" format="2">
  <advance width="2048"/>
  <unicode hex="0110"/>
  <anchor x="1504" y="1645" name="top"/>
  <anchor x="1031" y="-159" name="base"/>
  <outline>
    <contour>
      <point x="340.312" y="935" type="line"/>
      <point x="265.698" y="730" type="line"/>
      <point x="865.698" y="730" type="line"/>
      <point x="940.312" y="935" type="line"/>
    </contour>
    <contour>
      <point x="670.426" y="1548" type="line"/>
      <point x="107" y="0" type="line"/>
      <point x="309" y="0" type="line"/>
      <point x="872.426" y="1548" type="line"/>
    </contour>
    <contour>
      <point x="2020.43" y="1548" type="line"/>
      <point x="1948.36" y="1350" type="line"/>
      <point x="2219.17" y="767" type="line"/>
      <point x="2312.34" y="1023" type="line"/>
    </contour>
    <contour>
      <point x="1538.16" y="201" type="line"/>
      <point x="1465" y="0" type="line"/>
      <point x="2216.89" y="769" type="line"/>
      <point x="2309.34" y="1023" type="line"/>
    </contour>
    <contour>
      <point x="834.426" y="1548" type="line"/>
      <point x="761.996" y="1349" type="line"/>
      <point x="1948" y="1349" type="line"/>
      <point x="2020.43" y="1548" type="line"/>
    </contour>
    <contour>
      <point x="351.794" y="200" type="line"/>
      <point x="279" y="0" type="line"/>
      <point x="1465" y="0" type="line"/>
      <point x="1537.79" y="200" type="line"/>
    </contour>
  </outline>
</glyph>
<glyph name="dcroat" format="2">
  <advance width="2048"/>
  <unicode hex="0111"/>
  <outline>
    <contour>
      <point x="2271.78222656" y="1527.0" type="line"/>
      <point x="1716.0" y="0.0" type="line"/>
      <point x="1917.0" y="0.0" type="line"/>
      <point x="2472.78222656" y="1527.0" type="line"/>
    </contour>
    <contour>
      <point x="600.341796875" y="1023.0" type="line"/>
      <point x="527.18359375" y="822.0" type="line"/>
      <point x="2104.18359375" y="822.0" type="line"/>
      <point x="2177.34179688" y="1023.0" type="line"/>
    </contour>
    <contour>
      <point x="504.341796875" y="1023.0" type="line"/>
      <point x="132.0" y="0.0" type="line"/>
      <point x="333.0" y="0.0" type="line"/>
      <point x="705.341796875" y="1023.0" type="line"/>
    </contour>
    <contour>
      <point x="298.974609375" y="195.0" type="line"/>
      <point x="228.0" y="0.0" type="line"/>
      <point x="1869.0" y="0.0" type="line"/>
      <point x="1939.97460938" y="195.0" type="line"/>
    </contour>
    <contour>
      <point x="2089.65039062" y="1403.0" type="line"/>
      <point x="2016.4921875" y="1202.0" type="line"/>
      <point x="2460.4921875" y="1202.0" type="line"/>
      <point x="2533.65039062" y="1403.0" type="line"/>
    </contour>
  </outline>
</glyph>
<glyph name="uni0123" format="2">
  <advance width="2048"/>
  <unicode hex="0123"/>
  <outline>
    <contour>
      <point x="669.341796875" y="1023.0" type="line"/>
      <point x="297.0" y="0.0" type="line"/>
      <point x="489.0" y="0.0" type="line"/>
      <point x="861.341796875" y="1023.0" type="line"/>
    </contour>
    <contour>
      <point x="709.341796875" y="1023.0" type="line"/>
      <point x="636.547851562" y="823.0" type="line"/>
      <point x="2176.54785156" y="823.0" type="line"/>
      <point x="2249.34179688" y="1023.0" type="line"/>
    </contour>
    <contour>
      <point x="2077.34179688" y="1023.0" type="line"/>
      <point x="1555.40820312" y="-411.0" type="line"/>
      <point x="1749.40820312" y="-411.0" type="line"/>
      <point x="2271.34179688" y="1023.0" type="line"/>
    </contour>
    <contour>
      <point x="432.06640625" y="198.0" type="line"/>
      <point x="360.0" y="0.0" type="line"/>
      <point x="1841.0" y="0.0" type="line"/>
      <point x="1913.06640625" y="198.0" type="line"/>
    </contour>
    <contour>
      <point x="213.110351562" y="-214.0" type="line"/>
      <point x="140.680664062" y="-413.0" type="line"/>
      <point x="1699.68066406" y="-413.0" type="line"/>
      <point x="1772.11035156" y="-214.0" type="line"/>
    </contour>
    <contour>
      <point x="1503.49902344" y="1496.0" type="line"/>
      <point x="1395.03613281" y="1198.0" type="line"/>
      <point x="1525.03613281" y="1198.0" type="line"/>
      <point x="1633.49902344" y="1496.0" type="line"/>
    </contour>
  </outline>
</glyph>
<glyph name="Hbar" format="2">
  <advance width="2048"/>
  <unicode hex="0126"/>
  <outline>
    <contour>
      <point x="648.421875" y="1537.0" type="line"/>
      <point x="89.0" y="0.0" type="line"/>
      <point x="289.0" y="0.0" type="line"/>
      <point x="848.421875" y="1537.0" type="line"/>
    </contour>
    <contour>
      <point x="2258.421875" y="1537.0" type="line"/>
      <point x="1699.0" y="0.0" type="line"/>
      <point x="1909.0" y="0.0" type="line"/>
      <point x="2468.421875" y="1537.0" type="line"/>
    </contour>
    <contour>
      <point x="581.341796875" y="1023.0" type="line"/>
      <point x="506.727539062" y="818.0" type="line"/>
      <point x="2076.72753906" y="818.0" type="line"/>
      <point x="2151.34179688" y="1023.0" type="line"/>
    </contour>
    <contour>
      <point x="549.93359375" y="1434.0" type="line"/>
      <point x="474.227539062" y="1226.0" type="line"/>
      <point x="2423.22753906" y="1226.0" type="line"/>
      <point x="2498.93359375" y="1434.0" type="line"/>
    </contour>
  </outline>
</glyph>
<glyph name="hbar" format="2">
  <advance width="2048"/>
  <unicode hex="0127"/>
  <outline>
    <contour>
      <point x="733.421875" y="1537.0" type="line"/>
      <point x="176.18359375" y="6.0" type="line"/>
      <point x="376.18359375" y="6.0" type="line"/>
      <point x="933.421875" y="1537.0" type="line"/>
    </contour>
    <contour>
      <point x="683.341796875" y="1023.0" type="line"/>
      <point x="611.639648438" y="826.0" type="line"/>
      <point x="2166.63964844" y="826.0" type="line"/>
      <point x="2238.34179688" y="1023.0" type="line"/>
    </contour>
    <contour>
      <point x="2047.34179688" y="1023.0" type="line"/>
      <point x="1675.0" y="0.0" type="line"/>
      <point x="1874.0" y="0.0" type="line"/>
      <point x="2246.34179688" y="1023.0" type="line"/>
    </contour>
    <contour>
      <point x="558.11328125" y="1429.0" type="line"/>
      <point x="482.407226562" y="1221.0" type="line"/>
      <point x="938.407226562" y="1221.0" type="line"/>
      <point x="1014.11328125" y="1429.0" type="line"/>
    </contour>
  </outline>
</glyph>
<glyph name="dotlessi" format="2">
  <advance width="2048"/>
  <unicode hex="0131"/>
  <outline>
    <contour>
      <point x="1293.52148438" y="1018.0" type="line"/>
      <point x="973.591796875" y="139.0" type="line"/>
      <point x="1175.59179688" y="139.0" type="line"/>
      <point x="1495.52148438" y="1018.0" type="line"/>
    </contour>
    <contour>
      <point x="227.25" y="204.0" type="line"/>
      <point x="155.18359375" y="6.0" type="line"/>
      <point x="1897.18359375" y="6.0" type="line"/>
      <point x="1969.25" y="204.0" type="line"/>
    </contour>
    <contour>
      <point x="573.521484375" y="1018.0" type="line"/>
      <point x="500.727539062" y="818.0" type="line"/>
      <point x="1376.72753906" y="818.0" type="line"/>
      <point x="1449.52148438" y="1018.0" type="line"/>
    </contour>
  </outline>
</glyph>
<glyph name="kgreenlandic" format="2">
  <advance width="2048"/>
  <unicode hex="0138"/>
  <anchor x="1006" y="-109" name="base"/>
  <anchor x="538" y="1151" name="top"/>
  <outline>
    <contour>
      <point x="413.978" y="1022" type="line"/>
      <point x="43.8203" y="5" type="line"/>
      <point x="243.82" y="5" type="line"/>
      <point x="613.978" y="1022" type="line"/>
    </contour>
    <contour>
      <point x="278.809" y="516" type="line"/>
      <point x="248.463" y="298" type="line"/>
      <point x="2408.34" y="1023" type="line"/>
      <point x="2191.34" y="1023" type="line"/>
    </contour>
    <contour>
      <point x="653.665" y="631" type="line"/>
      <point x="371.798" y="483" type="line"/>
      <point x="1789" y="0" type="line"/>
      <point x="2027" y="0" type="line"/>
    </contour>
  </outline>
</glyph>
<glyph name="Lcaron" format="2">
  <advance width="2048"/>
  <unicode hex="013D"/>
  <outline>
    <contour>
      <point x="614.242" y="1542.0" type="line"/>
      <point x="53.0" y="0.0" type="line"/>
      <point x="251.0" y="0.0" type="line"/>
      <point x="812.242" y="1542.0" type="line"/>
    </contour>
    <contour>
      <point x="235.522" y="202.0" type="line"/>
      <point x="162.0" y="0.0" type="line"/>
      <point x="1912.0" y="0.0" type="line"/>
      <point x="1985.52" y="202.0" type="line"/>
    </contour>
    <contour>
      <point x="991.499" y="1496.0" type="line"/>
      <point x="907.059" y="1264.0" type="line"/>
      <point x="1037.06" y="1264.0" type="line"/>
      <point x="1121.5" y="1496.0" type="line"/>
    </contour>
  </outline>
</glyph>
<glyph name="lcaron" format="2">
  <advance width="2048"/>
  <unicode hex="013E"/>
  <outline>
    <contour>
      <point x="209.069335938" y="209.0" type="line"/>
      <point x="136.275390625" y="9.0" type="line"/>
      <point x="1794.27539062" y="9.0" type="line"/>
      <point x="1867.06933594" y="209.0" type="line"/>
    </contour>
    <contour>
      <point x="1425.42578125" y="1548.0" type="line"/>
      <point x="893.301757812" y="86.0" type="line"/>
      <point x="1093.30175781" y="86.0" type="line"/>
      <point x="1625.42578125" y="1548.0" type="line"/>
    </contour>
    <contour>
      <point x="757.42578125" y="1548.0" type="line"/>
      <point x="684.99609375" y="1349.0" type="line"/>
      <point x="1431.99609375" y="1349.0" type="line"/>
      <point x="1504.42578125" y="1548.0" type="line"/>
    </contour>
    <contour>
      <point x="1853.49902344" y="1496.0" type="line"/>
      <point x="1769.05859375" y="1264.0" type="line"/>
      <point x="1899.05859375" y="1264.0" type="line"/>
      <point x="1983.49902344" y="1496.0" type="line"/>
    </contour>
  </outline>
</glyph>
<glyph name="Lslash" format="2">
  <advance width="2048"/>
  <unicode hex="0141"/>
  <outline>
    <contour>
      <point x="732.242" y="1542" type="line"/>
      <point x="171" y="0" type="line"/>
      <point x="369" y="0" type="line"/>
      <point x="930.242" y="1542" type="line"/>
    </contour>
    <contour>
      <point x="353.522" y="202" type="line"/>
      <point x="280" y="0" type="line"/>
      <point x="2030" y="0" type="line"/>
      <point x="2103.52" y="202" type="line"/>
    </contour>
    <contour>
      <point x="344.301" y="902" type="line"/>
      <point x="361.698" y="730" type="line"/>
      <point x="869.221" y="932" type="line"/>
      <point x="851.823" y="1104" type="line"/>
    </contour>
  </outline>
</glyph>
<glyph name="lslash" format="2">
  <advance width="2048"/>
  <unicode hex="0142"/>
  <outline>
    <contour>
      <point x="271.069335938" y="209.0" type="line"/>
      <point x="198.275390625" y="9.0" type="line"/>
      <point x="1856.27539062" y="9.0" type="line"/>
      <point x="1929.06933594" y="209.0" type="line"/>
    </contour>
    <contour>
      <point x="1487.42578125" y="1548.0" type="line"/>
      <point x="955.301757812" y="86.0" type="line"/>
      <point x="1155.30175781" y="86.0" type="line"/>
      <point x="1687.42578125" y="1548.0" type="line"/>
    </contour>
    <contour>
      <point x="819.42578125" y="1548.0" type="line"/>
      <point x="746.99609375" y="1349.0" type="line"/>
      <point x="1493.99609375" y="1349.0" type="line"/>
      <point x="1566.42578125" y="1548.0" type="line"/>
    </contour>
    <contour>
      <point x="2280.49609375" y="1213.0" type="line"/>
      <point x="414.095703125" y="830.0" type="line"/>
      <point x="452.764648438" y="656.0" type="line"/>
      <point x="2319.16503906" y="1039.0" type="line"/>
    </contour>
  </outline>
</glyph>
<glyph name="Eng" format="2">
  <advance width="2048"/>
  <unicode hex="014A"/>
  <outline>
    <contour>
      <point x="1471.20214844" y="-211.0" type="line"/>
      <point x="1399.5" y="-408.0" type="line"/>
      <point x="1786.5" y="-408.0" type="line"/>
      <point x="1858.20214844" y="-211.0" type="line"/>
    </contour>
    <contour>
      <point x="675.061523438" y="1547.0" type="line"/>
      <point x="112.0" y="0.0" type="line"/>
      <point x="313.0" y="0.0" type="line"/>
      <point x="876.061523438" y="1547.0" type="line"/>
    </contour>
    <contour>
      <point x="2272.21972656" y="1476.0" type="line"/>
      <point x="1586.5" y="-408.0" type="line"/>
      <point x="1787.5" y="-408.0" type="line"/>
      <point x="2473.21972656" y="1476.0" type="line"/>
    </contour>
    <contour>
      <point x="649.583984375" y="1477.0" type="line"/>
      <point x="577.881835938" y="1280.0" type="line"/>
      <point x="2400.88183594" y="1280.0" type="line"/>
      <point x="2472.58398438" y="1477.0" type="line"/>
    </contour>
  </outline>
</glyph>
<glyph name="eng" format="2">
  <advance width="2048"/>
  <unicode hex="014B"/>
  <outline>
    <contour>
      <point x="1403.20214844" y="-211.0" type="line"/>
      <point x="1331.5" y="-408.0" type="line"/>
      <point x="1718.5" y="-408.0" type="line"/>
      <point x="1790.20214844" y="-211.0" type="line"/>
    </contour>
    <contour>
      <point x="604.330078125" y="990.0" type="line"/>
      <point x="244.0" y="0.0" type="line"/>
      <point x="445.0" y="0.0" type="line"/>
      <point x="805.330078125" y="990.0" type="line"/>
    </contour>
    <contour>
      <point x="2022.23535156" y="976.0" type="line"/>
      <point x="1518.5" y="-408.0" type="line"/>
      <point x="1719.5" y="-408.0" type="line"/>
      <point x="2223.23535156" y="976.0" type="line"/>
    </contour>
    <contour>
      <point x="437.341796875" y="1023.0" type="line"/>
      <point x="365.639648438" y="826.0" type="line"/>
      <point x="2167.63964844" y="826.0" type="line"/>
      <point x="2239.34179688" y="1023.0" type="line"/>
    </contour>
  </outline>
</glyph>
<glyph name="OE" format="2">
  <advance width="2048"/>
  <unicode hex="0152"/>
  <outline>
    <contour>
      <point x="674.42578125" y="1548.0" type="line"/>
      <point x="111.0" y="0.0" type="line"/>
      <point x="312.0" y="0.0" type="line"/>
      <point x="875.42578125" y="1548.0" type="line"/>
    </contour>
    <contour>
      <point x="1578.42578125" y="1548.0" type="line"/>
      <point x="1015.0" y="0.0" type="line"/>
      <point x="1216.0" y="0.0" type="line"/>
      <point x="1779.42578125" y="1548.0" type="line"/>
    </contour>
    <contour>
      <point x="711.42578125" y="1548.0" type="line"/>
      <point x="638.99609375" y="1349.0" type="line"/>
      <point x="2394.99609375" y="1349.0" type="line"/>
      <point x="2467.42578125" y="1548.0" type="line"/>
    </contour>
    <contour>
      <point x="222.793945312" y="200.0" type="line"/>
      <point x="150.0" y="0.0" type="line"/>
      <point x="1912.0" y="0.0" type="line"/>
      <point x="1984.79394531" y="200.0" type="line"/>
    </contour>
    <contour>
      <point x="1430.65039062" y="859.0" type="line"/>
      <point x="1357.85644531" y="659.0" type="line"/>
      <point x="2113.85644531" y="659.0" type="line"/>
      <point x="2186.65039062" y="859.0" type="line"/>
    </contour>
  </outline>
</glyph>
<glyph name="oe" format="2">
  <advance width="2048"/>
  <unicode hex="0153"/>
  <outline>
    <contour>
      <point x="1343.76074219" y="645.0" type="line"/>
      <point x="1271.33105469" y="446.0" type="line"/>
      <point x="2010.33105469" y="446.0" type="line"/>
      <point x="2082.76074219" y="645.0" type="line"/>
    </contour>
    <contour>
      <point x="2195.34179688" y="1023.0" type="line"/>
      <point x="1984.96679688" y="445.0" type="line"/>
      <point x="2184.96679688" y="445.0" type="line"/>
      <point x="2395.34179688" y="1023.0" type="line"/>
    </contour>
    <contour>
      <point x="475.341796875" y="1023.0" type="line"/>
      <point x="103.0" y="0.0" type="line"/>
      <point x="303.0" y="0.0" type="line"/>
      <point x="675.341796875" y="1023.0" type="line"/>
    </contour>
    <contour>
      <point x="1335.34179688" y="1023.0" type="line"/>
      <point x="963.0" y="0.0" type="line"/>
      <point x="1163.0" y="0.0" type="line"/>
      <point x="1535.34179688" y="1023.0" type="line"/>
    </contour>
    <contour>
      <point x="530.341796875" y="1023.0" type="line"/>
      <point x="457.547851562" y="823.0" type="line"/>
      <point x="2182.54785156" y="823.0" type="line"/>
      <point x="2255.34179688" y="1023.0" type="line"/>
    </contour>
    <contour>
      <point x="221.793945312" y="200.0" type="line"/>
      <point x="149.0" y="0.0" type="line"/>
      <point x="2023.0" y="0.0" type="line"/>
      <point x="2095.79394531" y="200.0" type="line"/>
    </contour>
  </outline>
</glyph>
<glyph name="tcaron" format="2">
  <advance width="2048"/>
  <unicode hex="0165"/>
  <outline>
    <contour>
      <point x="1410.51074219" y="1529.0" type="line"/>
      <point x="854.0" y="0.0" type="line"/>
      <point x="1055.0" y="0.0" type="line"/>
      <point x="1611.51074219" y="1529.0" type="line"/>
    </contour>
    <contour>
      <point x="1079.4296875" y="199.0" type="line"/>
      <point x="1007.0" y="0.0" type="line"/>
      <point x="1910.0" y="0.0" type="line"/>
      <point x="1982.4296875" y="199.0" type="line"/>
    </contour>
    <contour>
      <point x="442.341796875" y="1023.0" type="line"/>
      <point x="369.911132812" y="824.0" type="line"/>
      <point x="2172.91113281" y="824.0" type="line"/>
      <point x="2245.34179688" y="1023.0" type="line"/>
    </contour>
    <contour>
      <point x="1940.49902344" y="1496.0" type="line"/>
      <point x="1865.88574219" y="1291.0" type="line"/>
      <point x="1995.88574219" y="1291.0" type="line"/>
      <point x="2070.49902344" y="1496.0" type="line"/>
    </contour>
  </outline>
</glyph>
<glyph name="longs" format="2">
  <advance width="2048"/>
  <unicode hex="017F"/>
  <outline>
    <contour>
      <point x="462" y="1221" type="line"/>
      <point x="390" y="1023" type="line"/>
      <point x="897" y="1023" type="line"/>
      <point x="969" y="1221" type="line"/>
    </contour>
    <contour>
      <point x="1023" y="1548" type="line"/>
      <point x="460" y="0" type="line"/>
      <point x="666" y="0" type="line"/>
      <point x="1229" y="1548" type="line"/>
    </contour>
    <contour>
      <point x="1229" y="1548" type="line"/>
      <point x="1149" y="1328" type="line"/>
      <point x="2312" y="1328" type="line"/>
      <point x="2392" y="1548" type="line"/>
    </contour>
  </outline>
</glyph>
<glyph name="Btopbar" format="2">
  <advance width="2048"/>
  <unicode hex="0182"/>
  <anchor x="1376" y="1585" name="top"/>
  <anchor x="1025" y="-74" name="base"/>
  <outline>
    <contour>
      <point x="90" y="0" type="line"/>
      <point x="298" y="0" type="line"/>
      <point x="857" y="1537" type="line"/>
      <point x="649" y="1537" type="line"/>
    </contour>
    <contour>
      <point x="1453" y="201" type="line"/>
      <point x="1380" y="0" type="line"/>
      <point x="2066" y="364" type="line"/>
      <point x="2148" y="588" type="line"/>
    </contour>
    <contour>
      <point x="1652" y="567" type="line"/>
      <point x="2066" y="364" type="line"/>
      <point x="2147" y="586" type="line"/>
      <point x="1725" y="766" type="line"/>
    </contour>
    <contour>
      <point x="529" y="766" type="line"/>
      <point x="456" y="567" type="line"/>
      <point x="1652" y="567" type="line"/>
      <point x="1725" y="766" type="line"/>
    </contour>
    <contour>
      <point x="261" y="200" type="line"/>
      <point x="188" y="0" type="line"/>
      <point x="1380" y="0" type="line"/>
      <point x="1453" y="200" type="line"/>
    </contour>
    <contour>
      <point x="809" y="1537" type="line"/>
      <point x="734" y="1331" type="line"/>
      <point x="2400" y="1331" type="line"/>
      <point x="2475" y="1537" type="line"/>
    </contour>
  </outline>
</glyph>
<glyph name="uni018F" format="2">
  <advance width="2048"/>
  <unicode hex="018F"/>
  <anchor x="1161.27" y="1630" name="top"/>
  <anchor x="647.415" y="-117" name="base"/>
  <outline>
    <contour>
      <point x="1828" y="0" type="line"/>
      <point x="1904.8" y="211" type="line"/>
      <point x="341.798" y="211" type="line"/>
      <point x="265" y="0" type="line"/>
    </contour>
    <contour>
      <point x="1878" y="0" type="line"/>
      <point x="2439.61" y="1543" type="line"/>
      <point x="2237.61" y="1543" type="line"/>
      <point x="1676" y="0" type="line"/>
    </contour>
    <contour>
      <point x="2264.45" y="1342" type="line"/>
      <point x="2337.61" y="1543" type="line"/>
      <point x="731.606" y="1543" type="line"/>
      <point x="658.448" y="1342" type="line"/>
    </contour>
    <contour>
      <point x="2058.78" y="689" type="line"/>
      <point x="2123.93" y="868" type="line"/>
      <point x="445.926" y="868" type="line"/>
      <point x="380.775" y="689" type="line"/>
    </contour>
    <contour>
      <point x="472.919" y="30" type="line"/>
      <point x="618.29" y="869" type="line"/>
      <point x="423.29" y="869" type="line"/>
      <point x="277.919" y="30" type="line"/>
    </contour>
  </outline>
</glyph>
<glyph name="Eopen" format="2">
  <advance width="2048"/>
  <unicode hex="0190"/>
  <outline>
    <contour>
      <point x="518" y="1542" type="line"/>
      <point x="475" y="930" type="line"/>
      <point x="675" y="929" type="line"/>
      <point x="718" y="1541" type="line"/>
    </contour>
    <contour>
      <point x="596" y="1541" type="line"/>
      <point x="521" y="1337" type="line"/>
      <point x="2264" y="1337" type="line"/>
      <point x="2339" y="1541" type="line"/>
    </contour>
    <contour>
      <point x="244" y="203" type="line"/>
      <point x="170" y="0" type="line"/>
      <point x="1940" y="0" type="line"/>
      <point x="2014" y="203" type="line"/>
    </contour>
    <contour>
      <point x="622" y="931" type="line"/>
      <point x="549" y="731" type="line"/>
      <point x="1352" y="731" type="line"/>
      <point x="1425" y="931" type="line"/>
    </contour>
    <contour>
      <point x="411" y="734" type="line"/>
      <point x="97" y="2" type="line"/>
      <point x="296" y="1" type="line"/>
      <point x="611" y="733" type="line"/>
    </contour>
  </outline>
</glyph>
<glyph name="uni0192" format="2">
  <advance width="2048"/>
  <unicode hex="0192"/>
  <outline>
    <contour>
      <point x="1135.34" y="1023.0" type="line"/>
      <point x="615.229" y="-406.0" type="line"/>
      <point x="815.229" y="-406.0" type="line"/>
      <point x="1335.34" y="1023.0" type="line"/>
    </contour>
    <contour>
      <point x="1197.34" y="1023.0" type="line"/>
      <point x="1127.46" y="831.0" type="line"/>
      <point x="1905.46" y="831.0" type="line"/>
      <point x="1975.34" y="1023.0" type="line"/>
    </contour>
    <contour>
      <point x="432.459" y="559.0" type="line"/>
      <point x="358.573" y="356.0" type="line"/>
      <point x="1635.57" y="356.0" type="line"/>
      <point x="1709.46" y="559.0" type="line"/>
    </contour>
    <contour>
      <point x="93.8418" y="-201.0" type="line"/>
      <point x="19.2285" y="-406.0" type="line"/>
      <point x="817.229" y="-406.0" type="line"/>
      <point x="891.842" y="-201.0" type="line"/>
    </contour>
  </outline>
</glyph>
<glyph name="uni0194" format="2">
  <advance width="2048"/>
  <unicode hex="0194"/>
  <outline>
    <contour>
      <point x="740" y="1543" type="line"/>
      <point x="1398" y="-158" type="line"/>
      <point x="1598" y="-158" type="line"/>
      <point x="940" y="1543" type="line"/>
    </contour>
    <contour>
      <point x="2424" y="1543" type="line"/>
      <point x="804" y="-158" type="line"/>
      <point x="1003" y="-158" type="line"/>
      <point x="2624" y="1543" type="line"/>
    </contour>
    <contour>
      <point x="731" y="-360" type="line"/>
      <point x="1525" y="-361" type="line"/>
      <point x="1599" y="-158" type="line"/>
      <point x="805" y="-158" type="line"/>
    </contour>
  </outline>
</glyph>
<glyph name="Iota_latin" format="2">
  <advance width="2048"/>
  <unicode hex="0196"/>
  <anchor x="1319" y="1638" name="top"/>
  <anchor x="1029" y="-86" name="base"/>
  <outline>
    <contour>
      <point x="1176" y="1543" type="line"/>
      <point x="893" y="239" type="line"/>
      <point x="1095" y="239" type="line"/>
      <point x="1378" y="1543" type="line"/>
    </contour>
    <contour>
      <point x="916" y="304" type="line"/>
      <point x="844" y="106" type="line"/>
      <point x="1816" y="6" type="line"/>
      <point x="1888" y="204" type="line"/>
    </contour>
  </outline>
</glyph>
<glyph name="uni0198" format="2">
  <advance width="2048"/>
  <unicode hex="0198"/>
  <outline>
    <contour>
      <point x="671" y="1537" type="line"/>
      <point x="114" y="5" type="line"/>
      <point x="315" y="5" type="line"/>
      <point x="872" y="1537" type="line"/>
    </contour>
    <contour>
      <point x="521" y="999" type="line"/>
      <point x="580" y="835" type="line"/>
      <point x="2440" y="1529" type="line"/>
      <point x="2173" y="1529" type="line"/>
    </contour>
    <contour>
      <point x="577" y="798" type="line"/>
      <point x="384" y="643" type="line"/>
      <point x="1655" y="0" type="line"/>
      <point x="1936" y="0" type="line"/>
    </contour>
    <contour>
      <point x="2767" y="1569" type="line"/>
      <point x="2721" y="1784" type="line"/>
      <point x="2481" y="1670" type="line"/>
      <point x="2527" y="1455" type="line"/>
    </contour>
    <contour>
      <point x="2624" y="1603" type="line"/>
      <point x="2480" y="1669" type="line"/>
      <point x="2170" y="1528" type="line"/>
      <point x="2440" y="1529" type="line"/>
    </contour>
  </outline>
</glyph>
<glyph name="Mturned" format="2">
  <advance width="2048"/>
  <unicode hex="019C"/>
  <anchor x="1025" y="-105" name="base"/>
  <anchor x="1447" y="1103" name="top"/>
  <outline>
    <contour>
      <point x="1987" y="30" type="line"/>
      <point x="2348" y="1546" type="line"/>
      <point x="2148" y="1546" type="line"/>
      <point x="1787" y="30" type="line"/>
    </contour>
    <contour>
      <point x="1180" y="51" type="line"/>
      <point x="1534" y="1546" type="line"/>
      <point x="1334" y="1546" type="line"/>
      <point x="980" y="51" type="line"/>
    </contour>
    <contour>
      <point x="363" y="47" type="line"/>
      <point x="718" y="1546" type="line"/>
      <point x="518" y="1546" type="line"/>
      <point x="163" y="47" type="line"/>
    </contour>
    <contour>
      <point x="2054" y="0" type="line"/>
      <point x="2125" y="197" type="line"/>
      <point x="219" y="197" type="line"/>
      <point x="148" y="0" type="line"/>
    </contour>
  </outline>
</glyph>
<glyph name="Phook" format="2">
  <advance width="2048"/>
  <unicode hex="01A4"/>
  <anchor x="1170" y="-73" name="base"/>
  <anchor x="1699" y="1642" name="top"/>
  <anchor x="824.2362704729579" y="1213.7414140096403" name="_top"/>
  <outline>
    <contour>
      <point x="876" y="1548" type="line"/>
      <point x="316" y="9" type="line"/>
      <point x="506" y="9" type="line"/>
      <point x="1066" y="1548" type="line"/>
    </contour>
    <contour>
      <point x="954" y="1548" type="line"/>
      <point x="881" y="1346" type="line"/>
      <point x="2487" y="1346" type="line"/>
      <point x="2560" y="1548" type="line"/>
    </contour>
    <contour>
      <point x="2380" y="1548" type="line"/>
      <point x="2138" y="881" type="line"/>
      <point x="2338" y="881" type="line"/>
      <point x="2580" y="1548" type="line"/>
    </contour>
    <contour>
      <point x="764" y="1068" type="line"/>
      <point x="691" y="868" type="line"/>
      <point x="2329" y="868" type="line"/>
      <point x="2402" y="1068" type="line"/>
    </contour>
    <contour>
      <point x="531.5188099182479" y="1291.8214260895684" type="line"/>
      <point x="760.278939063008" y="1375.4802768686263" type="line"/>
      <point x="600.8325889574967" y="1565.4299055548404" type="line"/>
      <point x="372.0724598127367" y="1481.7710547757827" type="line"/>
    </contour>
    <contour>
      <point x="581.969370862824" y="1398.1451811980935" type="line"/>
      <point x="915.0349111078888" y="1351.322687658523" type="line"/>
      <point x="885.2703086355042" y="1546.9858380973853" type="line"/>
      <point x="600.8325889574967" y="1565.4299055548404" type="line"/>
    </contour>
  </outline>
</glyph>
<glyph name="Thook" format="2">
  <advance width="2048"/>
  <unicode hex="01AC"/>
  <anchor x="1690" y="1604" name="top"/>
  <anchor x="1121" y="-120" name="base"/>
  <outline>
    <contour>
      <point x="796" y="1548" type="line"/>
      <point x="724" y="1348" type="line"/>
      <point x="2522" y="1348" type="line"/>
      <point x="2594" y="1548" type="line"/>
    </contour>
    <contour>
      <point x="1555" y="1436" type="line"/>
      <point x="1034" y="6" type="line"/>
      <point x="1234" y="6" type="line"/>
      <point x="1755" y="1436" type="line"/>
    </contour>
    <contour>
      <point x="963.046826" y="1544.691032" type="line"/>
      <point x="368.329401" y="1545.896637" type="line"/>
      <point x="435.876369" y="1358.711068" type="line"/>
      <point x="1028.712532" y="1356.826599" type="line"/>
    </contour>
    <contour>
      <point x="368.329401" y="1545.896637" type="line"/>
      <point x="492.561513" y="1201.6256910000002" type="line"/>
      <point x="705.4662490000001" y="1200.846028" type="line"/>
      <point x="581.234137" y="1545.116974" type="line"/>
    </contour>
  </outline>
</glyph>
<glyph name="uni01AD" format="2">
  <advance width="2048"/>
  <unicode hex="01AD"/>
  <anchor x="1612" y="1652" name="top"/>
  <anchor x="1020" y="-92" name="base"/>
  <outline>
    <contour>
      <point x="1485" y="1548" type="line"/>
      <point x="922" y="0" type="line"/>
      <point x="1122" y="0" type="line"/>
      <point x="1685" y="1548" type="line"/>
    </contour>
    <contour>
      <point x="1002" y="199" type="line"/>
      <point x="930" y="0" type="line"/>
      <point x="1822" y="0" type="line"/>
      <point x="1894" y="199" type="line"/>
    </contour>
    <contour>
      <point x="558" y="1023" type="line"/>
      <point x="486" y="824" type="line"/>
      <point x="2160" y="824" type="line"/>
      <point x="2232" y="1023" type="line"/>
    </contour>
    <contour>
      <point x="1988.51" y="1333.73" type="line"/>
      <point x="1512.31" y="1689.99" type="line"/>
      <point x="1454.65" y="1499.53" type="line"/>
      <point x="1928.93" y="1143.84" type="line"/>
    </contour>
    <contour>
      <point x="1512.31" y="1689.99" type="line"/>
      <point x="1406.26" y="1339.7" type="line"/>
      <point x="1576.52" y="1211.88" type="line"/>
      <point x="1682.58" y="1562.17" type="line"/>
    </contour>
  </outline>
</glyph>
<glyph name="uni01AE" format="2">
  <advance width="2048"/>
  <unicode hex="01AE"/>
  <anchor x="1582" y="1604" name="top"/>
  <anchor x="1013" y="-120" name="base"/>
  <outline>
    <contour>
      <point x="688" y="1548" type="line"/>
      <point x="616" y="1348" type="line"/>
      <point x="2414" y="1348" type="line"/>
      <point x="2486" y="1548" type="line"/>
    </contour>
    <contour>
      <point x="1447" y="1436" type="line"/>
      <point x="926" y="6" type="line"/>
      <point x="1126" y="6" type="line"/>
      <point x="1647" y="1436" type="line"/>
    </contour>
    <contour>
      <point x="1005" y="227" type="line"/>
      <point x="802" y="-332" type="line"/>
      <point x="1001" y="-332" type="line"/>
      <point x="1204" y="225" type="line"/>
    </contour>
    <contour>
      <point x="802" y="-332" type="line"/>
      <point x="1168" y="-332" type="line"/>
      <point x="1241" y="-132" type="line"/>
      <point x="875" y="-132" type="line"/>
    </contour>
  </outline>
</glyph>
<glyph name="Upsilon-latin" format="2">
  <advance width="2048"/>
  <unicode hex="01B1"/>
  <outline>
    <contour>
      <point x="1184" y="1455" type="line"/>
      <point x="255" y="0" type="line"/>
      <point x="456" y="0" type="line"/>
      <point x="1385" y="1455" type="line"/>
    </contour>
    <contour>
      <point x="1483" y="1455" type="line"/>
      <point x="1601" y="0" type="line"/>
      <point x="1801" y="0" type="line"/>
      <point x="1683" y="1455" type="line"/>
    </contour>
    <contour>
      <point x="518" y="196" type="line"/>
      <point x="447" y="0" type="line"/>
      <point x="1599" y="0" type="line"/>
      <point x="1673" y="203" type="line"/>
    </contour>
    <contour>
      <point x="1592" y="1455" type="line"/>
      <point x="1524" y="1255" type="line"/>
      <point x="2334" y="1255" type="line"/>
      <point x="2402" y="1455" type="line"/>
    </contour>
    <contour>
      <point x="461" y="1455" type="line"/>
      <point x="388" y="1255" type="line"/>
      <point x="1145" y="1255" type="line"/>
      <point x="1218" y="1455" type="line"/>
    </contour>
  </outline>
</glyph>
<glyph name="Ezh" format="2">
  <advance width="2048"/>
  <unicode hex="01B7"/>
  <outline>
    <contour>
      <point x="1884" y="0" type="line"/>
      <point x="1956" y="197" type="line"/>
      <point x="236" y="197" type="line"/>
      <point x="164" y="0" type="line"/>
    </contour>
    <contour>
      <point x="1896" y="39" type="line"/>
      <point x="2210" y="889" type="line"/>
      <point x="2008" y="889" type="line"/>
      <point x="1694" y="39" type="line"/>
    </contour>
    <contour>
      <point x="2030" y="688" type="line"/>
      <point x="2104" y="889" type="line"/>
      <point x="498" y="889" type="line"/>
      <point x="424" y="688" type="line"/>
    </contour>
    <contour>
      <point x="683" y="1544" type="line"/>
      <point x="611" y="1347" type="line"/>
      <point x="2463" y="1347" type="line"/>
      <point x="2535" y="1544" type="line"/>
    </contour>
    <contour>
      <point x="2080" y="1347" type="line"/>
      <point x="493" y="889" type="line"/>
      <point x="914" y="889" type="line"/>
      <point x="2463" y="1347" type="line"/>
    </contour>
  </outline>
</glyph>
<glyph name="uni01B8" format="2">
  <advance width="2048"/>
  <unicode hex="01B8"/>
  <outline>
    <contour>
      <point x="210" y="0" type="line"/>
      <point x="1930" y="0" type="line"/>
      <point x="2002" y="197" type="line"/>
      <point x="282" y="197" type="line"/>
    </contour>
    <contour>
      <point x="226" y="39" type="line"/>
      <point x="428" y="39" type="line"/>
      <point x="734" y="889" type="line"/>
      <point x="532" y="889" type="line"/>
    </contour>
    <contour>
      <point x="564" y="688" type="line"/>
      <point x="2170" y="688" type="line"/>
      <point x="2244" y="889" type="line"/>
      <point x="638" y="889" type="line"/>
    </contour>
    <contour>
      <point x="2535" y="1544" type="line"/>
      <point x="683" y="1544" type="line"/>
      <point x="611" y="1347" type="line"/>
      <point x="2463" y="1347" type="line"/>
    </contour>
    <contour>
      <point x="994" y="1347" type="line"/>
      <point x="611" y="1347" type="line"/>
      <point x="1828" y="889" type="line"/>
      <point x="2249" y="889" type="line"/>
    </contour>
  </outline>
</glyph>
<glyph name="ezhreversed" format="2">
  <advance width="2048"/>
  <unicode hex="01B9"/>
  <outline>
    <contour>
      <point x="210" y="0" type="line"/>
      <point x="1930" y="0" type="line"/>
      <point x="2002" y="197" type="line"/>
      <point x="282" y="197" type="line"/>
    </contour>
    <contour>
      <point x="226" y="39" type="line"/>
      <point x="428" y="39" type="line"/>
      <point x="635" y="619" type="line"/>
      <point x="433" y="619" type="line"/>
    </contour>
    <contour>
      <point x="466" y="418" type="line"/>
      <point x="2072" y="418" type="line"/>
      <point x="2145" y="619" type="line"/>
      <point x="539" y="619" type="line"/>
    </contour>
    <contour>
      <point x="2437" y="1274" type="line"/>
      <point x="585" y="1274" type="line"/>
      <point x="513" y="1077" type="line"/>
      <point x="2365" y="1077" type="line"/>
    </contour>
    <contour>
      <point x="896" y="1077" type="line"/>
      <point x="513" y="1077" type="line"/>
      <point x="1729" y="619" type="line"/>
      <point x="2150" y="619" type="line"/>
    </contour>
  </outline>
</glyph>
<glyph name="uni021C" format="2">
  <advance width="2048"/>
  <unicode hex="021C"/>
  <outline>
    <contour>
      <point x="369" y="502" type="line"/>
      <point x="2051" y="736" type="line"/>
      <point x="1853" y="192" type="line"/>
      <point x="129" y="-42" type="line"/>
      <point x="56" y="-242" type="line"/>
      <point x="1984" y="-8" type="line"/>
      <point x="2552" y="1553" type="line"/>
      <point x="654" y="1368" type="line"/>
      <point x="581" y="1168" type="line"/>
      <point x="2273" y="1353" type="line"/>
      <point x="2122" y="936" type="line"/>
      <point x="442" y="702" type="line"/>
    </contour>
  </outline>
</glyph>
<glyph name="uni021D" format="2">
  <advance width="2048"/>
  <unicode hex="021D"/>
  <outline>
    <contour>
      <point x="369" y="93" type="line"/>
      <point x="2051" y="327" type="line"/>
      <point x="1853" y="-137" type="line"/>
      <point x="129" y="-371" type="line"/>
      <point x="56" y="-571" type="line"/>
      <point x="1984" y="-337" type="line"/>
      <point x="2552" y="1100" type="line"/>
      <point x="654" y="915" type="line"/>
      <point x="581" y="715" type="line"/>
      <point x="2273" y="900" type="line"/>
      <point x="2122" y="527" type="line"/>
      <point x="442" y="293" type="line"/>
    </contour>
  </outline>
</glyph>
<glyph name="dcurl" format="2">
  <advance width="2048"/>
  <unicode hex="0221"/>
  <anchor x="1015" y="-59" name="base"/>
  <anchor x="2372" y="1632" name="top"/>
  <outline>
    <contour>
      <point x="1929" y="1514" type="line"/>
      <point x="1373" y="-13" type="line"/>
      <point x="1573" y="-13" type="line"/>
      <point x="2129" y="1514" type="line"/>
    </contour>
    <contour>
      <point x="478" y="1023" type="line"/>
      <point x="413" y="822" type="line"/>
      <point x="1791" y="822" type="line"/>
      <point x="1856" y="1023" type="line"/>
    </contour>
    <contour>
      <point x="390" y="1023" type="line"/>
      <point x="18" y="0" type="line"/>
      <point x="218" y="0" type="line"/>
      <point x="590" y="1023" type="line"/>
    </contour>
    <contour>
      <point x="195" y="195" type="line"/>
      <point x="114" y="0" type="line"/>
      <point x="1962" y="0" type="line"/>
      <point x="2043" y="195" type="line"/>
    </contour>
    <contour>
      <point x="732" y="-53" type="line"/>
      <point x="651" y="-248" type="line"/>
      <point x="1866" y="317" type="line"/>
      <point x="1947" y="512" type="line"/>
    </contour>
    <contour>
      <point x="1254" y="507" type="line"/>
      <point x="882" y="6" type="line"/>
      <point x="996" y="10" type="line"/>
      <point x="1368" y="511" type="line"/>
    </contour>
  </outline>
</glyph>
<glyph name="OU" format="2">
  <advance width="2048"/>
  <unicode hex="0222"/>
  <outline>
    <contour>
      <point x="680" y="1552" type="line"/>
      <point x="447" y="911" type="line"/>
      <point x="647" y="911" type="line"/>
      <point x="880" y="1552" type="line"/>
    </contour>
    <contour>
      <point x="2316" y="1552" type="line"/>
      <point x="2081" y="915" type="line"/>
      <point x="2281" y="915" type="line"/>
      <point x="2516" y="1552" type="line"/>
    </contour>
    <contour>
      <point x="386" y="779" type="line"/>
      <point x="311" y="581" type="line"/>
      <point x="2178" y="578" type="line"/>
      <point x="2251" y="783" type="line"/>
    </contour>
    <contour>
      <point x="386" y="779" type="line"/>
      <point x="104" y="24" type="line"/>
      <point x="308" y="24" type="line"/>
      <point x="583" y="779" type="line"/>
    </contour>
    <contour>
      <point x="2051" y="780" type="line"/>
      <point x="1773" y="0" type="line"/>
      <point x="1976" y="3" type="line"/>
      <point x="2251" y="783" type="line"/>
    </contour>
    <contour>
      <point x="167" y="200" type="line"/>
      <point x="92" y="0" type="line"/>
      <point x="1966" y="0" type="line"/>
      <point x="2039" y="200" type="line"/>
    </contour>
    <contour>
      <point x="2251" y="783" type="line"/>
      <point x="529" y="1143" type="line"/>
      <point x="448" y="910" type="line"/>
      <point x="2178" y="578" type="line"/>
    </contour>
    <contour>
      <point x="312" y="581" type="line"/>
      <point x="2281" y="915" type="line"/>
      <point x="2358" y="1139" type="line"/>
      <point x="386" y="780" type="line"/>
    </contour>
    <contour>
      <point x="1469" y="1559" type="line"/>
      <point x="680" y="1557" type="line"/>
      <point x="613" y="1359" type="line"/>
      <point x="1409" y="1358" type="line"/>
    </contour>
    <contour>
      <point x="1577" y="1344" type="line"/>
      <point x="2446" y="1342" type="line"/>
      <point x="2511" y="1547" type="line"/>
      <point x="1636" y="1545" type="line"/>
    </contour>
  </outline>
</glyph>
<glyph name="uni0222" format="2">
  <advance width="2048"/>
  <unicode hex="0222"/>
  <outline>
    <contour>
      <point x="668" y="1546" type="line"/>
      <point x="437" y="911" type="line"/>
      <point x="637" y="911" type="line"/>
      <point x="868" y="1546" type="line"/>
    </contour>
    <contour>
      <point x="2299" y="1533" type="line"/>
      <point x="2071" y="915" type="line"/>
      <point x="2271" y="915" type="line"/>
      <point x="2499" y="1533" type="line"/>
    </contour>
    <contour>
      <point x="376" y="779" type="line"/>
      <point x="301" y="581" type="line"/>
      <point x="2168" y="578" type="line"/>
      <point x="2241" y="783" type="line"/>
    </contour>
    <contour>
      <point x="376" y="779" type="line"/>
      <point x="94" y="24" type="line"/>
      <point x="298" y="24" type="line"/>
      <point x="573" y="779" type="line"/>
    </contour>
    <contour>
      <point x="2041" y="780" type="line"/>
      <point x="1763" y="0" type="line"/>
      <point x="1966" y="3" type="line"/>
      <point x="2241" y="783" type="line"/>
    </contour>
    <contour>
      <point x="157" y="200" type="line"/>
      <point x="82" y="0" type="line"/>
      <point x="1956" y="0" type="line"/>
      <point x="2029" y="200" type="line"/>
    </contour>
    <contour>
      <point x="2241" y="783" type="line"/>
      <point x="519" y="1143" type="line"/>
      <point x="438" y="910" type="line"/>
      <point x="2168" y="578" type="line"/>
    </contour>
    <contour>
      <point x="302" y="581" type="line"/>
      <point x="2271" y="915" type="line"/>
      <point x="2348" y="1139" type="line"/>
      <point x="376" y="780" type="line"/>
    </contour>
    <contour>
      <point x="1248" y="1548" type="line"/>
      <point x="669" y="1546" type="line"/>
      <point x="596" y="1348" type="line"/>
      <point x="1177" y="1347" type="line"/>
    </contour>
    <contour>
      <point x="1851" y="1348" type="line"/>
      <point x="2433" y="1346" type="line"/>
      <point x="2505" y="1550" type="line"/>
      <point x="1921" y="1548" type="line"/>
    </contour>
  </outline>
</glyph>
<glyph name="uni0223" format="2">
  <advance width="2048"/>
  <unicode hex="0223"/>
  <outline>
    <contour>
      <point x="680" y="1552" type="line"/>
      <point x="447" y="911" type="line"/>
      <point x="647" y="911" type="line"/>
      <point x="880" y="1552" type="line"/>
    </contour>
    <contour>
      <point x="2316" y="1552" type="line"/>
      <point x="2081" y="915" type="line"/>
      <point x="2281" y="915" type="line"/>
      <point x="2516" y="1552" type="line"/>
    </contour>
    <contour>
      <point x="386" y="779" type="line"/>
      <point x="311" y="581" type="line"/>
      <point x="2178" y="578" type="line"/>
      <point x="2251" y="783" type="line"/>
    </contour>
    <contour>
      <point x="386" y="779" type="line"/>
      <point x="104" y="24" type="line"/>
      <point x="308" y="24" type="line"/>
      <point x="583" y="779" type="line"/>
    </contour>
    <contour>
      <point x="2051" y="780" type="line"/>
      <point x="1773" y="0" type="line"/>
      <point x="1976" y="3" type="line"/>
      <point x="2251" y="783" type="line"/>
    </contour>
    <contour>
      <point x="167" y="200" type="line"/>
      <point x="92" y="0" type="line"/>
      <point x="1966" y="0" type="line"/>
      <point x="2039" y="200" type="line"/>
    </contour>
    <contour>
      <point x="2251" y="783" type="line"/>
      <point x="529" y="1143" type="line"/>
      <point x="448" y="910" type="line"/>
      <point x="2178" y="578" type="line"/>
    </contour>
    <contour>
      <point x="312" y="581" type="line"/>
      <point x="2281" y="915" type="line"/>
      <point x="2358" y="1139" type="line"/>
      <point x="386" y="780" type="line"/>
    </contour>
  </outline>
</glyph>
<glyph name="lcurl" format="2">
  <advance width="2048"/>
  <unicode hex="0234"/>
  <anchor x="1027" y="-75" name="base"/>
  <anchor x="1636" y="1637" name="top"/>
  <outline>
    <contour>
      <point x="1224" y="286" type="line"/>
      <point x="1151" y="86" type="line"/>
      <point x="1857" y="349" type="line"/>
      <point x="1930" y="549" type="line"/>
    </contour>
    <contour>
      <point x="1487" y="1548" type="line"/>
      <point x="955" y="86" type="line"/>
      <point x="1152" y="86" type="line"/>
      <point x="1684" y="1548" type="line"/>
    </contour>
    <contour>
      <point x="831" y="1548" type="line"/>
      <point x="759" y="1349" type="line"/>
      <point x="1494" y="1349" type="line"/>
      <point x="1566" y="1548" type="line"/>
    </contour>
    <contour>
      <point x="265" y="499" type="line"/>
      <point x="192" y="299" type="line"/>
      <point x="1861" y="361" type="line"/>
      <point x="1934" y="561" type="line"/>
    </contour>
  </outline>
</glyph>
<glyph name="uni0235" format="2">
  <advance width="2048"/>
  <unicode hex="0235"/>
  <anchor x="1032" y="-71" name="base"/>
  <anchor x="1514" y="1127" name="top"/>
  <outline>
    <contour>
      <point x="674" y="990" type="line"/>
      <point x="314" y="0" type="line"/>
      <point x="514" y="0" type="line"/>
      <point x="874" y="990" type="line"/>
    </contour>
    <contour>
      <point x="1626" y="996" type="line"/>
      <point x="1268" y="3" type="line"/>
      <point x="1470" y="3" type="line"/>
      <point x="1828" y="996" type="line"/>
    </contour>
    <contour>
      <point x="492" y="1023" type="line"/>
      <point x="435" y="826" type="line"/>
      <point x="1775" y="826" type="line"/>
      <point x="1833" y="1023" type="line"/>
    </contour>
    <contour>
      <point x="967" y="209" type="line"/>
      <point x="896" y="12" type="line"/>
      <point x="2027" y="402" type="line"/>
      <point x="2098" y="599" type="line"/>
    </contour>
    <contour>
      <point x="1541" y="198" type="line"/>
      <point x="1466" y="6" type="line"/>
      <point x="1821" y="6" type="line"/>
      <point x="1869" y="203" type="line"/>
    </contour>
    <contour>
      <point x="2088" y="596" type="line"/>
      <point x="1741" y="3" type="line"/>
      <point x="1940" y="5" type="line"/>
      <point x="2287" y="598" type="line"/>
    </contour>
  </outline>
</glyph>
<glyph name="tcurl" format="2">
  <advance width="2048"/>
  <unicode hex="0236"/>
  <anchor x="1612" y="1652" name="top"/>
  <anchor x="1020" y="-92" name="base"/>
  <outline>
    <contour>
      <point x="1485" y="1548" type="line"/>
      <point x="922" y="0" type="line"/>
      <point x="1122" y="0" type="line"/>
      <point x="1685" y="1548" type="line"/>
    </contour>
    <contour>
      <point x="1002" y="199" type="line"/>
      <point x="930" y="0" type="line"/>
      <point x="1822" y="0" type="line"/>
      <point x="1894" y="199" type="line"/>
    </contour>
    <contour>
      <point x="558" y="1023" type="line"/>
      <point x="486" y="824" type="line"/>
      <point x="2160" y="824" type="line"/>
      <point x="2232" y="1023" type="line"/>
    </contour>
    <contour>
      <point x="480" y="195" type="line"/>
      <point x="408" y="-4" type="line"/>
      <point x="1822" y="429" type="line"/>
      <point x="1822" y="624" type="line"/>
    </contour>
    <contour>
      <point x="1822" y="-1" type="line"/>
      <point x="2013" y="2" type="line"/>
      <point x="2013" y="628" type="line"/>
      <point x="1822" y="624" type="line"/>
    </contour>
  </outline>
</glyph>
<glyph name="uni0237" format="2">
  <advance width="2048"/>
  <unicode hex="0237"/>
  <outline>
    <contour>
      <point x="2012.34179688" y="1023.0" type="line"/>
      <point x="1490.40820312" y="-411.0" type="line"/>
      <point x="1688.40820312" y="-411.0" type="line"/>
      <point x="2210.34179688" y="1023.0" type="line"/>
    </contour>
    <contour>
      <point x="133.930664062" y="-209.0" type="line"/>
      <point x="62.228515625" y="-406.0" type="line"/>
      <point x="1592.22851562" y="-406.0" type="line"/>
      <point x="1663.93066406" y="-209.0" type="line"/>
    </contour>
    <contour>
      <point x="207.81640625" y="-6.0" type="line"/>
      <point x="82.24609375" y="-351.0" type="line"/>
      <point x="282.24609375" y="-351.0" type="line"/>
      <point x="407.81640625" y="-6.0" type="line"/>
    </contour>
  </outline>
</glyph>
<glyph name="uni0250" format="2">
  <advance width="2048"/>
  <unicode hex="0250"/>
  <anchor x="782" y="-86" name="top"/>
  <anchor x="1329" y="1112" name="base"/>
  <outline>
    <contour>
      <point x="1806" y="7" type="line"/>
      <point x="1878" y="206" type="line"/>
      <point x="272" y="206" type="line"/>
      <point x="200" y="7" type="line"/>
    </contour>
    <contour>
      <point x="313" y="10" type="line"/>
      <point x="716" y="1122" type="line"/>
      <point x="523" y="1127" type="line"/>
      <point x="119" y="15" type="line"/>
    </contour>
    <contour>
      <point x="1956" y="431" type="line"/>
      <point x="2028" y="630" type="line"/>
      <point x="404" y="630" type="line"/>
      <point x="332" y="431" type="line"/>
    </contour>
    <contour>
      <point x="1965" y="455" type="line"/>
      <point x="2174" y="1030" type="line"/>
      <point x="1973" y="1030" type="line"/>
      <point x="1764" y="455" type="line"/>
    </contour>
    <contour>
      <point x="2103" y="829" type="line"/>
      <point x="2176" y="1030" type="line"/>
      <point x="486" y="1030" type="line"/>
      <point x="413" y="829" type="line"/>
    </contour>
  </outline>
</glyph>
<glyph name="uni0254" format="2">
  <advance width="2048"/>
  <unicode hex="0254"/>
  <anchor x="1014" y="-91" name="base"/>
  <anchor x="1398" y="1123" name="top"/>
  <outline>
    <contour>
      <point x="1879" y="0" type="line"/>
      <point x="1950" y="197" type="line"/>
      <point x="244" y="197" type="line"/>
      <point x="173" y="0" type="line"/>
    </contour>
    <contour>
      <point x="1891" y="39" type="line"/>
      <point x="2249" y="1023" type="line"/>
      <point x="2047" y="1023" type="line"/>
      <point x="1689" y="39" type="line"/>
    </contour>
    <contour>
      <point x="2070" y="822" type="line"/>
      <point x="2143" y="1023" type="line"/>
      <point x="551" y="1023" type="line"/>
      <point x="478" y="822" type="line"/>
    </contour>
  </outline>
</glyph>
<glyph name="uni0259" format="2">
  <advance width="2048"/>
  <unicode hex="0259"/>
  <outline>
    <contour>
      <point x="1828.0" y="0.0" type="line"/>
      <point x="1904.79785156" y="211.0" type="line"/>
      <point x="341.18359375" y="278.0" type="line"/>
      <point x="264.385742188" y="67.0" type="line"/>
    </contour>
    <contour>
      <point x="1878.0" y="0.0" type="line"/>
      <point x="2250.34179688" y="1023.0" type="line"/>
      <point x="2048.34179688" y="1023.0" type="line"/>
      <point x="1676.0" y="0.0" type="line"/>
    </contour>
    <contour>
      <point x="2075.18359375" y="822.0" type="line"/>
      <point x="2148.34179688" y="1023.0" type="line"/>
      <point x="542.341796875" y="1023.0" type="line"/>
      <point x="469.18359375" y="822.0" type="line"/>
    </contour>
    <contour>
      <point x="1952.86035156" y="398.0" type="line"/>
      <point x="2018.01074219" y="577.0" type="line"/>
      <point x="404.010742188" y="577.0" type="line"/>
      <point x="338.860351562" y="398.0" type="line"/>
    </contour>
    <contour>
      <point x="472.3046875" y="97.0" type="line"/>
      <point x="576.375" y="578.0" type="line"/>
      <point x="381.375" y="578.0" type="line"/>
      <point x="277.3046875" y="97.0" type="line"/>
    </contour>
  </outline>
</glyph>
<glyph name="eopen" format="2">
  <advance width="2048"/>
  <unicode hex="025B"/>
  <anchor x="1429" y="1190" name="top"/>
  <outline>
    <contour>
      <point x="518" y="1140" type="line"/>
      <point x="475" y="669" type="line"/>
      <point x="675" y="668" type="line"/>
      <point x="718" y="1139" type="line"/>
    </contour>
    <contour>
      <point x="596" y="1139" type="line"/>
      <point x="521" y="935" type="line"/>
      <point x="2264" y="935" type="line"/>
      <point x="2339" y="1139" type="line"/>
    </contour>
    <contour>
      <point x="244" y="203" type="line"/>
      <point x="170" y="0" type="line"/>
      <point x="1940" y="0" type="line"/>
      <point x="2014" y="203" type="line"/>
    </contour>
    <contour>
      <point x="622" y="670" type="line"/>
      <point x="549" y="470" type="line"/>
      <point x="1352" y="470" type="line"/>
      <point x="1425" y="670" type="line"/>
    </contour>
    <contour>
      <point x="411" y="473" type="line"/>
      <point x="97" y="2" type="line"/>
      <point x="296" y="1" type="line"/>
      <point x="611" y="472" type="line"/>
    </contour>
  </outline>
</glyph>
<glyph name="gamma_latin" format="2">
  <advance width="2048"/>
  <unicode hex="0263"/>
  <outline>
    <contour>
      <point x="740" y="935" type="line"/>
      <point x="1398" y="-158" type="line"/>
      <point x="1598" y="-158" type="line"/>
      <point x="940" y="935" type="line"/>
    </contour>
    <contour>
      <point x="2424" y="965" type="line"/>
      <point x="804" y="-158" type="line"/>
      <point x="1003" y="-158" type="line"/>
      <point x="2624" y="965" type="line"/>
    </contour>
    <contour>
      <point x="731" y="-360" type="line"/>
      <point x="1525" y="-361" type="line"/>
      <point x="1599" y="-158" type="line"/>
      <point x="805" y="-158" type="line"/>
    </contour>
  </outline>
</glyph>
<glyph name="iota_latin" format="2">
  <advance width="2048"/>
  <unicode hex="0269"/>
  <anchor x="1394" y="1114" name="top"/>
  <outline>
    <contour>
      <point x="1176" y="1018" type="line"/>
      <point x="893" y="239" type="line"/>
      <point x="1095" y="239" type="line"/>
      <point x="1378" y="1018" type="line"/>
    </contour>
    <contour>
      <point x="916" y="304" type="line"/>
      <point x="844" y="106" type="line"/>
      <point x="1816" y="6" type="line"/>
      <point x="1888" y="204" type="line"/>
    </contour>
  </outline>
</glyph>
<glyph name="icapitalsmall" format="2">
  <advance width="2048"/>
  <unicode hex="026A"/>
  <anchor x="1637" y="1626" name="top"/>
  <anchor x="1029" y="-86" name="base"/>
  <outline>
    <contour>
      <point x="703" y="1019" type="line"/>
      <point x="630" y="817" type="line"/>
      <point x="2375" y="817" type="line"/>
      <point x="2448" y="1019" type="line"/>
    </contour>
    <contour>
      <point x="1509" y="950" type="line"/>
      <point x="1006" y="84" type="line"/>
      <point x="1206" y="84" type="line"/>
      <point x="1709" y="950" type="line"/>
    </contour>
    <contour>
      <point x="198" y="204" type="line"/>
      <point x="126" y="6" type="line"/>
      <point x="1926" y="6" type="line"/>
      <point x="1998" y="204" type="line"/>
    </contour>
  </outline>
</glyph>
<glyph name="obarred" format="2">
  <advance width="2048"/>
  <unicode hex="0275"/>
  <anchor x="1458" y="1124" name="top"/>
  <anchor x="1025" y="-72" name="base"/>
  <outline>
    <contour>
      <point x="488" y="1023" type="line"/>
      <point x="116" y="0" type="line"/>
      <point x="316" y="0" type="line"/>
      <point x="688" y="1023" type="line"/>
    </contour>
    <contour>
      <point x="2104" y="1023" type="line"/>
      <point x="1732" y="0" type="line"/>
      <point x="1934" y="0" type="line"/>
      <point x="2306" y="1023" type="line"/>
    </contour>
    <contour>
      <point x="612" y="1023" type="line"/>
      <point x="539" y="822" type="line"/>
      <point x="2125" y="822" type="line"/>
      <point x="2198" y="1023" type="line"/>
    </contour>
    <contour>
      <point x="317" y="200" type="line"/>
      <point x="244" y="0" type="line"/>
      <point x="1816" y="0" type="line"/>
      <point x="1889" y="200" type="line"/>
    </contour>
    <contour>
      <point x="525.38" y="636" type="line"/>
      <point x="385.273" y="428" type="line"/>
      <point x="1908.02" y="428" type="line"/>
      <point x="2048.12" y="636" type="line"/>
    </contour>
  </outline>
</glyph>
<glyph name="rfishhookreversed" format="2">
  <advance width="2048"/>
  <unicode hex="027F"/>
  <anchor x="1391" y="1122" name="top"/>
  <anchor x="989" y="-94" name="base"/>
  <outline>
    <contour>
      <point x="523" y="1023" type="line"/>
      <point x="457" y="821" type="line"/>
      <point x="2024" y="821" type="line"/>
      <point x="2090" y="1023" type="line"/>
    </contour>
    <contour>
      <point x="1862" y="941" type="line"/>
      <point x="1515" y="-505" type="line"/>
      <point x="1715" y="-505" type="line"/>
      <point x="2062" y="941" type="line"/>
    </contour>
  </outline>
</glyph>
<glyph name="esh" format="2">
  <advance width="2048"/>
  <unicode hex="0283"/>
  <outline>
    <contour>
      <point x="1046" y="1641" type="line"/>
      <point x="823" y="-390" type="line"/>
      <point x="1016" y="-390" type="line"/>
      <point x="1239" y="1641" type="line"/>
    </contour>
    <contour>
      <point x="351" y="-240" type="line"/>
      <point x="351" y="-390" type="line"/>
      <point x="982" y="-390" type="line"/>
      <point x="982" y="-240" type="line"/>
    </contour>
    <contour>
      <point x="1118" y="1641" type="line"/>
      <point x="1118" y="1507" type="line"/>
      <point x="1778" y="1504" type="line"/>
      <point x="1778" y="1638" type="line"/>
    </contour>
  </outline>
</glyph>
<glyph name="uni0285" format="2">
  <advance width="2048"/>
  <unicode hex="0285"/>
  <outline>
    <contour>
      <point x="1347" y="1001" type="line"/>
      <point x="1005" y="-399" type="line"/>
      <point x="1198" y="-399" type="line"/>
      <point x="1540" y="1001" type="line"/>
    </contour>
    <contour>
      <point x="1100" y="-201" type="line"/>
      <point x="1028" y="-400" type="line"/>
      <point x="1685" y="-400" type="line"/>
      <point x="1757" y="-201" type="line"/>
    </contour>
    <contour>
      <point x="927" y="1001" type="line"/>
      <point x="856" y="801" type="line"/>
      <point x="1422" y="800" type="line"/>
      <point x="1493" y="1000" type="line"/>
    </contour>
  </outline>
</glyph>
<glyph name="uni0288" format="2">
  <advance width="2048"/>
  <unicode hex="0288"/>
  <anchor x="1612" y="1652" name="top"/>
  <anchor x="1041" y="-497" name="base"/>
  <outline>
    <contour>
      <point x="1485" y="1548" type="line"/>
      <point x="922" y="-423" type="line"/>
      <point x="1122" y="-423" type="line"/>
      <point x="1685" y="1548" type="line"/>
    </contour>
    <contour>
      <point x="1002" y="-224" type="line"/>
      <point x="930" y="-423" type="line"/>
      <point x="1822" y="-423" type="line"/>
      <point x="1894" y="-224" type="line"/>
    </contour>
    <contour>
      <point x="558" y="1023" type="line"/>
      <point x="486" y="824" type="line"/>
      <point x="2160" y="824" type="line"/>
      <point x="2232" y="1023" type="line"/>
    </contour>
  </outline>
</glyph>
<glyph name="upsilon_latin" format="2">
  <advance width="2048"/>
  <unicode hex="028A"/>
  <anchor x="1404" y="1129" name="top"/>
  <outline>
    <contour>
      <point x="1184" y="1023" type="line"/>
      <point x="255" y="0" type="line"/>
      <point x="456" y="0" type="line"/>
      <point x="1385" y="1023" type="line"/>
    </contour>
    <contour>
      <point x="1483" y="1023" type="line"/>
      <point x="1601" y="0" type="line"/>
      <point x="1801" y="0" type="line"/>
      <point x="1683" y="1023" type="line"/>
    </contour>
    <contour>
      <point x="518" y="196" type="line"/>
      <point x="447" y="0" type="line"/>
      <point x="1599" y="0" type="line"/>
      <point x="1673" y="203" type="line"/>
    </contour>
    <contour>
      <point x="1592" y="1023" type="line"/>
      <point x="1524" y="823" type="line"/>
      <point x="2334" y="823" type="line"/>
      <point x="2402" y="1023" type="line"/>
    </contour>
    <contour>
      <point x="461" y="1023" type="line"/>
      <point x="388" y="823" type="line"/>
      <point x="1145" y="823" type="line"/>
      <point x="1218" y="1023" type="line"/>
    </contour>
  </outline>
</glyph>
<glyph name="uni0292" format="2">
  <advance width="2048"/>
  <unicode hex="0292"/>
  <outline>
    <contour>
      <point x="1884" y="0" type="line"/>
      <point x="1956" y="197" type="line"/>
      <point x="236" y="197" type="line"/>
      <point x="164" y="0" type="line"/>
    </contour>
    <contour>
      <point x="1896" y="39" type="line"/>
      <point x="2111" y="619" type="line"/>
      <point x="1909" y="619" type="line"/>
      <point x="1694" y="39" type="line"/>
    </contour>
    <contour>
      <point x="1932" y="418" type="line"/>
      <point x="2005" y="619" type="line"/>
      <point x="399" y="619" type="line"/>
      <point x="326" y="418" type="line"/>
    </contour>
    <contour>
      <point x="585" y="1274" type="line"/>
      <point x="513" y="1077" type="line"/>
      <point x="2365" y="1077" type="line"/>
      <point x="2437" y="1274" type="line"/>
    </contour>
    <contour>
      <point x="1982" y="1077" type="line"/>
      <point x="394" y="619" type="line"/>
      <point x="815" y="619" type="line"/>
      <point x="2365" y="1077" type="line"/>
    </contour>
  </outline>
</glyph>
<glyph name="glottalstopreversed" format="2">
  <advance width="2048"/>
  <unicode hex="0295"/>
  <outline>
    <contour>
      <point x="1833" y="1543" type="line"/>
      <point x="1760" y="1343" type="line"/>
      <point x="1232" y="1343" type="line"/>
      <point x="1305" y="1543" type="line"/>
    </contour>
    <contour>
      <point x="1505" y="1543" type="line"/>
      <point x="1317" y="1028" type="line"/>
      <point x="1117" y="1028" type="line"/>
      <point x="1305" y="1543" type="line"/>
    </contour>
    <contour>
      <point x="1594" y="1073" type="line"/>
      <point x="1521" y="873" type="line"/>
      <point x="1061" y="873" type="line"/>
      <point x="1134" y="1073" type="line"/>
    </contour>
    <contour>
      <point x="1607" y="1073" type="line"/>
      <point x="1277" y="167" type="line"/>
      <point x="1077" y="167" type="line"/>
      <point x="1407" y="1073" type="line"/>
    </contour>
  </outline>
</glyph>
<glyph name="jcrossedtail" format="2">
  <advance width="2048"/>
  <unicode hex="029D"/>
  <anchor x="2220" y="1424" name="top"/>
  <anchor x="1025" y="-476" name="base"/>
  <outline>
    <contour>
      <point x="2012" y="1023" type="line"/>
      <point x="1490" y="-411" type="line"/>
      <point x="1688" y="-411" type="line"/>
      <point x="2210" y="1023" type="line"/>
    </contour>
    <contour>
      <point x="134" y="-209" type="line"/>
      <point x="62" y="-406" type="line"/>
      <point x="1592" y="-406" type="line"/>
      <point x="1664" y="-209" type="line"/>
    </contour>
    <contour>
      <point x="208" y="-6" type="line"/>
      <point x="82" y="-351" type="line"/>
      <point x="282" y="-351" type="line"/>
      <point x="408" y="-6" type="line"/>
    </contour>
    <contour>
      <point x="2103" y="1307" type="line"/>
      <point x="2032" y="1112" type="line"/>
      <point x="2258" y="1112" type="line"/>
      <point x="2329" y="1307" type="line"/>
    </contour>
    <contour>
      <point x="207.21994957689526" y="-8" type="line"/>
      <point x="2012.8818052469983" y="-8" type="line"/>
      <point x="2179.020184219066" y="200" type="line"/>
      <point x="373.35832854896285" y="200" type="line"/>
    </contour>
  </outline>
</glyph>
<glyph name="circumflex" format="2">
  <advance width="2048"/>
  <unicode hex="02C6"/>
  <outline>
    <contour>
      <point x="1557.43" y="1298.0" type="line"/>
      <point x="1497.43" y="1298.0" type="line"/>
      <point x="1301.53" y="1051.0" type="line"/>
      <point x="1352.43" y="1026.0" type="line"/>
    </contour>
    <contour>
      <point x="1481.96" y="1250.0" type="line"/>
      <point x="1504.43" y="1026.0" type="line"/>
      <point x="1572.44" y="1048.0" type="line"/>
      <point x="1557.43" y="1298.0" type="line"/>
    </contour>
  </outline>
</glyph>
<glyph name="caron" format="2">
  <advance width="2048"/>
  <unicode hex="02C7"/>
  <outline>
    <contour>
      <point x="1400" y="1158" type="line"/>
      <point x="1393" y="1430" type="line"/>
      <point x="1324" y="1405" type="line"/>
      <point x="1340" y="1158" type="line"/>
    </contour>
    <contour>
      <point x="1360" y="1206" type="line"/>
      <point x="1400" y="1158" type="line"/>
      <point x="1596" y="1408" type="line"/>
      <point x="1544" y="1430" type="line"/>
    </contour>
  </outline>
</glyph>
<glyph name="uni02C9" format="2">
  <advance width="2048"/>
  <unicode hex="02C9"/>
  <outline>
    <contour>
      <point x="1337" y="1630" type="line"/>
      <point x="1307" y="1548" type="line"/>
      <point x="1867" y="1548" type="line"/>
      <point x="1897" y="1630" type="line"/>
    </contour>
  </outline>
</glyph>
<glyph name="uni02CA" format="2">
  <advance width="2048"/>
  <unicode hex="02CA"/>
  <outline>
    <contour>
      <point x="1554.08007812" y="1330.0" type="line"/>
      <point x="1331.63183594" y="1076.0" type="line"/>
      <point x="1402.88964844" y="1030.0" type="line"/>
      <point x="1627.70214844" y="1285.0" type="line"/>
    </contour>
  </outline>
</glyph>
<glyph name="uni02CB" format="2">
  <advance width="2048"/>
  <unicode hex="02CB"/>
  <outline>
    <contour>
      <point x="1684.88574219" y="2107.0" type="line"/>
      <point x="1718.98828125" y="1871.0" type="line"/>
      <point x="1827.73046875" y="1917.0" type="line"/>
      <point x="1793.9921875" y="2154.0" type="line"/>
    </contour>
  </outline>
</glyph>
<glyph name="verticallinelowmod" format="2">
  <advance width="2048"/>
  <unicode hex="02CC"/>
  <outline>
    <contour>
      <point x="1220" y="805" type="line"/>
      <point x="930" y="7" type="line"/>
      <point x="1132" y="7" type="line"/>
      <point x="1422" y="805" type="line"/>
    </contour>
  </outline>
</glyph>
<glyph name="breve" format="2">
  <advance width="2048"/>
  <unicode hex="02D8"/>
  <outline>
    <contour>
      <point x="1665.42578125" y="1548.0" type="line"/>
      <point x="1640.67578125" y="1480.0" type="line"/>
      <point x="1830.42578125" y="1548.0" type="line"/>
      <point x="1865.73144531" y="1645.0" type="line"/>
    </contour>
    <contour>
      <point x="1341.42578125" y="1548.0" type="line"/>
      <point x="1316.67578125" y="1480.0" type="line"/>
      <point x="1640.67578125" y="1480.0" type="line"/>
      <point x="1665.42578125" y="1548.0" type="line"/>
    </contour>
    <contour>
      <point x="1200.27148438" y="1630.0" type="line"/>
      <point x="1170.42578125" y="1548.0" type="line"/>
      <point x="1316.67578125" y="1480.0" type="line"/>
      <point x="1341.42578125" y="1548.0" type="line"/>
    </contour>
  </outline>
</glyph>
<glyph name="dotaccent" format="2">
  <advance width="2048"/>
  <unicode hex="02D9"/>
  <outline>
    <contour>
      <point x="1280.34179688" y="1023.0" type="line"/>
      <point x="1245.03613281" y="926.0" type="line"/>
      <point x="1357.03613281" y="926.0" type="line"/>
      <point x="1392.34179688" y="1023.0" type="line"/>
    </contour>
  </outline>
</glyph>
<glyph name="ring" format="2">
  <advance width="2048"/>
  <unicode hex="02DA"/>
  <outline>
    <contour>
      <point x="1405" y="1252" type="line"/>
      <point x="1553" y="1252" type="line"/>
      <point x="1505" y="1122" type="line"/>
      <point x="1357" y="1122" type="line"/>
    </contour>
    <contour>
      <point x="1333" y="1343" type="line"/>
      <point x="1220" y="1034" type="line"/>
      <point x="1580" y="1034" type="line"/>
      <point x="1693" y="1343" type="line"/>
    </contour>
  </outline>
</glyph>
